SplineFontDB: 3.2
FontName: Untitled1
FullName: Untitled1
FamilyName: Untitled1
Weight: Regular
Copyright: Copyright (c) 2025, John Paul Padley
UComments: "2025-3-25: Created with FontForge (http://fontforge.org)"
Version: 001.000
ItalicAngle: 0
UnderlinePosition: -100
UnderlineWidth: 50
Ascent: 800
Descent: 200
InvalidEm: 0
LayerCount: 2
Layer: 0 0 "Back" 1
Layer: 1 0 "Fore" 0
XUID: [1021 106 1849591147 5777911]
StyleMap: 0x0000
FSType: 0
OS2Version: 0
OS2_WeightWidthSlopeOnly: 0
OS2_UseTypoMetrics: 1
CreationTime: 1742879032
ModificationTime: 1743035543
OS2TypoAscent: 0
OS2TypoAOffset: 1
OS2TypoDescent: 0
OS2TypoDOffset: 1
OS2TypoLinegap: 90
OS2WinAscent: 0
OS2WinAOffset: 1
OS2WinDescent: 0
OS2WinDOffset: 1
HheadAscent: 0
HheadAOffset: 1
HheadDescent: 0
HheadDOffset: 1
OS2Vendor: 'PfEd'
DEI: 91125
Encoding: ISO8859-1
UnicodeInterp: none
NameList: Adobe Glyph List
DisplaySize: -48
AntiAlias: 1
FitToEm: 0
WinInfo: 0 16 4
BeginChars: 256 160

StartChar: A
Encoding: 65 65 0
Width: 1020
Flags: HW
LayerCount: 2
Fore
SplineSet
340.046875 441.48046875 m 1
 340.046875 431.657226562 336.303710938 451.306640625 336.303710938 461.129882812 c 1
 336.303710938 451.306640625 481.953125 479.049804688 481.953125 488.873046875 c 1
 481.953125 479.049804688 485.696289062 459.399414062 485.696289062 469.223632812 c 1
 485.696289062 459.399414062 340.046875 431.657226562 340.046875 441.48046875 c 1
418.513671875 551.614257812 m 1
 423.059570312 555.631835938 423.059570312 555.631835938 440.921875 569.201171875 c 1
 454.989257812 493.19140625 469.37109375 454.176757812 533.1640625 333.483398438 c 0
 542.548828125 315.1328125 543.740234375 312.803710938 553.430664062 293.568359375 c 1
 535.568359375 284.569335938 l 1
 525.89453125 303.770507812 524.71484375 306.077148438 515.345703125 324.395507812 c 0
 480.643554688 390.014648438 444.573242188 457.9765625 427.584960938 532.930664062 c 1
 419.802734375 525.668945312 412.838867188 517.538085938 406.607421875 508.705078125 c 0
 393.366210938 469.682617188 375.327148438 431.901367188 363.70703125 392.5703125 c 0
 358.250976562 360.624023438 355.504882812 327.94140625 353.987304688 297.495117188 c 1
 334.065429688 296.849609375 l 1
 333.12109375 305.076171875 332.68359375 313.2109375 332.68359375 321.25390625 c 0
 332.68359375 346.685546875 337.014648438 371.090820312 343.493164062 394.802734375 c 0
 351.103515625 438.931640625 364.412109375 482.803710938 388.583007812 518.133789062 c 0
 393.038085938 532.169921875 396.818359375 546.185546875 399.447265625 560.255859375 c 1
 399.447265625 555.809570312 390.133789062 564.784179688 390.133789062 571.453125 c 1
 390.133789062 563.131835938 406.7734375 574.225585938 406.7734375 582.545898438 c 1
 406.7734375 575.34375 420.528320312 559.884765625 420.528320312 564.686523438 c 1
 419.495117188 557.64453125 419.23828125 555.897460938 418.513671875 551.614257812 c 1
EndSplineSet
Validated: 524325
EndChar

StartChar: zero
Encoding: 48 48 1
Width: 1020
Flags: HW
HStem: 269.447 20<271.281 364.418>
VStem: 217.546 20<323.946 423.698> 423.32 20<345.062 432.215>
LayerCount: 2
Fore
SplineSet
327.236328125 528.526367188 m 5
 380.356445312 506.922851562 423.3203125 434.165039062 423.3203125 389.350585938 c 4
 423.3203125 327.307617188 374.048828125 289.447265625 316.25 289.447265625 c 4
 251.6796875 289.447265625 237.545898438 330.622070312 237.545898438 366.674804688 c 4
 237.545898438 415.517578125 269.33203125 503.497070312 319.890625 517.8515625 c 5
 306.693359375 534.05078125 l 5
 248.881835938 511.12109375 217.545898438 418.823242188 217.545898438 366.674804688 c 4
 217.545898438 277.501953125 290.053710938 269.447265625 316.25 269.447265625 c 4
 383.392578125 269.447265625 443.3203125 314.9296875 443.3203125 389.350585938 c 4
 443.3203125 399.9609375 441.622070312 411.13671875 438.067382812 422.809570312 c 4
 426.106277705 462.087342113 390.138749103 523.720774912 335.534179688 546.38671875 c 5
 327.236328125 528.526367188 l 5
  Spiro
    327.236 528.526 v
    375.713 492.848 o
    410.239 440.495 o
    423.32 389.351 o
    408.434 335.919 o
    369.65 301.537 o
    316.25 289.447 o
    267.182 301.435 o
    243.588 330.664 o
    237.546 366.675 o
    247.64 424.324 o
    276.108 483.183 o
    319.891 517.852 v
    306.693 534.051 v
    257.927 492.112 o
    227.791 428.083 o
    217.546 366.675 o
    237.279 301.879 o
    279.061 274.825 o
    316.25 269.447 o
    378.979 283.967 o
    425.331 325.242 o
    443.32 389.351 o
    442.75 400.136 o
    441.007 411.316 o
    438.067 422.81 o
    418.33 467.221 o
    383.686 513.045 o
    335.534 546.387 v
    0 0 z
  EndSpiro
335.533957157 546.386902577 m 1029
  Spiro
    335.534 546.387 {
    0 0 z
  EndSpiro
EndSplineSet
Validated: 524297
EndChar

StartChar: one
Encoding: 49 49 2
Width: 912
Flags: HW
LayerCount: 2
Fore
SplineSet
321.6328125 172.530273438 m 1
 328.486328125 172.724609375 335.571289062 173.297851562 343.086914062 173.3203125 c 0
 343.086914062 173.34375 343.467773438 173.362304688 344.12890625 173.362304688 c 0
 347.271484375 173.362304688 356.733398438 172.908203125 361.534179688 170.28515625 c 0
 415.063476562 159.413085938 477.692739962 151.38671875 541.328669636 143.337890625 c 0
 563.341796875 140.553710938 582.33984375 137.765625 601.325195312 134.853515625 c 2
 601.325195312 144.79296875 683.043945312 135.712890625 683.043945312 125.774414062 c 1
 683.043945312 135.712890625 680.834960938 115.833007812 680.834960938 105.89453125 c 1
 653.380859375 108.951171875 625.90625 111.985351562 598.465820312 115.055664062 c 0
 579.498046875 117.965820312 560.053667388 120.7578125 537.911533511 123.552734375 c 0
 461.379036936 133.232421875 407.963867188 140.387695312 354.194335938 151.3671875 c 0
 353.213867188 152.0625 351.461914062 153.306640625 343.131835938 153.306640625 c 0
 335.282226562 153.306640625 325.87890625 152.48828125 318.744140625 152.48828125 c 0
 317.88671875 152.48828125 317.049804688 152.473632812 316.217773438 152.473632812 c 0
 314.608398438 152.473632812 299.97265625 152.534179688 299.97265625 154.728515625 c 0
 299.97265625 156.71484375 299.97265625 156.71484375 302.065429688 176.529296875 c 1
 302.065429688 186.349609375 321.708984375 182.575195312 321.708984375 172.754882812 c 1
 321.708984375 178.256835938 321.6328125 178.131835938 321.6328125 172.530273438 c 1
518.589388382 454.817382812 m 0
 518.589388382 513.3515625 504.038745955 580.848632812 498.07067798 638.520507812 c 1
 427.609558147 607.107421875 370.518554688 546.090820312 338.747070312 492.15234375 c 2
 333.8828125 483.401367188 l 1
 316.401367188 493.1171875 l 1
 321.252929688 501.84765625 l 2
 356.907226562 562.586914062 420.616349334 631.459960938 503.440463318 663.005859375 c 2
 503.440463318 653.947265625 518.860715802 660.150390625 518.860715802 669.208984375 c 1
 526.150227781 575.875976562 541.839537162 523.90625 541.839537162 454.817382812 c 0
 541.839537162 445.940429688 541.550045564 437.1953125 540.901811435 428.625 c 0
 540.225195777 360.313476562 537.801413178 297.805664062 522.265364054 227.728515625 c 1
 522.265364054 229.458984375 517.224804455 125.948242188 517.224804455 116.63671875 c 1
 517.224804455 126.629882812 493.990549331 127.356445312 493.990549331 117.36328125 c 1
 495.788803026 155.12109375 497.24647837 193.153320312 499.259296426 230.740234375 c 1
 514.568293315 299.4296875 516.982993826 360.69140625 517.655068439 429.084960938 c 2
 517.655068439 429.376953125 l 2
 517.862821233 431.771484375 518.589388382 441.555664062 518.589388382 454.817382812 c 0
EndSplineSet
Validated: 524325
EndChar

StartChar: two
Encoding: 50 50 3
Width: 1040
Flags: HW
LayerCount: 2
Fore
SplineSet
700.825708818 444.229492188 m 0
 687.284662495 444.229492188 674.122329744 443.899414062 662.155184452 443.899414062 c 0
 653.367400687 443.899414062 645.169066273 444.073242188 637.734267288 444.763671875 c 0
 572.861243089 412.715820312 421.638470143 437.951171875 361.069749671 387.22265625 c 2
 361.069749671 379.833984375 353.371276451 373.098632812 353.371276451 380.487304688 c 1
 353.371276451 373.098632812 339.323242603 387.873046875 339.323242603 395.260742188 c 1
 339.323242603 387.873046875 347.026806059 394.612304688 347.026806059 402.000976562 c 2
 416.660219146 461.764648438 572.71362624 433.069335938 630.231259138 465.006835938 c 2
 630.231259138 463.026367188 633.25384139 463.1171875 633.25384139 465.399414062 c 1
 640.296692188 464.556640625 645.790075088 463.899414062 662.155184452 463.899414062 c 0
 673.901413493 463.899414062 687.103450086 464.229492188 700.825708818 464.229492188 c 1
 698.847643033 469.498046875 697.931400518 473.833984375 697.931400518 477.204101562 c 0
 697.931400518 471.909179688 700.562034583 469.186523438 705.113723788 469.186523438 c 0
 734.114835479 469.186523438 840.23046875 444.650390625 841.991210938 386.833007812 c 0
 842.458007812 379.482421875 842.6875 372.158203125 842.6875 364.864257812 c 0
 842.6875 285.694335938 817.031728938 210.375 772.103268195 146.752929688 c 1
 832.001953125 127.7265625 885.978515625 98.7373046875 931.784179688 59.6865234375 c 2
 931.784179688 67.0302734375 939.12890625 60.2412109375 939.12890625 52.8984375 c 1
 939.12890625 60.2412109375 925.5546875 45.5576171875 925.5546875 38.21484375 c 1
 902.16796875 58.228515625 851.900390625 101.247070312 759.462175631 129.772460938 c 1
 680.808864008 35.431640625 555.460779684 -27.80078125 419.927132735 -27.80078125 c 0
 411.743050982 -27.80078125 403.524355623 -27.5615234375 395.278172989 -27.076171875 c 0
 384.937867185 -28.7509765625 372.820050901 -29.6396484375 359.679097143 -29.6396484375 c 0
 318.118164062 -29.6396484375 266.80859375 -21.451171875 235.165039062 3.59765625 c 0
 219.159179688 15.322265625 208.323242188 31.533203125 208.323242188 51.9169921875 c 0
 208.323242188 65.3505859375 210.916015625 78.91796875 212.286132812 81.822265625 c 0
 249.01171875 142.8046875 333.756560301 149.286132812 404.905845726 155.528320312 c 0
 448.319452178 159.590820312 448.319452178 159.590820312 480.190439036 165.799804688 c 0
 516.426812454 172.859375 553.44911834 176.390625 590.465315943 176.390625 c 0
 644.98581777 176.390625 699.499193266 168.733398438 751.376844461 153.356445312 c 1
 796.129183031 214.791015625 822.6875 288.013671875 822.6875 364.864257812 c 0
 822.6875 371.795898438 822.467773438 378.759765625 822.01953125 385.75 c 2
 822.01953125 385.12890625 822.0078125 385.311523438 822.0078125 385.932617188 c 1
 822.0078125 384.084960938 822.0078125 385.709960938 822.0078125 386.478515625 c 1
 820.436523438 438.497070312 762.822749566 444.229492188 700.825708818 444.229492188 c 0
228.323242188 51.9169921875 m 0
 228.323242188 2.529296875 314.635742188 -9.6396484375 359.679097143 -9.6396484375 c 0
 373.243558552 -9.6396484375 383.976830591 -8.69140625 394.11658109 -6.9619140625 c 1
 400.198395294 -7.3388671875 408.61357377 -7.80078125 419.927132735 -7.80078125 c 0
 546.013301308 -7.80078125 663.10705862 49.90234375 738.202295143 136.249023438 c 1
 690.502709816 149.66796875 640.523716722 156.390625 590.465315943 156.390625 c 0
 554.942593639 156.390625 519.384239682 153.006835938 484.603673816 146.248046875 c 0
 461.811632234 140.6953125 434.96063631 138.245117188 406.952120676 135.623046875 c 0
 334.028378914 129.309570312 260.786132812 121.504882812 230.374023438 73.283203125 c 0
 228.958007812 65.537109375 228.323242188 58.427734375 228.323242188 51.9169921875 c 0
EndSplineSet
Validated: 524293
EndChar

StartChar: three
Encoding: 51 51 4
Width: 1040
Flags: HW
LayerCount: 2
Fore
SplineSet
788.4453125 419.61328125 m 0
 788.4453125 502.568359375 672.390192017 553.069335938 589.5824593 553.069335938 c 0
 589.208814395 553.069335938 567.684123578 552.522460938 552.219024287 552.250976562 c 0
 464.728064328 550.833007812 363.208984375 548.079101562 332.208007812 483.88671875 c 2
 332.208007812 477.572265625 328.142578125 455.450195312 328.142578125 469.661132812 c 1
 328.142578125 460.522460938 309.86328125 468.64453125 309.86328125 477.783203125 c 1
 320.165039062 500.850585938 336.069335938 536.466796875 399.633789062 556.547851562 c 0
 447.265970233 570.62890625 504.693292252 571.44140625 551.799993137 572.247070312 c 0
 564.780459358 572.475585938 589.204592418 573.069335938 589.5824593 573.069335938 c 0
 686.615085762 573.069335938 808.4453125 513.918945312 808.4453125 419.61328125 c 0
 808.4453125 408.806640625 807.220703125 400.809570312 805.404296875 391.689453125 c 1
 777.439453125 356.35546875 729.092773438 312.395507812 613.838768801 297.703125 c 1
 684.793302976 269.393554688 699.01171875 223.392578125 704.5234375 203.748046875 c 1
 695.950195312 180.198242188 672.730061112 127.787109375 566.304592813 100.159179688 c 0
 490.589780327 79.107421875 417.034179688 78.6728515625 311.130859375 78 c 2
 311.130859375 88 301.129882812 87.9345703125 301.129882812 77.935546875 c 1
 301.129882812 87.9345703125 301 107.934570312 301 97.9345703125 c 1
 317.149414062 98.0400390625 317.149414062 98.0400390625 330.107421875 98.078125 c 0
 452.833701516 98.4091796875 639.03341254 100.048828125 683.172064066 204.243164062 c 1
 666.009730291 255.666015625 615.542336249 281.12109375 556.792480145 293.083007812 c 1
 539.58370463 292.325195312 522.523753781 292.065429688 505.855391237 292.065429688 c 0
 483.763900098 292.065429688 462.253986199 292.541015625 441.85339658 292.991210938 c 0
 429.519948231 293.263671875 417.470703125 293.536132812 406.059570312 293.80859375 c 1
 409.541015625 295.952148438 l 1
 406.5078125 296.158203125 393.469726562 297.744140625 393.469726562 309.752929688 c 0
 393.469726562 313.000976562 393.7421875 313.576171875 397.633789062 321.775390625 c 1
 419.111328125 322.545898438 429.567445464 322.7421875 443.489412407 322.75390625 c 0
 443.489412407 322.758789062 443.579129404 322.76171875 443.754341422 322.76171875 c 0
 448.719385584 322.76171875 522.332709352 320.5 559.355219776 313.274414062 c 1
 649.51552427 317.743164062 734.913085938 336.5234375 786.69921875 400.302734375 c 0
 787.885742188 406.950195312 788.4453125 413.384765625 788.4453125 419.61328125 c 0
EndSplineSet
Validated: 524293
EndChar

StartChar: four
Encoding: 52 52 5
Width: 1020
Flags: HW
LayerCount: 2
Fore
SplineSet
310.009765625 445.84375 m 0
 310.009765625 454.202148438 309.41796875 463.737304688 309.41796875 473.544921875 c 0
 309.41796875 508.86328125 319.653320312 518.170898438 334.856445312 531.99609375 c 1
 334.856445312 524.853515625 349.138671875 510.858398438 349.138671875 518.000976562 c 1
 349.138671875 511.001953125 342.141601562 504.145507812 342.141601562 511.00390625 c 2
 331.8984375 502.196289062 329.41796875 488.91796875 329.41796875 473.544921875 c 0
 329.41796875 472.745117188 330.009765625 446.120117188 330.009765625 445.84375 c 0
 330.009765625 445.064453125 330.0078125 444.287109375 330.00390625 443.51171875 c 0
 333.5859375 402.73828125 370.96484375 369.145507812 412.784179688 369.145507812 c 0
 417.169921875 369.145507812 420.5546875 369.474609375 424.301757812 370.000976562 c 2
 425.017578125 370.000976562 l 2
 425.067382812 370.000976562 425.116210938 370 425.166015625 370 c 0
 485.780273438 370 552.083984375 427.911132812 562.239257812 469.389648438 c 1
 562.239257812 459.598632812 581.823242188 455.537109375 581.823242188 465.329101562 c 1
 580.99609375 464.12890625 580.692382812 462.887695312 580.692382812 461.586914062 c 0
 580.692382812 451.541015625 582.072265625 441.002929688 582.072265625 430.012695312 c 0
 582.072265625 428.709960938 582.052734375 427.395507812 582.008789062 426.071289062 c 2
 582.008789062 426.071289062 594.481445312 193.0859375 594.481445312 183.493164062 c 1
 594.481445312 193.48046875 574.504882812 192.494140625 574.504882812 182.506835938 c 1
 574.504882812 192.100585938 561.990234375 425.940429688 561.990234375 425.940429688 c 1
 562.006835938 426.380859375 l 2
 562.051757812 427.578125 562.072265625 428.788085938 562.072265625 430.012695312 c 2
 562.072265625 430.012695312 562.06640625 431.370117188 562.0546875 432.0546875 c 1
 534.58984375 391.979492188 480.244140625 350.26953125 425.696289062 350.000976562 c 0
 421.37109375 349.424804688 417.060546875 349.145507812 412.784179688 349.145507812 c 0
 361.616210938 349.145507812 314.372070312 389.223632812 309.995117188 442.837890625 c 1
 309.995117188 440.818359375 309.995117188 443.732421875 309.995117188 444.001953125 c 2
 310.001953125 444.607421875 310.009765625 445.221679688 310.009765625 445.84375 c 0
EndSplineSet
Validated: 524293
EndChar

StartChar: five
Encoding: 53 53 6
Width: 1020
Flags: HW
LayerCount: 2
Fore
SplineSet
516.249023438 601.833984375 m 0
 476.819335938 601.833984375 472.13671875 559.532226562 469.3125 517.249023438 c 0
 468.981445312 511.951171875 468.663085938 506.844726562 468.2578125 502.041015625 c 0
 480.995117188 457.07421875 460.057617188 369.57421875 497.044921875 350.002929688 c 1
 506.153320312 354.305664062 515.3671875 358.872070312 524.706054688 363.500976562 c 0
 570.897460938 386.395507812 620.407226562 411.287109375 676.194335938 411.287109375 c 0
 688.921875 411.287109375 698.067382812 410.142578125 708.337890625 408.44140625 c 1
 760.239257812 366.920898438 l 1
 758.900390625 360.842773438 l 2
 742.51953125 290.875 673.3046875 202.4375 590.245117188 202.4375 c 0
 561.564453125 202.4375 543.106445312 211.840820312 525.573242188 220.772460938 c 1
 525.573242188 229.559570312 535.119140625 247.135742188 535.119140625 238.348632812 c 1
 551.915039062 229.873046875 566.647460938 222.4375 590.245117188 222.4375 c 0
 659.869140625 222.4375 720.958007812 298.155273438 737.928710938 359.16015625 c 1
 699.962890625 389.532226562 l 1
 691.922851562 390.732421875 684.009765625 391.287109375 676.194335938 391.287109375 c 0
 626.517578125 391.287109375 579.985351562 368.575195312 533.568359375 345.569335938 c 0
 518.000976562 337.853515625 512.053710938 334.90625 497.502929688 328.142578125 c 1
 487.079101562 332.150390625 468.739257812 339.202148438 459.596679688 370.079101562 c 0
 447.37109375 411.37109375 458.481445312 466.198242188 448 499.907226562 c 1
 448.4765625 505.185546875 448.645507812 507.130859375 449.348632812 518.465820312 c 0
 452.005859375 558.975585938 456.127929688 621.833984375 516.249023438 621.833984375 c 0
 516.380859375 621.833984375 525.337890625 621.72265625 529.41015625 621.000976562 c 0
 551.115234375 616.030273438 594.356445312 612.376953125 627.28125 600.317382812 c 0
 644.979492188 594.86328125 661.864257812 586.948242188 668.454101562 572.995117188 c 2
 668.454101562 567.140625 672.087890625 543.006835938 672.087890625 558.00390625 c 1
 672.087890625 548.688476562 653.454101562 541.415039062 653.454101562 550.73046875 c 1
 653.454101562 535.740234375 649.815429688 559.881835938 649.815429688 565.732421875 c 2
 641.044921875 584.401367188 585.799804688 591.869140625 552.504882812 596.370117188 c 0
 542.181640625 598.038085938 532.858398438 599.530273438 525.284179688 601.259765625 c 0
 522.01953125 601.653320312 519.010742188 601.833984375 516.249023438 601.833984375 c 0
EndSplineSet
Validated: 524293
EndChar

StartChar: six
Encoding: 54 54 7
Width: 1040
Flags: HW
LayerCount: 2
Fore
SplineSet
377.692382812 238.979492188 m 1
 385.69921875 228.768554688 395.28125 223.706054688 409.360873256 223.706054688 c 0
 412.256988794 223.706054688 579.974451285 236.466796875 670.4609375 307.01953125 c 1
 659.229492188 308.25 647.956054688 308.842773438 636.668945312 308.842773438 c 0
 549.334704286 308.842773438 455.642042147 280.125 377.692382812 238.979492188 c 1
409.360873256 203.706054688 m 0
 395.49609375 203.706054688 376.108398438 207.651367188 361.01171875 227.752929688 c 1
 332.147460938 207.6796875 313.887695312 191.875976562 293.237304688 173.3828125 c 1
 293.237304688 180.877929688 280 195.866210938 280 188.37109375 c 1
 314.729492188 219.458984375 332.698242188 232.538085938 351.329101562 245.427734375 c 1
 339.852539062 269.553710938 337.4921875 299.193359375 337.4921875 320.15625 c 0
 337.4921875 327.256835938 337.74609375 333.515625 338.125976562 338.569335938 c 0
 342.879882812 462.190429688 457.319543771 546.689453125 576.627078 590.004882812 c 2
 576.627078 580.78515625 586.911176646 584.655273438 586.911176646 593.875 c 1
 586.911176646 584.655273438 595.20703125 566.213867188 595.20703125 575.432617188 c 1
 595.20703125 566.213867188 585.257654903 562.336914062 585.257654903 571.556640625 c 2
 469.027175308 529.470703125 362.317382812 449.471679688 358.10546875 337.631835938 c 0
 358.1015625 337.45703125 357.4921875 330.446289062 357.4921875 320.15625 c 0
 357.4921875 301.598632812 360.267578125 276.359375 368.515625 256.934570312 c 1
 447.664371985 299.162109375 544.388308987 328.842773438 636.668945312 328.842773438 c 0
 665.967773438 328.842773438 681.610351562 326.041015625 712.184570312 320.565429688 c 1
 699.350585938 307.102539062 l 2
 628.9609375 239.766601562 508.253899426 214.391601562 417.091114654 204.01953125 c 1
 417.091114654 213.969726562 416.87965571 213.950195312 416.87965571 204 c 2
 414.330158441 203.8046875 411.824260955 203.706054688 409.360873256 203.706054688 c 0
EndSplineSet
Validated: 524293
EndChar

StartChar: seven
Encoding: 55 55 8
Width: 1040
Flags: HW
LayerCount: 2
Fore
SplineSet
675.87109375 462.383789062 m 1
 675.87109375 462.383789062 289 566.436523438 289 575.1875 c 1
 289 565.700195312 295.326171875 584.677734375 295.326171875 594.165039062 c 1
 295.326171875 585.370117188 705.431640625 473.616210938 705.431640625 473.616210938 c 1
 705.431640625 473.616210938 542.448828298 216.395507812 542.448828298 208.005859375 c 1
 542.448828298 216.668945312 522.905278729 226.658203125 522.905278729 217.994140625 c 1
 522.905278729 226.361328125 675.87109375 462.383789062 675.87109375 462.383789062 c 1
EndSplineSet
Validated: 524293
EndChar

StartChar: eight
Encoding: 56 56 9
Width: 1040
Flags: HW
LayerCount: 2
Fore
SplineSet
488.049270003 644.711914062 m 0
 488.596684593 644.711914062 541.580380775 645.133789062 542.849008884 645.133789062 c 0
 632.248263847 645.133789062 662.249913658 633.1875 697.467612756 616.306640625 c 1
 697.467612756 607.4765625 687.463246875 589.815429688 687.463246875 598.645507812 c 1
 657.144179858 613.127929688 629.90978365 625.133789062 542.849008884 625.133789062 c 0
 524.474195193 625.133789062 506.082730108 624.711914062 488.049270003 624.711914062 c 0
 480.865234043 624.711914062 473.723867281 624.780273438 466.647024673 624.971679688 c 0
 456.189949007 622.927734375 442.730418793 621.744140625 427.408013833 620.336914062 c 0
 354.072265625 614.357421875 290.1484375 605.09375 290.1484375 563.188476562 c 0
 290.1484375 559.135742188 290.309570312 554.844726562 290.65234375 550.306640625 c 0
 345.643554688 455.537109375 429.184509471 382.555664062 521.536264799 313.026367188 c 1
 556.03379109 406.572265625 609.094499971 494.641601562 688.473778371 564 c 2
 688.473778371 556.778320312 696.166722571 563.693359375 696.166722571 570.915039062 c 1
 696.166722571 563.693359375 710.90736944 549.25390625 710.90736944 556.474609375 c 1
 677.319425565 527.108398438 594.936651906 455.078125 539.256470548 299.49609375 c 1
 553.83892917 288.427734375 568.531703279 277.415039062 583.249454481 266.388671875 c 0
 712.266539505 173.26953125 769.02734375 126.182617188 834.612304688 44.9111328125 c 1
 818.01953125 35.25390625 808.05859375 29.45703125 783.40234375 29.45703125 c 0
 763.379882812 29.45703125 743.396484375 34.4052734375 725.626953125 34.4052734375 c 0
 719.4765625 34.4052734375 712.715086441 34.4052734375 700.408665288 29.6376953125 c 1
 691.899802763 30.7412109375 688.253147395 31.21484375 666.145299229 33.4345703125 c 0
 616.775996338 38.1015625 551.445291229 43.5361328125 510.93765228 70.3603515625 c 0
 490.340918153 82.8876953125 476.427637443 101.137695312 476.427637443 125.654296875 c 0
 476.427637443 135.608398438 477.857575934 146.23046875 480.79134348 157.619140625 c 0
 488.628946669 202.694335938 499.603256273 248.130859375 514.505213525 292.56640625 c 1
 406.212870221 373.708984375 327.411132812 446.325195312 271.375 543.796875 c 1
 270.204101562 554.463867188 270.1484375 558.813476562 270.1484375 563.188476562 c 0
 270.1484375 583.950195312 281.909179688 599.403320312 298.883789062 609.83203125 c 0
 332.194335938 632.484375 385.033203125 636.689453125 425.290164612 640.239257812 c 0
 449.261928236 642.44140625 456.548994698 643.357421875 464.632205954 645.0390625 c 1
 469.508983081 644.896484375 476.254879226 644.711914062 488.049270003 644.711914062 c 0
725.626953125 54.4052734375 m 0
 745.271484375 54.4052734375 765.200195312 49.45703125 783.40234375 49.45703125 c 0
 790.9609375 49.45703125 797.931640625 50.140625 804.45703125 51.98046875 c 1
 740.868164062 127.194335938 656.614457375 188.786132812 569.966845332 250.751953125 c 0
 557.447078188 260.130859375 544.910659649 269.51953125 532.413788173 278.963867188 c 1
 510.922041598 212.887695312 501.891782287 154.244140625 501.52961446 152.997070312 c 0
 498.901816285 142.775390625 497.74142224 133.688476562 497.74142224 125.654296875 c 0
 497.74142224 72.1005859375 580.237633523 61.0302734375 668.413011 53.322265625 c 0
 678.868005242 52.2734375 688.766218484 51.2822265625 697.782948537 50.1630859375 c 0
 707.23573698 53.376953125 716.760742188 54.4052734375 725.626953125 54.4052734375 c 0
EndSplineSet
Validated: 524293
EndChar

StartChar: nine
Encoding: 57 57 10
Width: 1020
Flags: HW
LayerCount: 2
Fore
SplineSet
574.966796875 575.853515625 m 0
 511.115234375 575.853515625 471.18359375 504.529296875 471.18359375 441.895507812 c 0
 471.18359375 432.96484375 471.91015625 424.356445312 473.349609375 416.361328125 c 1
 504.03125 378.862304688 l 1
 557.9296875 389.353515625 590.306640625 438.108398438 622.299804688 487.772460938 c 0
 640.421875 517.03125 640.421875 517.03125 670.67578125 559.392578125 c 1
 666.09375 501.609375 666.029296875 500.797851562 659.693359375 451.928710938 c 0
 655.479492188 417.673828125 651.302734375 383.619140625 649.998046875 349.765625 c 1
 649.998046875 349.765625 647.921875 103.545898438 647.921875 93.921875 c 1
 647.921875 103.921875 627.921875 104.078125 627.921875 94.078125 c 1
 627.921875 103.702148438 630.002929688 350.388671875 630.002929688 350.388671875 c 1
 631.34375 385.428710938 635.624023438 420.084960938 639.84375 454.390625 c 0
 641.323242188 464.658203125 642.795898438 474.888671875 644.139648438 485.08203125 c 1
 642.55078125 482.513671875 640.956054688 479.924804688 639.3515625 477.3203125 c 0
 607.084960938 427.03515625 570.185546875 367.916992188 501.484375 358.109375 c 2
 495.859375 357.271484375 l 1
 454.68359375 407.59765625 l 1
 451.756835938 422.146484375 451.18359375 431.744140625 451.18359375 441.895507812 c 0
 451.18359375 508.748046875 493.129882812 595.853515625 574.966796875 595.853515625 c 0
 591.272460938 595.853515625 595.282226562 592.8515625 608.23046875 592.47265625 c 0
 619.297851562 592.181640625 619.297851562 592.181640625 639.09375 571.23828125 c 1
 639.09375 563.619140625 623.857421875 550.66796875 623.857421875 558.287109375 c 1
 614.552734375 567.665039062 612.068359375 570.169921875 609.362304688 572.423828125 c 0
 582.484375 574.002929688 591.19921875 575.853515625 574.966796875 575.853515625 c 0
EndSplineSet
Validated: 524289
EndChar

StartChar: colon
Encoding: 58 58 11
Width: 1000
Flags: H
LayerCount: 2
Fore
SplineSet
495.53920092 367.511998978 m 1
 515.511998978 366.46079908 l 1
 511.46079908 289.488001022 l 1
 491.488001022 290.53920092 l 1
 495.53920092 367.511998978 l 1
475.778975521 543.490565729 m 1
 466.490565729 599.221024479 l 1
 486.221024479 602.509434271 l 1
 495.509434271 546.778975521 l 1
 475.778975521 543.490565729 l 1
EndSplineSet
Validated: 524289
EndChar

StartChar: semicolon
Encoding: 59 59 12
Width: 1000
Flags: H
LayerCount: 2
Fore
SplineSet
532.410486779 290.319233374 m 1
 556.845896373 346.171598159 l 1
 575.171598159 338.154103627 l 1
 549.589513221 279.680766626 l 1
 479.224922069 195.913396207 l 1
 463.913396207 208.775077931 l 1
 532.410486779 290.319233374 l 1
522 569 m 1
 522 598 l 1
 542 598 l 1
 542 569 l 1
 522 569 l 1
EndSplineSet
Validated: 524289
EndChar

StartChar: less
Encoding: 60 60 13
Width: 1000
Flags: H
LayerCount: 2
Fore
SplineSet
753 549.679198432 m 1
 753 562 l 1
 773 562 l 1
 773 542.368006997 l 1
 728.253574686 488.943467107 676.185127642 463.593194857 596.488165231 427.457090964 c 0
 524.365826034 394.755463908 455.736569851 363.111636165 417.295955129 301.625803779 c 1
 462.746500664 281.725872705 510.514292392 262.684925819 558.877720333 243.409237192 c 0
 661.523657769 202.498755594 689.136587883 190.448858135 719.744104402 176.835936717 c 1
 803.812676075 123.032050846 l 1
 793.032050846 106.187323925 l 1
 710.256633767 159.163590855 l 1
 658.36008673 182.223229528 604.67830724 203.621450783 551.484468217 224.822344134 c 0
 484.743163439 251.422704452 447.859591418 266.122991011 389.006627677 292.273570224 c 1
 394.224081844 301.794989797 l 2
 467.948298516 436.335548667 659.399001923 441.670625511 753 549.679198432 c 1
EndSplineSet
Validated: 524289
EndChar

StartChar: equal
Encoding: 61 61 14
Width: 1000
Flags: H
LayerCount: 2
Fore
SplineSet
396.425014687 416.52510125 m 1
 365.355899115 434.278881577 l 1
 375.278881577 451.644100885 l 1
 403.574985313 435.47489875 l 1
 702.815281022 373.775868707 l 1
 698.775868707 354.184718978 l 1
 396.425014687 416.52510125 l 1
302.608170154 524.407540037 m 1
 303.407541812 544.3918315 l 1
 463.383010336 537.992785157 463.383010336 537.992785157 632.370103047 531.615913734 c 1
 631.615913734 511.629896953 l 1
 621.616989664 512.007214843 l 1
 621.616989664 512.007214843 462.616987201 518.006352589 462.616987201 518.00721475 c 2
 302.608170154 524.407540037 l 1
EndSplineSet
Validated: 524293
EndChar

StartChar: greater
Encoding: 62 62 15
Width: 1000
Flags: H
LayerCount: 2
Fore
SplineSet
691.897691125 441.043578668 m 1
 614.779180813 512.913670946 451.074655562 480.187059858 362.86732113 566 c 1
 351 566 l 1
 351 586 l 1
 371.209266908 586 l 1
 411.114695197 545.133577642 456.620036144 532.686289563 543.347071053 516.551212482 c 0
 606.533963835 504.795646452 671.710679602 493.391508015 713.386409946 447.738198848 c 2
 719.62834731 440.900523926 l 1
 713.286453065 434.153897201 l 2
 633.699964572 349.488289509 489.904556802 365.88937094 406.131615225 289.057226429 c 1
 346.036952417 250.172444612 l 1
 335.172444612 266.963047583 l 1
 393.877887119 304.948922146 l 1
 478.393242787 381.778664701 616.364147886 370.265189828 691.897691125 441.043578668 c 1
EndSplineSet
Validated: 524289
EndChar

StartChar: question
Encoding: 63 63 16
Width: 1000
Flags: H
LayerCount: 2
Fore
SplineSet
428.990858791 237.23698791 m 0
 428.990858791 233.853425208 428.179132515 232.696601931 426.809226634 230.744294783 c 0
 426.817063397 230.507787475 426.821006565 230.270063881 426.821006565 230.03108349 c 0
 426.821006565 215.903131402 412.350155534 210.421209098 401.216862173 206.203637578 c 0
 396.693814931 204.490193531 392.549490208 202.841623646 390.066206997 201.378255495 c 1
 379.244794581 218.176733637 l 1
 388.082363075 224.411426424 395.119394765 229.7722065 400.265820573 233.853811982 c 1
 398.205894478 237.115921536 l 1
 400.028207626 238.266658611 l 1
 398.435228189 239.78087741 398.435228189 239.78087741 388.914999431 247.75664413 c 1
 401.75664413 263.085000569 l 1
 413.625029025 253.142017929 415.605754442 251.482624624 419.165143215 247.445102048 c 0
 425.645329376 247.262975642 428.990858791 241.276574813 428.990858791 237.23698791 c 0
460.932678866 589.165453002 m 1
 461.360510607 585.486363719 470.152715554 578.818442479 477.425515599 578.818442479 c 0
 485.831784933 578.818442479 566.704625121 606.423620686 579.137012794 664.700180936 c 0
 579.152288097 664.847510125 579.157427663 664.969034709 579.157427663 665.066834934 c 0
 579.157427663 665.593683075 578.538877134 668.278137978 570.03035748 671.130077196 c 0
 555.731289706 675.922928809 534.986255331 675.605650853 529.760391861 677.000067245 c 0
 466.837214983 676.864730606 404.237073323 665.091697286 391.611321905 621.232047141 c 2
 388.844759648 611.621494176 l 1
 369.621494176 617.155240352 l 1
 372.388678095 626.767952859 l 2
 383.727659229 666.157588302 426.059845574 697.001222455 530.836245417 697.001222455 c 0
 531.427126874 697.001222455 531.427126874 697.001222455 559.918784603 696.941536645 c 1
 556.812200114 694.397275281 l 1
 570.421542466 692.564970138 599.157427663 687.230435165 599.157427663 665.066834934 c 0
 599.157427663 664.920063717 599.150023343 662.683960494 598.790557183 660.956035312 c 0
 583.892715775 589.343297774 492.201228422 558.818442479 477.425515599 558.818442479 c 0
 471.811951525 558.818442479 466.382565104 560.194608268 461.464777783 562.49308463 c 1
 460.072059149 489.609777472 439.61176342 436.151088694 426.458431179 345.66425053 c 1
 406.66425053 348.541568821 l 1
 420.180033633 441.521846049 441.530697915 497.164975206 441.530697915 569.34911329 c 0
 441.530697915 575.355446573 441.36641102 581.375716745 441.016906806 587.414215733 c 1
 460.932678866 589.165453002 l 1
EndSplineSet
Validated: 524289
EndChar

StartChar: at
Encoding: 64 64 17
Width: 1000
Flags: H
LayerCount: 2
Fore
SplineSet
319.361499432 609.999962658 m 1
 357.795108822 607.258271376 388.713283734 590.313587316 407.579720923 579.950660836 c 1
 403.431983532 572.399412922 l 1
 507.720554443 552.770658352 632.048897938 499.209558616 644.11164813 356.102054053 c 1
 634.683820304 320.721568089 606.163068408 315.760510063 571.56321689 311.419368313 c 0
 550.69883968 308.801576182 546.384967841 307.470110285 539.428463016 304.850489397 c 1
 444.399919832 312.572702922 264.267671135 346.726690156 240.029165638 493.997430377 c 0
 239.956839678 496.036419103 239.916906767 497.537739337 239.916906767 499.746781341 c 0
 239.916906767 518.827082259 243.782366167 543.020717175 253.494183429 563.880209411 c 1
 214.425755482 561.584320594 191.261776175 543.629031096 176.223024566 531.971917469 c 1
 163.971917469 547.776975434 l 1
 180.365836035 560.484530986 210.813928167 584.086015932 260.470062722 584.086015932 c 0
 262.23107475 584.086015932 263.993629223 584.052505523 265.756648744 583.984800742 c 0
 278.027928144 599.365792184 295.321340051 609.93594266 318.972406381 609.999962658 c 2
 319.361499432 609.999962658 l 1
318.648268646 589.997569249 m 0
 309.590036156 589.904344228 301.630467167 587.353227287 294.73469921 582.986253172 c 1
 317.497745663 582.668583761 341.5734477 581.18366294 366.014611435 578.186066873 c 1
 350.238359811 584.500840275 333.81344796 588.82117442 318.648268646 589.997569249 c 0
285.325753873 563.051991098 m 0
 282.573574409 563.051991098 279.840183355 563.034728105 277.127361525 563.00079613 c 2
 276.392713231 562.991607149 l 1
 275.925040899 563.053880195 l 1
 265.103317607 545.325216641 259.916906767 521.467175051 259.916906767 499.746781341 c 0
 259.916906767 498.477673872 259.935693994 497.227422717 259.972669546 495.999278845 c 0
 280.037944127 377.035571252 424.168283714 334.671036601 536.671081368 325.145085977 c 1
 546.866172056 328.60178604 558.064989861 329.884420106 569.052686178 331.263014092 c 0
 596.851228401 334.750815638 617.630999425 338.319997366 623.872903374 357.988874019 c 1
 609.059128656 517.655109972 427.245901231 563.051991098 285.325753873 563.051991098 c 0
393.229253379 409.164318725 m 0
 365.267144656 409.164318725 331.621934264 426.814838355 327.042656168 461.007357437 c 0
 326.957771417 462.339787033 326.890047243 463.639667721 326.890047243 465.388425887 c 0
 326.890047243 519.15834553 393.563565728 519.654928804 427.723923143 519.909354586 c 0
 430.656878642 519.931199191 433.376096241 519.95176146 435.805758111 519.998147239 c 2
 436.103687926 519.998147239 l 2
 465.973827442 519.694061924 497.617674542 510.910818217 521.127981794 487.010899631 c 2
 524.747359636 483.331541688 l 1
 532.31012703 487.441660963 l 1
 533.152738222 467.623670802 533.152738222 467.623670802 533.239132004 459.547942824 c 0
 533.492873589 435.829245175 535.078717067 415.529378707 548.909810366 407.712014126 c 2
 557.626516757 402.785312358 l 1
 547.785312358 385.373483243 l 1
 539.090189634 390.287985874 l 2
 514.157315962 404.380101322 513.449801981 434.042082943 513.276100264 455.125310848 c 1
 477.427497914 439.241912512 440.000035141 431.898160632 406.708644152 410.496569649 c 1
 402.846567689 409.818886775 399.116221301 409.164318725 393.229253379 409.164318725 c 0
346.890047243 465.388425887 m 0
 346.890051111 447.956120974 367.533548954 429.164318725 393.229253379 429.164318725 c 0
 395.317897597 429.164318819 397.38823245 429.297525381 399.415007924 429.565468101 c 0
 432.04952789 449.922269539 473.135532584 459.126416036 506.044317499 473.818472746 c 1
 487.449383149 492.184179632 461.881566247 499.708822179 436.041484701 499.998973638 c 0
 393.34416695 499.204567688 392.87634014 499.102811449 379.650667211 496.226117095 c 0
 348.790423981 489.513756375 346.890047243 474.166426562 346.890047243 465.388425887 c 0
EndSplineSet
Validated: 524289
EndChar

StartChar: B
Encoding: 66 66 18
Width: 1070
Flags: HW
LayerCount: 2
Fore
SplineSet
321.875 504.53125 m 1
 311.21875 471.953125 306.1875 435.125 303.6875 397.03125 c 1
 308.359375 433.15625 314.234375 469.046875 321.875 504.53125 c 1
302.625 286.78125 m 1
 308.546875 280.84375 326.40625 293.078125 337.734375 281.75 c 0
 337.96875 281.53125 338.1875 281.296875 338.40625 281.0625 c 0
 393.75 282.375 472.515625 294.15625 512.609375 334.234375 c 0
 528.1875 349.828125 538.09375 369.5625 538.984375 395.140625 c 0
 535.390625 404.328125 530.328125 411.71875 524.15625 417.875 c 0
 496.328125 445.703125 437.5625 451.359375 432.46875 456.453125 c 0
 430.515625 458.40625 430.515625 461.578125 432.46875 463.53125 c 0
 444.796875 475.859375 457.78125 486.6875 469.21875 498.125 c 0
 486.453125 515.359375 499.8125 533.53125 503.03125 560.59375 c 0
 503.0625 560.78125 503.09375 560.96875 503.140625 561.171875 c 0
 504.46875 566.734375 505.21875 573.0625 505.21875 579.484375 c 0
 505.21875 594.75 500.953125 610.109375 492.421875 618.640625 c 0
 485 626.078125 473.953125 629.03125 457.65625 623.28125 c 0
 457.40625 623.1875 457.140625 623.125 456.875 623.078125 c 0
 416.21875 615.921875 386.609375 600.046875 364.75 578.171875 c 0
 356.671875 570.09375 349.625 561.140625 343.484375 551.46875 c 0
 320.4375 465.640625 309.625 376.59375 302.625 286.78125 c 1
332.46875 272.46875 m 0
 331.765625 273.15625 331.625 273.734375 330.671875 274.6875 c 0
 327.90625 277.4375 324.03125 277.109375 316.90625 275.984375 c 0
 311.828125 275.1875 306.75 274.40625 301.796875 275.96875 c 1
 301.125 267.015625 300.484375 258.0625 299.875 249.09375 c 0
 299.328125 233.28125 298.4375 217.984375 296.96875 203.484375 c 0
 296.84375 202.390625 296.375 201.3125 295.53125 200.46875 c 0
 293.578125 198.515625 290.40625 198.515625 288.453125 200.46875 c 0
 287.40625 201.515625 286.921875 202.921875 287 204.3125 c 0
 287.921875 219.390625 288.859375 234.484375 289.890625 249.5625 c 0
 290.53125 267.734375 290.75 286.734375 290.96875 306.109375 c 0
 291.953125 393.21875 292.625 489.28125 334.265625 555.6875 c 1
 341.375 582.015625 349.65625 608.0625 359.328125 633.765625 c 0
 359.5625 634.40625 359.953125 635.015625 360.46875 635.53125 c 0
 362.421875 637.484375 365.59375 637.484375 367.546875 635.53125 c 0
 368.96875 634.109375 369.359375 632.015625 368.6875 630.234375 c 0
 362.234375 613.078125 356.40625 595.765625 351.125 578.296875 c 1
 353.234375 580.671875 355.421875 582.984375 357.6875 585.25 c 0
 381.03125 608.59375 412.5625 625.359375 454.71875 632.84375 c 0
 460.09375 634.71875 482.71875 642.484375 499.5 625.71875 c 0
 515.8125 609.390625 517.6875 579.296875 512.9375 559.109375 c 0
 509.296875 529.203125 494.109375 508.875 476.296875 491.046875 c 0
 466.546875 481.3125 456.09375 472.34375 445.734375 462.5 c 1
 487.59375 451.21875 511.34375 444.828125 531.21875 424.953125 c 0
 544.046875 412.125 549.046875 397.65625 549 395.875 c 0
 548.265625 367.203125 537.046875 344.546875 519.671875 327.171875 c 0
 475.375 282.875 392.1875 272.03125 336.09375 271 c 0
 334.78125 270.984375 333.46875 271.46875 332.46875 272.46875 c 0
EndSplineSet
Validated: 524321
EndChar

StartChar: C
Encoding: 67 67 19
Width: 1070
Flags: HW
LayerCount: 2
Fore
SplineSet
484.96875 -174.625 m 0
 484.90625 -174.5625 481.859375 -171.421875 481.828125 -171.390625 c 0
 476.609375 -166.171875 469.59375 -159.15625 434.390625 -178.375 c 0
 433.546875 -178.84375 432.59375 -179.046875 431.65625 -178.984375 c 0
 394.5 -176.421875 364.46875 -160.40625 340.4375 -136.390625 c 0
 271.390625 -67.328125 250.546875 67.46875 241.03125 149.421875 c 0
 240.96875 149.96875 241 150.5 241.109375 151.03125 c 0
 280.03125 336.578125 361.484375 567.25 506 711.75 c 0
 542.421875 748.1875 582.875 779.140625 627.6875 802.4375 c 0
 629.453125 803.359375 631.625 803.15625 633.203125 801.84375 c 0
 650.359375 787.53125 680.46875 808.25 699.53125 789.546875 c 0
 701.484375 787.59375 701.484375 784.421875 699.53125 782.46875 c 0
 697.59375 780.53125 694.453125 780.515625 692.5 782.4375 c 0
 678.703125 795.96875 650.578125 778.0625 629.53125 792.109375 c 1
 586.84375 769.515625 548.109375 739.734375 513.0625 704.6875 c 0
 371.109375 562.71875 289.84375 334.203125 251.0625 149.78125 c 1
 260.609375 67.84375 282.1875 -64 347.5 -129.3125 c 0
 369.8125 -151.625 397.046875 -166.21875 430.90625 -168.90625 c 1
 466.65625 -149.6875 480.21875 -155.625 488.890625 -164.3125 c 0
 489.125 -164.53125 492.015625 -167.53125 492.046875 -167.5625 c 0
 494.875 -170.390625 495.84375 -171.234375 499.671875 -170.203125 c 0
 503.234375 -169.25 509.375 -165.875 518.828125 -158.125 c 0
 520.796875 -156.515625 523.703125 -156.625 525.53125 -158.453125 c 0
 527.484375 -160.40625 527.484375 -163.578125 525.53125 -165.53125 c 0
 525.34375 -165.71875 512.328125 -177.15625 502.28125 -179.859375 c 0
 494.125 -182.0625 488.5625 -178.21875 484.96875 -174.625 c 0
EndSplineSet
Validated: 524321
EndChar

StartChar: D
Encoding: 68 68 20
Width: 1070
Flags: H
LayerCount: 2
Fore
SplineSet
702.015625 363.84375 m 0
 716.890625 378.71875 725.09375 398.6875 722.078125 428.0625 c 1
 706.71875 483.6875 674.28125 534.25 632.796875 575.734375 c 0
 600.21875 608.3125 562.046875 635.296875 522.3125 654.765625 c 1
 509.65625 652.0625 499.1875 646.046875 490.34375 637.203125 c 0
 438.171875 585.015625 445.890625 436.75 451.484375 329.609375 c 0
 452.453125 310.9375 453.375 293.359375 453.921875 277.484375 c 1
 500.0625 295.609375 l 1
 556.453125 320.78125 658.859375 320.703125 702.015625 363.84375 c 0
445.0625 198.6875 m 0
 435.609375 189.234375 422.828125 201.09375 420.46875 203.46875 c 0
 419.5 204.4375 419.015625 205.703125 419 206.96875 c 0
 418.890625 222.328125 418.78125 237.6875 418.703125 253.046875 c 1
 417.203125 252.828125 415.625 253.296875 414.46875 254.453125 c 0
 412.515625 256.40625 412.515625 259.578125 414.46875 261.53125 c 0
 415.203125 262.265625 415.203125 262.265625 418.65625 263.625 c 1
 418.25 343.71875 418.296875 423.828125 419 503.9375 c 0
 417.046875 571.765625 393.265625 638.828125 398 708.171875 c 1
 398 729 l 2
 398 730.28125 398.484375 731.546875 399.453125 732.53125 c 0
 401.40625 734.484375 404.578125 734.484375 406.53125 732.53125 c 0
 407.5 731.546875 408 730.28125 408 729 c 0
 408 707.828125 408 707.828125 407.984375 707.65625 c 0
 403.3125 639.921875 427.03125 572.9375 429 504.140625 c 0
 429.0625 501.765625 427.921875 415.78125 428.625 267.546875 c 1
 444.03125 273.59375 l 1
 443.515625 290.234375 442.546875 309.015625 441.5 329.078125 c 0
 435.484375 444.375 428.375 589.359375 483.28125 644.265625 c 0
 493.78125 654.78125 506.671875 662.015625 522.0625 664.90625 c 0
 523.109375 665.109375 524.203125 664.96875 525.171875 664.5 c 0
 566.453125 644.5 606.046875 616.625 639.875 582.8125 c 0
 682.484375 540.1875 715.953125 488.09375 731.828125 430.328125 c 0
 731.890625 430.078125 731.953125 429.796875 731.96875 429.53125 c 0
 735.375 397.40625 726.15625 373.859375 709.078125 356.78125 c 0
 662.4375 310.125 560.171875 311.546875 504.046875 286.4375 c 0
 503.9375 286.390625 503.9375 286.390625 454.234375 266.859375 c 1
 455.4375 216.65625 451.140625 204.765625 445.0625 198.6875 c 0
437.984375 205.75 m 0
 444.328125 212.09375 444.6875 244.03125 444.3125 262.953125 c 1
 428.6875 256.8125 l 1
 428.765625 240.953125 428.859375 225.09375 428.984375 209.234375 c 1
 435.515625 203.5 437.234375 205.015625 437.984375 205.75 c 0
EndSplineSet
Validated: 524321
EndChar

StartChar: E
Encoding: 69 69 21
Width: 1070
Flags: H
LayerCount: 2
Fore
SplineSet
291.46875 648.53125 m 0
 293.421875 650.484375 296.59375 650.484375 298.546875 648.53125 c 0
 299.234375 647.84375 299.6875 647 299.875 646.109375 c 0
 314.984375 579.609375 314.984375 579.609375 315 579.078125 c 2
 316.953125 438.984375 l 1
 353 424.984375 l 1
 517.09375 422 l 2
 518.34375 421.96875 519.59375 421.484375 520.546875 420.53125 c 0
 522.5 418.578125 522.5 415.40625 520.546875 413.453125 c 0
 519.546875 412.453125 518.21875 411.96875 516.90625 412 c 0
 351.015625 415.015625 351.015625 415.015625 350.1875 415.34375 c 2
 317.109375 428.203125 l 1
 321 150.078125 l 2
 321.015625 148.78125 320.53125 147.46875 319.53125 146.46875 c 0
 317.578125 144.515625 314.421875 144.515625 312.46875 146.46875 c 0
 311.5 147.421875 311.015625 148.6875 311 149.9375 c 2
 307.0625 432.109375 l 1
 295.21875 436.71875 295.21875 436.71875 294.46875 437.453125 c 0
 292.515625 439.40625 292.515625 442.578125 294.46875 444.53125 c 0
 296.765625 446.828125 297.265625 446.640625 306.90625 442.890625 c 1
 305.015625 578.40625 l 1
 290.125 643.890625 l 2
 289.765625 645.515625 290.21875 647.28125 291.46875 648.53125 c 0
330.46875 611.46875 m 0
 328.515625 613.421875 328.515625 616.59375 330.46875 618.546875 c 0
 331.578125 619.65625 331.578125 619.65625 337.09375 620.609375 c 0
 364.203125 625.296875 393.03125 630.3125 423.03125 629.046875 c 1
 432.4375 633 440.0625 628.984375 445.84375 625.9375 c 0
 445.921875 625.90625 454.0625 622 454.53125 621.53125 c 0
 456.484375 619.578125 456.484375 616.421875 454.53125 614.46875 c 0
 448.03125 607.96875 437.78125 625.15625 426.1875 619.5 c 0
 425.421875 619.125 424.59375 618.96875 423.75 619 c 0
 394.734375 620.390625 367.96875 615.78125 334.84375 610.078125 c 0
 333.3125 609.8125 331.65625 610.28125 330.46875 611.46875 c 0
326.734375 251.890625 m 0
 324.765625 253.859375 320.78125 257.84375 324.46875 261.53125 c 0
 326.40625 263.484375 329.578125 263.484375 331.53125 261.53125 c 0
 332.015625 261.046875 332.453125 260.3125 333.8125 258.96875 c 0
 346.46875 246.296875 376.65625 246.5625 404.40625 247.578125 c 0
 404.546875 247.578125 416.71875 248.015625 418.125 247.984375 c 0
 490.609375 246.203125 563.578125 263.046875 638.609375 257.125 c 1
 649.921875 264.921875 658.90625 268.671875 664.59375 262.96875 c 0
 670.078125 257.484375 665.84375 249.9375 662.640625 246.734375 c 0
 657.734375 241.8125 651.171875 242.765625 648.46875 245.46875 c 0
 647 246.9375 646.640625 249.109375 647.390625 250.9375 c 1
 640.96875 246.890625 640.96875 246.890625 639.578125 247.015625 c 0
 564.9375 253.265625 492.140625 236.1875 417.984375 237.984375 c 0
 413.8125 237.90625 409.375 237.75 404.765625 237.578125 c 0
 378 236.609375 344.09375 234.53125 326.734375 251.890625 c 0
655.578125 253.796875 m 0
 656.015625 254.234375 656.375 254.84375 656.625 255.390625 c 1
 655.796875 255.203125 654.546875 254.78125 652.765625 253.9375 c 1
 653.453125 253.84375 654.109375 253.59375 654.734375 253.1875 c 0
 654.859375 253.25 655.171875 253.390625 655.578125 253.796875 c 0
EndSplineSet
Validated: 524321
EndChar

StartChar: F
Encoding: 70 70 22
Width: 1070
Flags: H
LayerCount: 2
Fore
SplineSet
286.53125 462.53125 m 0
 289.0625 460.015625 286.734375 458.0625 290.4375 454.359375 c 0
 291.625 453.15625 299.296875 446.296875 315.171875 448.9375 c 2
 351.03125 454.90625 l 1
 404.90625 466.875 l 2
 406.53125 467.234375 408.28125 466.78125 409.53125 465.53125 c 0
 411.484375 463.578125 411.484375 460.40625 409.53125 458.453125 c 0
 408.84375 457.765625 407.984375 457.3125 407.09375 457.109375 c 0
 352.953125 445.09375 352.953125 445.09375 352.828125 445.0625 c 2
 317.046875 439.109375 l 2
 306.8125 436.46875 291.734375 438.921875 283.359375 447.296875 c 1
 317.9375 231.8125 l 2
 318.1875 230.265625 317.71875 228.640625 316.546875 227.46875 c 0
 314.59375 225.515625 311.421875 225.515625 309.46875 227.46875 c 0
 308.703125 228.234375 308.234375 229.203125 308.0625 230.203125 c 2
 252.484375 574.84375 l 1
 229.828125 571.0625 l 2
 228.296875 570.8125 226.65625 571.265625 225.46875 572.453125 c 0
 223.515625 574.40625 223.515625 577.578125 225.46875 579.53125 c 0
 226.59375 580.65625 226.59375 580.65625 250.890625 584.71875 c 1
 248.0625 602.1875 l 2
 247.8125 603.71875 248.28125 605.34375 249.46875 606.53125 c 0
 251.421875 608.484375 254.578125 608.484375 256.53125 606.53125 c 0
 257.671875 605.390625 257.671875 605.390625 260.75 586.359375 c 1
 426.171875 613.921875 l 2
 427.71875 614.1875 429.359375 613.71875 430.546875 612.53125 c 0
 432.484375 610.578125 432.484375 607.40625 430.546875 605.453125 c 0
 429.78125 604.6875 428.828125 604.234375 427.828125 604.0625 c 2
 262.34375 576.5 l 1
 280.578125 463.375 l 1
 282.484375 464.421875 284.921875 464.140625 286.53125 462.53125 c 0
EndSplineSet
Validated: 524321
EndChar

StartChar: G
Encoding: 71 71 23
Width: 1070
Flags: H
LayerCount: 2
Fore
SplineSet
460.53125 606.53125 m 0
 462.484375 604.578125 462.484375 601.40625 460.53125 599.46875 c 0
 459.0625 598 458.8125 598 452.53125 598 c 1
 428.8125 582.03125 406.203125 564.125 386.203125 544.109375 c 0
 346.390625 504.296875 316.90625 456.265625 308.953125 398.3125 c 0
 308.9375 398.171875 308.90625 398.046875 308.875 397.90625 c 0
 295.28125 336.65625 317.046875 282.15625 357.078125 242.140625 c 0
 411.5 187.71875 499.40625 160.796875 575.65625 181.8125 c 0
 576 181.90625 576.359375 181.96875 576.703125 181.984375 c 0
 619.296875 184.4375 658.203125 209.234375 689.78125 240.796875 c 0
 703.234375 254.265625 715.328125 268.90625 725.75 283.40625 c 1
 691.1875 301.578125 628.5 299.953125 585.203125 313.015625 c 1
 429.90625 316 l 2
 428.65625 316.015625 427.40625 316.5 426.46875 317.453125 c 0
 424.515625 319.40625 424.515625 322.578125 426.46875 324.53125 c 0
 427.46875 325.53125 428.78125 326.015625 430.09375 325.984375 c 0
 586.796875 322.984375 586.796875 322.984375 587.46875 322.78125 c 0
 632.828125 308.875 699.15625 312.3125 735.65625 289.21875 c 0
 735.96875 289.03125 736.265625 288.796875 736.53125 288.53125 c 0
 738.265625 286.796875 738.453125 284.09375 737.09375 282.140625 c 0
 725.703125 265.78125 712.1875 249.0625 696.84375 233.734375 c 1
 697.5625 234.09375 697.9375 234.234375 698.03125 234.140625 c 0
 698.109375 234.0625 697.90625 233.78125 697.4375 233.3125 c 0
 690.125 225.984375 618.53125 174.546875 577.828125 172.03125 c 1
 497.78125 150.1875 406.75 178.3125 350 235.0625 c 1
 350.65625 232.96875 350.78125 231.84375 350.5 231.546875 c 0
 350.296875 231.34375 349.890625 231.5625 349.296875 232.15625 c 0
 340.0625 241.390625 289 343.234375 299.078125 399.890625 c 0
 309.78125 460 338.265625 510.328125 379.125 551.1875 c 0
 400.0625 572.109375 423.625 590.6875 448.21875 607.15625 c 0
 449.609375 608.09375 457.984375 609.078125 460.53125 606.53125 c 0
EndSplineSet
Validated: 524321
EndChar

StartChar: H
Encoding: 72 72 24
Width: 1020
Flags: HW
LayerCount: 2
Fore
SplineSet
307.266601562 587.94140625 m 1
 307.266601562 582.942382812 317.266601562 583.05859375 317.266601562 588.05859375 c 1
 317.266601562 583.212890625 319.147460938 431.297851562 319.147460938 431.297851562 c 1
 319.147460938 431.297851562 547.662109375 437.719726562 547.662109375 441.016601562 c 1
 547.662109375 436.021484375 532.416015625 510.086914062 532.416015625 514.990234375 c 1
 532.416015625 510.09375 542.211914062 512.114257812 542.211914062 517.01171875 c 1
 542.211914062 512.108398438 557.734375 436.700195312 557.734375 441.694335938 c 1
 557.734375 436.706054688 596.977539062 439.34765625 596.977539062 444.3359375 c 1
 596.977539062 441.841796875 597.649414062 439.346679688 597.649414062 439.346679688 c 1
 559.774414062 436.797851562 l 1
 582.443359375 326.940429688 l 1
 572.073242188 282.002929688 l 1
 562.327148438 284.251953125 l 1
 572.206054688 327.059570312 l 1
 549.702148438 436.120117188 l 1
 319.263671875 421.282226562 l 1
 320.321289062 330.309570312 l 1
 320.321289062 330.309570312 338.846679688 173.373046875 338.846679688 168.551757812 c 1
 338.846679688 173.521484375 328.907226562 172.416992188 328.907226562 167.447265625 c 1
 328.907226562 172.26953125 310.331054688 329.690429688 310.331054688 329.690429688 c 1
 309.272460938 420.610351562 l 1
 265.671875 417.67578125 l 1
 265 427.653320312 l 1
 309.15625 430.625 l 1
 309.15625 430.625 307.266601562 583.096679688 307.266601562 587.94140625 c 1
EndSplineSet
Validated: 524325
EndChar

StartChar: I
Encoding: 73 73 25
Width: 1020
Flags: HW
LayerCount: 2
Fore
SplineSet
223 265.27734375 m 1
 223.540039062 275.262695312 l 1
 464.562653078 262.72265625 l 1
 463.979241806 252.737304688 l 1
 223 265.27734375 l 1
277.1015625 653.168945312 m 1
 277.1015625 648.171875 277.428710938 658.166992188 277.428710938 663.1640625 c 1
 277.428710938 658.166992188 475.362619054 651.999023438 475.362619054 656.99609375 c 1
 475.362619054 652.001953125 597.512695312 645.75390625 597.512695312 650.744140625 c 1
 597.512695312 645.750976562 597 635.763671875 597 640.756835938 c 1
 597 635.763671875 592.002929688 636.01953125 592.002929688 641.013671875 c 1
 592.002929688 641.013671875 474.902641994 647.005859375 474.801362641 647.009765625 c 2
 474.801362641 642.01171875 277.1015625 648.171875 277.1015625 653.168945312 c 1
443.752911076 566.698242188 m 1
 443.752911076 566.141601562 443.752911076 604.469726562 443.752911076 609 c 1
 454.556042031 609 l 1
 454.556042031 604.463867188 454.556042031 565.517578125 454.556042031 566.07421875 c 1
 454.556042031 565.461914062 414.961090088 270.423828125 414.961090088 270.423828125 c 1
 404.239193613 271.651367188 l 1
 404.239193613 271.651367188 443.752911076 566.084960938 443.752911076 566.698242188 c 1
EndSplineSet
Validated: 524325
EndChar

StartChar: J
Encoding: 74 74 26
Width: 1020
Flags: HW
LayerCount: 2
Fore
SplineSet
553.547203854 550.557617188 m 0
 553.547203854 550.4296875 553.444414184 539.926757812 552.967554886 537.795898438 c 0
 546.970784293 513.493164062 543.959152906 485.875 540.879701529 457.462890625 c 0
 531.127399044 367.020507812 521.011623806 294.72265625 449.317382812 255.421875 c 1
 415.189453125 269.8984375 400.752929688 293.018554688 379.317382812 332.879882812 c 0
 366.9453125 355.88671875 363.859375 360.75390625 355 373.1640625 c 1
 363.137695312 378.973632812 l 1
 372.052734375 366.487304688 375.15234375 361.741210938 388.130859375 337.606445312 c 0
 403.89453125 308.29296875 419.299804688 280.125976562 448.641601562 266.614257812 c 1
 512.79904701 303.615234375 521.805329615 381.713867188 530.082547338 458.459960938 c 0
 533.147163092 486.747070312 536.146078232 514.583984375 542.2954438 539.65625 c 0
 542.568843131 543.311523438 542.69600561 546.942382812 542.69600561 550.557617188 c 0
 542.69600561 578.939453125 533.060268732 600.877929688 525.495160893 630.000976562 c 1
 525.495160893 625.030273438 396.538085938 611.549804688 396.538085938 616.521484375 c 1
 396.538085938 611.549804688 395.465820312 621.493164062 395.465820312 626.463867188 c 1
 395.465820312 621.493164062 523.233788134 634.864257812 523.233788134 639.834960938 c 1
 521.532989972 647.760742188 520.025054903 656.22265625 518.877413526 665.4296875 c 1
 518.877413526 660.461914062 529.65761272 661.604492188 529.65761272 666.571289062 c 1
 530.806313784 657.361328125 532.339681348 648.881835938 534.075449192 640.912109375 c 1
 534.075449192 635.94140625 721.409179688 655.565429688 721.409179688 660.536132812 c 1
 721.409179688 655.565429688 722.481445312 645.622070312 722.481445312 650.59375 c 1
 722.481445312 645.622070312 536.369672259 626.110351562 536.369672259 631.08203125 c 1
 543.919944475 602.372070312 553.547203854 580.029296875 553.547203854 550.557617188 c 0
EndSplineSet
Validated: 524325
EndChar

StartChar: K
Encoding: 75 75 27
Width: 1010
Flags: HW
LayerCount: 2
Fore
SplineSet
577.905273438 536.323242188 m 0
 606.037109375 556.624023438 612.153320312 561.653320312 625.317382812 573.295898438 c 1
 625.317382812 569.537109375 631.91015625 562.020507812 631.91015625 565.779296875 c 1
 619.778320312 555.05078125 614.271484375 550.232421875 583.715820312 528.185546875 c 0
 547.321289062 502.310546875 511.190429688 476.317382812 495.658203125 438.620117188 c 1
 536.200195312 398.022460938 627.776367188 398.637695312 644.724609375 328.137695312 c 2
 645.860351562 323.264648438 l 1
 636.120117188 320.994140625 l 1
 634.985351562 325.862304688 l 2
 619.138671875 393.856445312 527.889648438 390.825195312 486.122070312 437.674804688 c 2
 484.110351562 439.931640625 l 1
 500.090820312 480.702148438 528.575195312 502.44921875 577.905273438 536.323242188 c 0
470.888671875 681.9453125 m 1
 470.888671875 677.03515625 480.709960938 675.146484375 480.709960938 680.056640625 c 1
 480.709960938 675.20703125 403.821289062 285.14453125 403.821289062 285.14453125 c 1
 394 287.033203125 l 1
 394 287.033203125 470.888671875 677.095703125 470.888671875 681.9453125 c 1
EndSplineSet
Validated: 524293
EndChar

StartChar: L
Encoding: 76 76 28
Width: 1020
Flags: HW
LayerCount: 2
Fore
SplineSet
605.240234375 187.333007812 m 0
 604.256835938 187.333007812 504.597099337 185.58203125 501.491770237 185.58203125 c 0
 410.873046875 185.58203125 326.270507812 197.189453125 326.260742188 285.799804688 c 0
 326.260742188 286.790039062 327.931640625 312.741210938 330.985351562 327.401367188 c 0
 330.18359375 344.182617188 329.817382812 360.9375 329.817382812 377.666015625 c 0
 329.817382812 469.208984375 340.836914062 559.966796875 351.791015625 650.2890625 c 0
 355.807617188 681.750976562 358.139648438 700.014648438 361.590820312 729.55078125 c 1
 361.590820312 724.581054688 371.530273438 723.48046875 371.530273438 728.450195312 c 1
 368.073242188 698.854492188 365.741210938 680.592773438 361.717773438 649.077148438 c 0
 350.763671875 558.75390625 339.817382812 468.393554688 339.817382812 377.666015625 c 0
 339.817382812 360.05078125 340.211914062 343.61328125 341.036132812 326.595703125 c 1
 339.446289062 319.052734375 336.270507812 303.09375 336.270507812 285.822265625 c 0
 336.270507812 207.021484375 409.623046875 195.58203125 501.491770237 195.58203125 c 0
 504.174757558 195.58203125 604.256835938 197.333007812 605.240234375 197.333007812 c 0
 628.213867188 197.333007812 656.123046875 197.333007812 688.161132812 188.309570312 c 1
 688.161132812 193.129882812 685.5 183.48828125 685.5 178.66796875 c 1
 657.807617188 186.474609375 634.06640625 187.333007812 605.240234375 187.333007812 c 0
EndSplineSet
Validated: 524293
EndChar

StartChar: M
Encoding: 77 77 29
Width: 1010
Flags: HW
LayerCount: 2
Fore
SplineSet
434.1171875 533.577148438 m 0
 434.1171875 519.7109375 433.165039062 503.352539062 433.165039062 486.692382812 c 0
 433.165039062 451.369140625 437.797851562 417.0859375 461.224609375 401.55078125 c 1
 528.35546875 426.897460938 564.452148438 506.28515625 622.532226562 552.001953125 c 2
 622.532226562 548.111328125 629.181640625 553.481445312 629.181640625 557.37109375 c 1
 633.90625 530.173828125 636.114257812 517.243164062 644.283203125 455.1328125 c 0
 651.995117188 395.032226562 654.623046875 378.62890625 657.654296875 360.508789062 c 1
 660.8515625 274.188476562 l 1
 650.858398438 273.818359375 l 1
 647.685546875 359.491210938 l 1
 636.95703125 422.80859375 632.573242188 475.502929688 622.166015625 538.750976562 c 1
 565.147460938 489.864257812 534.1953125 416.833007812 460.161132812 390.491210938 c 1
 436.185546875 404.678710938 423.165039062 427.734375 423.165039062 486.692382812 c 0
 423.165039062 491.109375 423.239257812 495.487304688 423.344726562 499.779296875 c 1
 421.971679688 491.26171875 420.622070312 482.72265625 419.271484375 474.173828125 c 0
 402.626953125 369.096679688 390.657226562 304.499023438 355.01953125 230.330078125 c 1
 346 234.650390625 l 1
 380.567382812 306.588867188 392.546875 369.390625 409.39453125 475.743164062 c 0
 417.077148438 524.33203125 417.788085938 528.825195312 427.680664062 581.013671875 c 1
 434.1171875 547.518554688 434.1171875 547.518554688 434.1171875 533.577148438 c 0
EndSplineSet
Validated: 524289
EndChar

StartChar: N
Encoding: 78 78 30
Width: 1010
Flags: HW
LayerCount: 2
Fore
SplineSet
580.47265625 543.200195312 m 0
 580.47265625 543.688476562 580.47265625 543.688476562 580.407226562 545.948242188 c 1
 580.407226562 540.94921875 590.40625 541.051757812 590.40625 546.051757812 c 1
 590.47265625 543.71875 590.47265625 543.71875 590.47265625 543.200195312 c 0
 590.47265625 423.301757812 512.704101562 309.1484375 460.8046875 239.436523438 c 1
 456.953125 241.672851562 l 2
 387.869140625 281.681640625 379.53515625 374.444335938 372.09765625 451.056640625 c 0
 371.374023438 458.149414062 370.6640625 465.116210938 369.916992188 471.8984375 c 1
 349.314453125 410.006835938 347.75390625 355.956054688 321.340820312 287.541992188 c 1
 312 291.1171875 l 1
 340.723632812 365.466796875 340.834960938 428.81640625 367.8203125 494.997070312 c 2
 367.8203125 493.124023438 374.955078125 510.783203125 374.955078125 512.65625 c 1
 379.141601562 481.258789062 379.189453125 480.900390625 382.05078125 452.030273438 c 0
 389.438476562 375.939453125 398.379882812 290.501953125 458.158203125 252.638671875 c 1
 519.751953125 335.981445312 580.47265625 439.366210938 580.47265625 543.200195312 c 0
EndSplineSet
Validated: 524293
EndChar

StartChar: O
Encoding: 79 79 31
Width: 1020
Flags: HW
LayerCount: 2
Fore
SplineSet
373.9453125 403.501953125 m 0
 373.9453125 402.043945312 373.962890625 400.584960938 373.998046875 399.123046875 c 2
 374.012695312 398.533203125 l 1
 372.494140625 391.350585938 371.956054688 385.46484375 371.956054688 379.497070312 c 0
 371.956054688 326.3828125 419.766601562 278.625976562 474.336914062 274.989257812 c 0
 475.11328125 274.950195312 486.019537763 273.288085938 501.857292436 273.288085938 c 0
 634.658203125 273.288085938 743.26171875 388.120117188 743.26171875 511.41015625 c 0
 743.26171875 514.760742188 743.177734375 518.099609375 743.006835938 521.461914062 c 0
 737.455078125 621.87109375 646.803710938 660.713867188 549.511722232 660.713867188 c 0
 533.595542127 660.713867188 492.668968765 660.713867188 440.959960938 642.90234375 c 1
 440.959960938 638.190429688 437.614257812 647.616210938 437.614257812 652.328125 c 1
 452.3984375 657.494140625 490.820219903 670.713867188 549.511722232 670.713867188 c 0
 648.889648438 670.713867188 747.032226562 630.014648438 752.993164062 522.00390625 c 0
 753.171875 518.473632812 753.26171875 514.928710938 753.26171875 511.41015625 c 0
 753.26171875 382.704101562 640.638671875 263.288085938 501.857292436 263.288085938 c 0
 492.27997862 263.288085938 482.61901101 263.854492188 473.506835938 265.021484375 c 0
 414.059570312 269.067382812 361.956054688 320.575195312 361.956054688 379.497070312 c 0
 361.956054688 386.092773438 362.61328125 392.768554688 363.98828125 399.462890625 c 0
 363.959960938 400.810546875 363.9453125 402.157226562 363.9453125 403.501953125 c 0
 363.9453125 442.158203125 377.72265625 533.448242188 493.664448922 621.060546875 c 1
 493.664448922 617.107421875 500.220815078 609.203125 500.220815078 613.15625 c 1
 500.220815078 609.203125 495.984796051 606.138671875 495.984796051 610.091796875 c 2
 432.439453125 562.500976562 373.9453125 485.790039062 373.9453125 403.501953125 c 0
EndSplineSet
Validated: 524289
EndChar

StartChar: P
Encoding: 80 80 32
Width: 1010
Flags: HW
LayerCount: 2
Fore
SplineSet
397.53125 552.920898438 m 0
 397.53125 575.514648438 412.243164062 604.282226562 412.243164062 624.603515625 c 0
 412.243164062 629.912109375 411.045898438 631.534179688 407.290039062 636.623046875 c 1
 407.290039062 632.224609375 416.088867188 636.978515625 416.088867188 641.376953125 c 1
 420.141601562 635.434570312 422.243164062 632.352539062 422.243164062 624.603515625 c 0
 422.243164062 602.080078125 407.53125 573.3203125 407.53125 552.920898438 c 0
 407.53125 536.119140625 413.926757812 531.2890625 420.47265625 527.408203125 c 1
 444.389648438 625.842773438 481.942382812 682.559570312 525.631835938 722.696289062 c 0
 527.6328125 723.075195312 528.228515625 723.1875 529.458984375 723.1875 c 0
 535.19140625 723.1875 537.239257812 720.821289062 537.239257812 719.405273438 c 0
 537.239257812 707.036132812 525.0703125 682.420898438 522.6171875 668.231445312 c 1
 525.165039062 669.537109375 525.165039062 669.537109375 536.404296875 677.747070312 c 1
 536.404296875 675.256835938 536.063476562 671.552734375 536.063476562 671.65625 c 2
 533.536132812 595.708007812 486.623046875 528.232421875 423.383789062 493.59765625 c 0
 422.82421875 491.935546875 422.278320312 490.270507812 421.744140625 488.600585938 c 0
 421.747070312 487.836914062 422.444335938 423.491210938 422.444335938 412.260742188 c 0
 422.444335938 286.125976562 404.500976562 243.961914062 381.510742188 194.625 c 1
 381.510742188 196.606445312 376 231.104492188 376 231.104492188 c 1
 391.405273438 314.1171875 395.215820312 402.125 411.73828125 490.037109375 c 0
 411.73828125 489.251953125 411.733398438 488.466796875 411.733398438 487.682617188 c 1
 405.88671875 484.94921875 401.663085938 482.997070312 386.92578125 477.924804688 c 1
 386.92578125 473.1875 383.729492188 482.665039062 383.729492188 487.40234375 c 1
 392.657226562 490.479492188 400.318359375 493.120117188 411.733398438 498.794921875 c 1
 411.758789062 506.158203125 411.837890625 513.497070312 411.99609375 520.8046875 c 1
 401.349609375 528.2734375 397.53125 540.266601562 397.53125 552.920898438 c 0
520.303710938 656.8125 m 0
 514.487304688 656.8125 512.38671875 665.453125 512.38671875 670.7578125 c 0
 512.38671875 680.47265625 521.845703125 696.362304688 526.258789062 710.827148438 c 1
 470.71484375 656.821289062 442.805664062 584.696289062 426.068359375 506.682617188 c 1
 480.006835938 538.408203125 519.9453125 594.895507812 525.505859375 658.274414062 c 1
 523.751953125 657.326171875 522.05859375 656.8125 520.303710938 656.8125 c 0
412.444335938 412.260742188 m 0
 412.444335938 418.5390625 412.41015625 424.822265625 412.35546875 431.10546875 c 1
 408.80859375 405.420898438 405.838867188 379.553710938 402.908203125 353.905273438 c 0
 398.07421875 311.611328125 393.323242188 270 386.131835938 230.896484375 c 1
 386.477539062 228.482421875 l 1
 408.862304688 286.103515625 412.444335938 348.873046875 412.444335938 412.260742188 c 0
EndSplineSet
Validated: 524293
EndChar

StartChar: Q
Encoding: 81 81 33
Width: 1020
Flags: HW
LayerCount: 2
Fore
SplineSet
358.795898438 394.436523438 m 0
 358.795898438 386.8515625 359.176757812 379.286132812 359.9453125 371.7890625 c 0
 374.82421875 302.932617188 444.548828125 255.759765625 515.639506735 255.759765625 c 0
 518.541456701 255.759765625 521.442400792 255.836914062 524.338315508 255.9921875 c 2
 524.460026407 255.999023438 l 1
 524.582743182 255.999023438 l 2
 598.213814064 256.603515625 692.350656875 274.9765625 755.433114482 320.206054688 c 1
 708.912392125 352.877929688 668.394732992 388.618164062 636.898768573 435.514648438 c 1
 636.898768573 435.514648438 636.898768573 452.944335938 636.898768573 457 c 1
 647.198930673 457 l 1
 647.198930673 453.063476562 647.198930673 438.4921875 647.198930673 438.4921875 c 1
 677.571332488 393.733398438 718.691510868 358.268554688 763.953883343 326.633789062 c 1
 797.446510044 353.225585938 820.309570312 388.284179688 824.014648438 433.383789062 c 0
 824.143554688 435.077148438 824.206054688 436.75 824.206054688 438.403320312 c 0
 824.206054688 479.818359375 777.855078676 510.747070312 735.700860585 519.233398438 c 2
 735.700860585 514.349609375 730.67349631 515.422851562 730.67349631 520.306640625 c 1
 730.67349631 515.422851562 732.885415886 525.19140625 732.885415886 530.075195312 c 1
 732.885415886 525.19140625 737.919821287 524.1171875 737.919821287 529 c 2
 782.254776823 520.01953125 834.206054688 486.989257812 834.206054688 438.403320312 c 0
 834.206054688 436.4921875 834.133789062 434.5625 833.985351562 432.616210938 c 0
 830.100585938 385.337890625 807.225628787 348.486328125 772.878008162 320.479492188 c 1
 800.246866615 301.850585938 828.446289062 284.462890625 856.22265625 267.1484375 c 0
 886.6953125 249.758789062 904.700195312 239.484375 931.94921875 222.434570312 c 1
 931.94921875 226.5625 926.306640625 218.307617188 926.306640625 214.1796875 c 1
 899.241210938 231.106445312 881.241210938 241.374023438 850.943359375 258.65625 c 0
 821.05859375 277.284179688 791.918219918 295.188476562 764.462856197 313.952148438 c 1
 698.506613129 265.252929688 598.210796438 245.759765625 515.639506735 245.759765625 c 0
 441.359375 245.759765625 366.240234375 294.545898438 350.0546875 370.211914062 c 0
 349.182617188 378.607421875 348.795898438 386.4765625 348.795898438 394.436523438 c 0
 348.795898438 474.653320312 391.548828125 557.385742188 469.085590497 589.001953125 c 2
 469.085590497 584.387695312 473.835333215 586.313476562 473.835333215 590.927734375 c 1
 473.835333215 586.313476562 477.803510898 577.083984375 477.803510898 581.697265625 c 1
 477.803510898 577.083984375 473.046727054 575.155273438 473.046727054 579.76953125 c 2
 400.107421875 550.109375 358.795898438 471.551757812 358.795898438 394.436523438 c 0
EndSplineSet
Validated: 524293
EndChar

StartChar: R
Encoding: 82 82 34
Width: 1010
Flags: HW
LayerCount: 2
Fore
SplineSet
374.905273438 445.348632812 m 1
 354.451171875 398.364257812 347.467773438 362.819335938 328.295898438 265.236328125 c 0
 328.877929688 263.619140625 328.915039062 262.126953125 328.915039062 260.50390625 c 0
 328.915039062 260.267578125 328.9140625 260.028320312 328.9140625 259.78515625 c 0
 328.9140625 252.23828125 323.390625 216.154296875 317.5390625 206.875 c 0
 317.2578125 206.75 316.248046875 205.997070312 312.336914062 205.997070312 c 0
 306.697265625 205.997070312 306.443359375 209.75 306.311523438 211.709960938 c 0
 309.8984375 225.857421875 312.962890625 239.694335938 316.37109375 256.397460938 c 1
 315.708984375 399.541015625 313.315429688 519.916992188 304 651.651367188 c 1
 304 646.6640625 313.975585938 647.360351562 313.975585938 652.348632812 c 1
 321.37109375 547.959960938 324.932617188 444.26953125 326.06640625 306.956054688 c 1
 335.93359375 357.508789062 347.163085938 409.57421875 368.422851562 455.694335938 c 1
 368.422851562 453.508789062 365.340820312 456.844726562 365.340820312 459.74609375 c 1
 365.340820312 456.221679688 368.991210938 452.547851562 368.991210938 456.071289062 c 1
 397.045898438 516.532226562 432.840820312 545.231445312 459.662109375 561.880859375 c 1
 462.9453125 562.194335938 463.856445312 562.208007812 465.30078125 562.208007812 c 0
 496.40234375 562.208007812 512.225585938 531.057617188 518.370117188 499.373046875 c 1
 517.98828125 494.44921875 517.75390625 490.802734375 517.385742188 485.060546875 c 0
 513.81640625 427.298828125 508.708007812 375.728515625 463.631835938 354.614257812 c 1
 457.446289062 356.727539062 446.720703125 360.392578125 433.583984375 372.55078125 c 1
 447.341796875 351.228515625 459.037109375 335.287109375 471.359375 320.990234375 c 1
 471.359375 320.990234375 584.2421875 152.805664062 584.2421875 148.694335938 c 1
 584.2421875 152.90625 575.818359375 147.518554688 575.818359375 143.306640625 c 1
 575.818359375 147.41796875 463.313476562 315.010742188 463.313476562 315.010742188 c 1
 440.12109375 341.978515625 421.6953125 372.182617188 403.505859375 401.959960938 c 0
 393.940429688 416.71484375 393.940429688 416.71484375 374.905273438 445.348632812 c 1
465.30078125 552.208007812 m 2
 465.30078125 552.208007812 463.772460938 552.184570312 462.983398438 552.137695312 c 0
 422.006835938 526.391601562 395.354492188 490.04296875 376.615234375 448.3984375 c 1
 404.431640625 422.584960938 404.431640625 422.584960938 417.493164062 406.747070312 c 0
 430.83984375 389.192382812 443.491210938 372.841796875 463.034179688 365.423828125 c 1
 500.287109375 384.580078125 504.649414062 441.099609375 507.404296875 485.68359375 c 0
 507.69921875 490.241210938 507.982421875 494.635742188 508.301757812 498.806640625 c 0
 503.6484375 521.961914062 490.630859375 552.208007812 465.30078125 552.208007812 c 2
EndSplineSet
Validated: 524293
EndChar

StartChar: S
Encoding: 83 83 35
Width: 1010
Flags: HW
LayerCount: 2
Fore
SplineSet
514.890625 251.038085938 m 0
 505.114257812 251.038085938 497.322265625 245.3359375 486.807617188 245.3359375 c 0
 468.963867188 245.3359375 455.256835938 263.427734375 445 276.965820312 c 1
 452.969726562 283.00390625 l 1
 462.182617188 270.84375 473.931640625 255.3359375 486.807617188 255.3359375 c 0
 494.973632812 255.3359375 503.204101562 261.038085938 514.890625 261.038085938 c 1
 514.549804688 261.220703125 514.388671875 261.34765625 514.388671875 261.419921875 c 0
 514.388671875 261.467773438 514.458984375 261.4921875 514.595703125 261.4921875 c 0
 517.061523438 261.4921875 540.991210938 253.696289062 556.02734375 239.028320312 c 1
 595.791015625 239.579101562 638.461914062 240.803710938 675.3359375 256.961914062 c 1
 608.668945312 344.5 492.520507812 389.8984375 455.926757812 501.897460938 c 1
 465.594726562 600.0390625 577.885742188 630.364257812 651.126953125 630.364257812 c 0
 658.15625 630.364257812 665.602539062 630.291992188 667.030273438 630.002929688 c 0
 690.484375 620.1953125 728.508789062 631.9296875 749.952148438 605.99609375 c 2
 749.952148438 602.244140625 753.01953125 596.358398438 753.01953125 601.1796875 c 1
 753.01953125 597.233398438 745.12890625 591.092773438 745.12890625 595.038085938 c 1
 734.201171875 608.357421875 728.375 612.143554688 696.6796875 614.240234375 c 0
 685.685546875 615.005859375 674.2109375 615.6953125 663.845703125 620.05859375 c 0
 659.677734375 620.260742188 655.431640625 620.364257812 651.126953125 620.364257812 c 0
 571.259765625 620.364257812 475 585.715820312 466.084960938 502.985351562 c 1
 501.876953125 395.37890625 621.278320312 348.475585938 687.060546875 257.921875 c 2
 690.53515625 253.108398438 l 1
 649.869140625 233.28125 620.353515625 229.889648438 551.961914062 228.971679688 c 1
 542.393554688 238.541015625 529 251.038085938 514.890625 251.038085938 c 0
EndSplineSet
Validated: 524293
EndChar

StartChar: T
Encoding: 84 84 36
Width: 1020
Flags: HW
LayerCount: 2
Fore
SplineSet
503.653250388 604.244140625 m 1
 503.653250388 599.401367188 514.060258337 596.9140625 514.060258337 601.756835938 c 1
 512.764627811 597.001953125 511.468997286 592.247070312 510.17336676 587.4921875 c 1
 510.17336676 582.530273438 736.640625 555.424804688 736.640625 560.38671875 c 1
 736.640625 555.424804688 735.413085938 545.499023438 735.413085938 550.4609375 c 1
 735.413085938 545.499023438 507.489785476 572.762695312 507.489785476 577.724609375 c 1
 473.992228639 459.100585938 442.588867188 340.557617188 409.59375 223.69921875 c 1
 409.59375 219.5625 399.935546875 221.470703125 399.935546875 221.470703125 c 1
 401.236328125 226.301757812 l 1
 401.236328125 226.301757812 443.220703125 382.245117188 443.236328125 382.301757812 c 2
 443.236328125 382.301757812 496.713496599 574.125 496.713496599 578.965820312 c 1
 496.713496599 574.002929688 429.143554688 582.151367188 429.143554688 587.11328125 c 1
 429.143554688 582.122070312 352 601.631835938 352 606.510742188 c 1
 352 601.66015625 354.42578125 611.36328125 354.42578125 616.213867188 c 1
 354.42578125 611.334960938 430.985351562 591.971679688 430.985351562 596.962890625 c 1
 430.985351562 592 499.406519725 583.770507812 499.406519725 588.732421875 c 1
 499.406519725 583.731445312 503.653250388 599.364257812 503.653250388 604.244140625 c 1
EndSplineSet
Validated: 524325
EndChar

StartChar: U
Encoding: 85 85 37
Width: 1020
Flags: HW
LayerCount: 2
Fore
SplineSet
345.744011002 608.467773438 m 0
 344.299796736 605.369140625 269.504882812 472.560546875 224.920898438 384.735351562 c 1
 248.407226562 421.953125 275.043945312 465.942382812 312.10546875 527.640625 c 1
 310.591796875 501.8203125 310.591796875 501.8203125 310.591796875 494.84375 c 0
 310.591796875 421.9296875 340.412797195 335.95703125 417.572007562 310.958007812 c 0
 419.821887073 310.853515625 422.043913881 310.801757812 424.237056403 310.801757812 c 0
 515.446289062 310.801757812 560.66796875 400.913085938 596.678710938 473.965820312 c 0
 603.185546875 486.27734375 604.676757812 489.09765625 610.78515625 500.250976562 c 1
 610.78515625 495.786132812 619.715820312 491.28515625 619.715820312 495.75 c 1
 613.958984375 485.243164062 612.620117188 482.731445312 605.676757812 469.6015625 c 0
 570.3203125 397.842773438 523.30859375 300.801757812 424.237056403 300.801757812 c 0
 420.31704625 300.801757812 416.039077276 300.891601562 414.882674281 301.259765625 c 0
 331.761953736 327.357421875 301.57421875 415.546875 300.616210938 488.516601562 c 1
 240.8359375 389.130859375 210.415039062 341.169921875 202.603515625 333.12890625 c 0
 201.96484375 332.4609375 201.111328125 330.499023438 197.524414062 330.499023438 c 0
 192.755859375 330.499023438 192.220703125 335.559570312 192.220703125 336.041015625 c 0
 192.220703125 344.61328125 232.421875 422.032226562 311.352539062 566.525390625 c 1
 311.352539062 562.130859375 311.219726562 562.203125 311.219726562 566.596679688 c 1
 315.548585428 574.555664062 336.353523523 612.369140625 336.366934084 612.390625 c 2
 336.366934084 612.390625 335.984217304 613.959960938 335.984217304 615.82421875 c 0
 335.984217304 614.250976562 336.802261528 612.314453125 340.833682495 612.314453125 c 0
 345.752263655 612.314453125 346.115380385 612.314453125 346.115380385 612.314453125 c 0
 346.115380385 608.442382812 345.824474369 608.865234375 345.744011002 608.467773438 c 0
EndSplineSet
Validated: 524293
EndChar

StartChar: V
Encoding: 86 86 38
Width: 1010
Flags: HW
LayerCount: 2
Fore
SplineSet
387.38671875 299.807617188 m 2
 321.500976562 377.767578125 340.81640625 483.266601562 310 583.5546875 c 1
 310 578.768554688 319.57421875 581.661132812 319.57421875 586.447265625 c 1
 350.2109375 486.784179688 332.201171875 384.25 392.50390625 309.370117188 c 1
 498.235351562 367.453125 511.369140625 520.545898438 581.698242188 629.68359375 c 1
 581.698242188 625.463867188 590.135742188 620.09765625 590.135742188 624.31640625 c 1
 568.9296875 591.616210938 557.563476562 566.6796875 531.651367188 501.140625 c 0
 500.245117188 420.870117188 467.943359375 337.251953125 393.551757812 298.569335938 c 2
 389.975585938 296.693359375 l 1
 387.38671875 299.807617188 l 2
EndSplineSet
Validated: 524293
EndChar

StartChar: W
Encoding: 87 87 39
Width: 1020
Flags: HW
LayerCount: 2
Fore
SplineSet
303.040039062 383.955078125 m 0
 280.009765625 439.043945312 270.40625 456.044921875 250 476.541015625 c 1
 250 472.930664062 257.21875 479.84765625 257.21875 483.458007812 c 1
 280.06640625 460.481445312 289.719726562 441.814453125 312.321289062 387.681640625 c 0
 338.048828125 323.741210938 363.318359375 262.291992188 431.504944826 260.038085938 c 1
 488.034522747 293.387695312 514.054414899 356.440429688 538.132013889 415.510742188 c 0
 548.221482927 439.311523438 549.092096736 441.364257812 560.454310672 465.602539062 c 1
 568.64873695 439.116210938 570.025030605 434.668945312 576.311344863 392.034179688 c 0
 584.186076925 337.176757812 592.799724864 281.450195312 636.47317185 257.787109375 c 1
 744.916992188 325.826171875 817.780273438 455.770507812 829.087890625 582.004882812 c 2
 829.087890625 581.965820312 829.533203125 582.004882812 829.533203125 582.4453125 c 1
 829.533203125 577.465820312 839.494140625 576.57421875 839.494140625 581.5546875 c 1
 839.494140625 581.104492188 839.047851562 581.063476562 839.047851562 581.104492188 c 2
 828.844726562 467.201171875 765.583984375 325.733398438 636.961761124 246.250976562 c 1
 585.692057855 271.764648438 576.206790779 320.345703125 566.116316414 390.643554688 c 0
 563.761838884 407.041015625 561.461649052 422.965820312 558.243595007 437.3359375 c 1
 554.727963956 429.056640625 551.246514048 420.517578125 547.70776046 411.834960938 c 0
 520.52068282 345.134765625 495.013507806 285.071289062 434.231393614 249.970703125 c 1
 357.65625 251.538085938 331.23828125 313.874023438 303.040039062 383.955078125 c 0
EndSplineSet
Validated: 524293
EndChar

StartChar: X
Encoding: 88 88 40
Width: 1010
Flags: HW
LayerCount: 2
Fore
SplineSet
423.961914062 455.98828125 m 1
 423.961914062 452.955078125 348.985351562 548.021484375 348.985351562 551.939453125 c 1
 348.985351562 547.985351562 356.891601562 554.106445312 356.891601562 558.059570312 c 1
 356.891601562 554.142578125 432.037109375 458.857421875 432.037109375 461.890625 c 1
 432.037109375 459.00390625 469.200195312 411.270507812 469.200195312 411.270507812 c 1
 469.200195312 411.270507812 526.999023438 462.21484375 526.999023438 465.534179688 c 1
 526.999023438 461.998046875 534.068359375 454.924804688 534.068359375 458.462890625 c 1
 514.365234375 439.955078125 494.674804688 421.435546875 474.984375 402.916015625 c 1
 569.955078125 265.735351562 l 1
 561.734375 260.043945312 l 1
 467.799804688 395.727539062 l 1
 436.55078125 364.46484375 405.298828125 333.205078125 373.995117188 301.998046875 c 1
 333.999023438 272.000976562 l 1
 328 280 l 1
 367.717773438 309.788085938 l 1
 462.013671875 404.083984375 l 1
 462.013671875 404.083984375 423.961914062 453.09765625 423.961914062 455.98828125 c 1
EndSplineSet
Validated: 524325
EndChar

StartChar: Y
Encoding: 89 89 41
Width: 1020
Flags: HW
LayerCount: 2
Fore
SplineSet
355.976043074 558.25 m 0
 353.868219535 584.77734375 353.033181174 590.68359375 350.347573327 605.217773438 c 1
 350.347573327 600.279296875 360.840011863 601.844726562 360.840011863 606.783203125 c 1
 363.374171758 593.046875 364.30568039 587.514648438 366.573250399 558.938476562 c 0
 369.51403767 517.115234375 372.69340733 475.588867188 396.652265745 444.08203125 c 1
 398.315081264 445.552734375 518.340820312 553.404296875 556.439453125 590.999023438 c 2
 556.439453125 587.439453125 570.745117188 601.547851562 570.745117188 605.108398438 c 1
 570.745117188 601.930664062 564.719726562 586.663085938 564.719726562 588.001953125 c 2
 541.904296875 516.095703125 475.334960938 453.571289062 402.734042031 430.260742188 c 2
 399.513179782 429.23828125 l 1
 396.412646041 432.330078125 396.412646041 432.330078125 395.665779433 433.103515625 c 1
 315.477201223 362.680664062 239.263671875 288.041015625 185.638671875 207.784179688 c 1
 185.638671875 210.458007812 169.7734375 141.6796875 169.7734375 136.936523438 c 1
 169.7734375 141.822265625 160 143.947265625 160 139.061523438 c 1
 160 143.807617188 176.259765625 214.388671875 176.259765625 211.717773438 c 1
 228.28515625 289.823242188 298.704859286 361.684570312 388.860994777 440.822265625 c 1
 361.796416048 474.412109375 358.918904975 517.711914062 355.976043074 558.25 c 0
547.237304688 568.0234375 m 1
 517.913085938 540.502929688 406.923756243 443.041992188 405.45076932 441.775390625 c 1
 466.002929688 462.663085938 521.166992188 511.283203125 547.237304688 568.0234375 c 1
EndSplineSet
Validated: 524325
EndChar

StartChar: Z
Encoding: 90 90 42
Width: 1020
Flags: HW
LayerCount: 2
Fore
SplineSet
686.435546875 265.142578125 m 0
 627.882926348 265.142578125 564.982957797 249.943359375 507.540872667 249.943359375 c 0
 505.53076187 249.943359375 503.52568138 249.961914062 501.52764332 250.000976562 c 2
 501.390818961 250.000976562 l 1
 501.256006726 250.012695312 l 2
 494.410764551 250.494140625 487.014200696 250.946289062 479.184024351 251.42578125 c 0
 394.299600773 256.619140625 256.892578125 264.122070312 215.833007812 351.885742188 c 2
 214.12890625 355.528320312 l 1
 349.08518663 455.443359375 531.790978103 473.776367188 690.287109375 543.077148438 c 1
 529.127933418 586.690429688 366.26167394 550.51171875 202 607.193359375 c 1
 202 602.469726562 205.28125 611.91796875 205.28125 616.641601562 c 1
 371.927812083 559.225585938 540.567858282 598.608398438 705.830078125 549.000976562 c 2
 705.830078125 544.220703125 718.0234375 540.482421875 718.0234375 545.262695312 c 1
 659.067813428 516.852539062 624.215832325 503.966796875 507.83866686 468.228515625 c 0
 405.057415967 437.908203125 303.490234375 407.669921875 226.672851562 352.500976562 c 1
 266.356445312 275.564453125 394.597394965 266.62109375 479.840982485 261.405273438 c 0
 503.730917918 259.943359375 503.730917918 259.943359375 507.540872667 259.943359375 c 0
 563.981926644 259.943359375 626.944271005 275.142578125 686.435546875 275.142578125 c 0
 706.060546875 275.142578125 740.262695312 275.142578125 783.049804688 254.306640625 c 1
 778.670898438 245.315429688 l 1
 763.573242188 252.666992188 737.955078125 265.142578125 686.435546875 265.142578125 c 0
EndSplineSet
Validated: 524293
EndChar

StartChar: bracketleft
Encoding: 91 91 43
Width: 1000
Flags: H
LayerCount: 2
Fore
SplineSet
405.181896821 305.79243682 m 0
 372.674172338 305.79243682 345.843706393 319.203708556 345.842274768 357.515923952 c 0
 345.842274768 357.80103281 346.264919697 367.447675494 347.044880008 372.675752249 c 0
 349.220047474 390.631260497 350.261704323 411.84259073 351.361035452 434.373297964 c 0
 355.943130661 528.28298819 361.070016502 652.731854383 467.660290448 652.731854383 c 0
 476.590887453 652.731854383 486.166456176 651.843446288 496.451390967 650 c 1
 519 650 l 1
 519 640 l 1
 495.545758301 640 l 1
 484.957368227 641.922424105 476.049918002 642.731854383 467.660290448 642.731854383 c 0
 372.484769114 642.731854383 366.101666826 531.28439582 361.348998617 433.878825047 c 0
 360.247994288 411.313825682 359.210180465 389.90621575 356.944696037 371.254511198 c 0
 356.195484391 366.251592717 355.843706393 361.677656565 355.843706393 357.519385044 c 0
 355.843706393 326.064494058 375.221511982 315.79243682 405.181896821 315.79243682 c 0
 416.096575997 315.79243682 427.977193228 317.246994312 441.653451269 320.032911253 c 1
 540.311705695 313.667862581 l 1
 539.667862581 303.688294305 l 1
 442.343488747 309.967286165 l 1
 429.466839488 307.376418507 416.879271141 305.79243682 405.181896821 305.79243682 c 0
EndSplineSet
Validated: 524289
EndChar

StartChar: backslash
Encoding: 92 92 44
Width: 1000
Flags: H
LayerCount: 2
Fore
SplineSet
297.084714964 595.474430143 m 1
 305.474430143 600.915285036 l 1
 703.915285036 -13.4744301428 l 1
 695.525569857 -18.9152850358 l 1
 297.084714964 595.474430143 l 1
EndSplineSet
Validated: 524289
EndChar

StartChar: bracketright
Encoding: 93 93 45
Width: 1000
Flags: H
LayerCount: 2
Fore
SplineSet
668.862218711 527.089047579 m 0
 668.862218711 535.584824741 671.344788568 544.691416804 671.344788568 551.446299814 c 0
 671.344788529 555.627036917 670.608488403 557.670542447 668.712645053 558.976717457 c 0
 609.973531825 557.89371337 551.661847925 549.619830888 493.87283874 541.407282792 c 0
 463.806863666 537.134527993 447.59282535 534.83030836 419.639424289 531.432769353 c 1
 418.432769353 541.360575711 l 1
 436.501952666 543.556757671 446.275638969 544.744680399 492.455719565 551.307453119 c 0
 554.433215879 560.115238138 610.500709011 568.017599232 671.133716723 569.019427271 c 1
 674.378841642 567.409874499 681.344788568 563.954827478 681.344788568 551.446299814 c 0
 681.344788568 543.529437843 678.862218711 534.539253568 678.862218711 527.089047579 c 0
 678.862218711 519.88424922 680.78981486 518.130260934 684.034630703 515.177687604 c 1
 683.820739268 501.481917166 683.400797697 473.468319544 683.400797697 430.185315698 c 0
 683.400797814 395.867579468 683.660793812 361.540758898 683.998231822 327.204913268 c 0
 686.830126775 287.580300675 702.343703024 249.272862279 702.343703024 208.189831194 c 0
 702.343703008 204.75037113 702.234459531 201.29088175 701.998872922 197.81055154 c 0
 701.998872922 197.589616 701.996970515 197.366976837 701.996970515 197.142710337 c 0
 701.996970515 191.439169135 702.398518897 184.871439925 702.398518897 178.362558347 c 0
 702.398518897 162.442127223 699.483276475 141.830177208 676.488790166 141.830177208 c 0
 675.653023358 141.830177208 674.571342951 141.830980051 672.053611552 142.066385383 c 2
 471.796778942 200.602997992 l 1
 474.602997992 210.203221058 l 1
 673.931800382 151.937878821 l 2
 674.837263467 151.864676835 675.689404723 151.830177208 676.488790166 151.830177208 c 0
 690.136751065 151.830177208 692.398518897 161.779794428 692.398518897 178.362558347 c 0
 692.398518897 178.891244388 691.996970515 196.954865893 691.996970515 197.142710337 c 0
 691.996970515 197.441826957 691.997987228 197.739884204 692.000132982 198.036814195 c 2
 692.000132982 198.192614275 l 1
 692.011909476 198.347468587 l 2
 692.238217681 201.637871363 692.343703024 204.917468512 692.343703024 208.189831194 c 0
 692.343703024 247.726213747 676.877946253 286.078108726 674.012556741 326.643245964 c 2
 674.001758728 326.796112741 l 1
 674.001758728 326.949915592 l 2
 673.66343085 361.35264366 673.400797697 395.764423849 673.400789537 430.185708098 c 0
 673.400789537 430.437544439 673.562404962 484.177700706 673.968895812 511.016910299 c 1
 669.916819856 515.73868911 668.862218711 521.647694495 668.862218711 527.089047579 c 0
EndSplineSet
Validated: 524289
EndChar

StartChar: asciicircum
Encoding: 94 94 46
Width: 1000
Flags: H
LayerCount: 2
Fore
SplineSet
470.912682823 538.158739865 m 1
 405.348727132 401.329614945 l 1
 396.329614945 405.651272868 l 1
 473.087317177 565.841260135 l 1
 538.222492219 347.638423744 l 1
 528.638423744 344.777507781 l 1
 470.912682823 538.158739865 l 1
EndSplineSet
Validated: 524289
EndChar

StartChar: underscore
Encoding: 95 95 47
Width: 1000
Flags: H
LayerCount: 2
Fore
SplineSet
381.54690506 150.088376439 m 0
 367.402042598 150.088376439 350.825843509 146.147739489 335.630786488 146.147739489 c 0
 310.982968277 146.147739489 303.604863681 156.793288457 297.042927627 166.261223031 c 1
 305.261223031 171.957072373 l 1
 311.565205787 162.86132749 316.218188422 156.147739489 335.630786488 156.147739489 c 0
 349.901890902 156.147739489 366.468031376 160.088376439 381.54690506 160.088376439 c 0
 395.760912348 160.088376439 398.94812175 155.622867564 432.492192243 155.622867564 c 0
 494.759877028 155.622867564 562.260443184 174.756030483 622.809283745 174.756030483 c 0
 638.689820156 174.756030483 647.688416054 173.600932288 657.601565962 172.316474491 c 1
 656.316474491 162.398434038 l 1
 646.692812806 163.645382527 638.121087284 164.756030483 622.809283745 164.756030483 c 0
 563.378011693 164.756030483 495.811854787 145.622867564 432.492192243 145.622867564 c 0
 432.120982268 145.622867564 401.892074737 146.164454697 395.463628842 148.240872777 c 0
 391.400569537 149.553259929 386.701236082 150.088376439 381.54690506 150.088376439 c 0
EndSplineSet
Validated: 524289
EndChar

StartChar: grave
Encoding: 96 96 48
Width: 1000
Flags: H
LayerCount: 2
Fore
SplineSet
348.032400241 682.201310303 m 1
 356.201310303 687.967599759 l 1
 397.967599759 628.798689697 l 1
 389.798689697 623.032400241 l 1
 348.032400241 682.201310303 l 1
EndSplineSet
Validated: 524289
EndChar

StartChar: a
Encoding: 97 97 49
Width: 1020
Flags: HW
LayerCount: 2
Fore
SplineSet
340.349609375 392.37890625 m 0
 340.349609375 360.6875 371.282226562 334.793945312 401.892578125 334.793945312 c 0
 405.833007812 334.793945312 409.487304688 335.198242188 413.107421875 335.981445312 c 2
 413.107421875 331.041015625 413.2265625 331.059570312 413.2265625 336 c 2
 501.273552402 349.236328125 606.802325171 419.279296875 607.073908477 511.014648438 c 1
 607.073908477 506.015625 617.685352383 506.1875 617.685352383 511.186523438 c 1
 618.560223796 489.159179688 633.037109375 470.155273438 652.80859375 443.725585938 c 1
 652.80859375 440.189453125 743.069335938 349.928710938 743.069335938 353.46484375 c 1
 743.069335938 349.928710938 736 342.859375 736 346.39453125 c 1
 705.66796875 376.786132812 675.224609375 407.067382812 644.961914062 437.528320312 c 1
 626.678710938 463.333984375 621.011729593 471.1640625 614.494766826 485.514648438 c 1
 595.617653906 399.586914062 496.617246255 338.711914062 414.890625 326.137695312 c 0
 410.611328125 325.2265625 406.256835938 324.793945312 401.892578125 324.793945312 c 0
 367.26171875 324.793945312 330.349609375 353.229492188 330.349609375 392.37890625 c 0
 330.349609375 402.821289062 334.557617188 410.830078125 334.666015625 410.995117188 c 0
 362.3828125 457.756835938 411.169921875 501.834960938 473.346081296 501.834960938 c 0
 481.074803164 501.834960938 485.350685367 501.366210938 494.090070301 500.408203125 c 1
 494.090070301 495.443359375 492.832701789 485.512695312 492.832701789 490.477539062 c 1
 484.216669578 491.420898438 480.436271421 491.834960938 473.346081296 491.834960938 c 0
 416.559570312 491.834960938 370.333007812 451.313476562 343.524414062 406.330078125 c 0
 341.325195312 401.478515625 340.349609375 396.813476562 340.349609375 392.37890625 c 0
EndSplineSet
Validated: 524321
EndChar

StartChar: b
Encoding: 98 98 50
Width: 1010
Flags: HW
LayerCount: 2
Fore
SplineSet
570.653320312 353.01171875 m 0
 612.963867188 353.01171875 672.9765625 343.538085938 677.327148438 290.48828125 c 1
 670.846679688 221.954101562 585.67578125 214.110351562 529.27734375 208.916992188 c 0
 522.819335938 208.318359375 522.819335938 208.318359375 514.817382812 207.538085938 c 1
 513.846679688 217.491210938 l 1
 521.862304688 218.2734375 521.862304688 218.2734375 528.345703125 218.874023438 c 0
 582.911132812 223.892578125 661.389648438 232.197265625 667.2890625 290.544921875 c 1
 663.500976562 332.584960938 614.887695312 343.01171875 570.653320312 343.01171875 c 0
 558.697265625 343.01171875 547.397460938 342.1796875 538.037109375 341.0859375 c 0
 482.8984375 332.059570312 427.6171875 303.678710938 400.66796875 258.551757812 c 2
 393.115234375 245.142578125 l 1
 378.05078125 372.845703125 389.755859375 426.229492188 382 545.681640625 c 1
 382 540.69140625 391.979492188 541.329101562 391.979492188 546.318359375 c 1
 398.584960938 443.689453125 390.810546875 364.985351562 399.760742188 272.981445312 c 1
 430.177734375 315.30078125 482.967773438 341.953125 536.580078125 350.984375 c 1
 536.580078125 346.01953125 536.709960938 346.03515625 536.709960938 351 c 2
 546.442382812 352.142578125 558.16015625 353.01171875 570.653320312 353.01171875 c 0
EndSplineSet
Validated: 524325
EndChar

StartChar: c
Encoding: 99 99 51
Width: 1010
Flags: HW
LayerCount: 2
Fore
SplineSet
378.1015625 331.057617188 m 0
 378.1015625 245.724609375 458.819335938 166.612304688 544.451171875 166.612304688 c 0
 549.561523438 166.612304688 551.83984375 166.780273438 559.618164062 167.35546875 c 1
 560.35546875 157.381835938 l 1
 552.505859375 156.801757812 549.935546875 156.612304688 544.451171875 156.612304688 c 0
 453.186523438 156.612304688 368.1015625 239.846679688 368.1015625 331.057617188 c 0
 368.1015625 331.288085938 368.569335938 349.606445312 370.305664062 353.998046875 c 0
 396.052734375 422.114257812 466.375976562 469.918945312 541.75 469.920898438 c 0
 542.2890625 469.920898438 559.310546875 469.24609375 567.690429688 467.991210938 c 0
 595.252929688 464.740234375 597.479492188 464.109375 610.16015625 457.934570312 c 0
 618.188476562 453.794921875 620.341796875 452.747070312 630.650390625 447.877929688 c 1
 630.650390625 443.350585938 626.405273438 434.294921875 626.405273438 438.822265625 c 1
 617.209960938 443.165039062 614.524414062 444.43359375 605.615234375 449.026367188 c 0
 593.225585938 455.028320312 594.73046875 454.750976562 566.23828125 458.095703125 c 0
 558.052734375 459.32421875 549.873046875 459.91796875 541.754882812 459.91796875 c 0
 470.783203125 459.91796875 404.252929688 414.836914062 379.85546875 350.974609375 c 0
 378.670898438 344.31640625 378.1015625 337.665039062 378.1015625 331.057617188 c 0
EndSplineSet
Validated: 524289
EndChar

StartChar: d
Encoding: 100 100 52
Width: 1020
Flags: HW
LayerCount: 2
Fore
SplineSet
404.916496879 230.4375 m 0
 345.444335938 230.4375 282.961914062 279.5078125 282.961914062 344.82421875 c 0
 282.961914062 395.697265625 321.927734375 446.37890625 380.59375 452.9921875 c 1
 380.59375 447.99609375 380.779296875 448.004882812 380.779296875 453 c 2
 383.581054688 453.119140625 386.373046875 453.177734375 389.153320312 453.177734375 c 0
 490.375741365 453.177734375 571.075195312 387.631835938 609.606445312 307.427734375 c 1
 605.670898438 334.819335938 601.908203125 362.245117188 598.146484375 389.657226562 c 0
 585.556640625 478.149414062 576.677734375 539.537109375 562.1484375 614.060546875 c 1
 562.1484375 609.150390625 571.971679688 611.030273438 571.971679688 615.940429688 c 1
 581.4296875 567.428710938 588.206054688 530.53515625 608.05078125 391.05078125 c 0
 614.112304688 347.873046875 620.171875 304.715820312 626.939453125 261.779296875 c 1
 617.162109375 259.734375 l 1
 591.469726562 355.481445312 503.104840402 443.178710938 389.153320312 443.177734375 c 0
 389.098632812 443.177734375 384 443.124023438 381.407226562 443.017578125 c 0
 329.276367188 437.0703125 292.961914062 391.62109375 292.961914062 344.82421875 c 0
 292.961914062 285.999023438 350.365234375 240.4375 404.916496879 240.4375 c 0
 424.694627588 240.4375 444.315008661 245.268554688 461.840344914 256.126953125 c 2
 466.397796721 258.950195312 l 1
 472.652677829 250.703125 l 1
 460.965158578 243.4609375 439.945559845 230.4375 404.916496879 230.4375 c 0
EndSplineSet
Validated: 524325
EndChar

StartChar: e
Encoding: 101 101 53
Width: 1020
Flags: HW
LayerCount: 2
Fore
SplineSet
470.177734375 593 m 1
 480.603515625 586.307617188 549.827148438 600.919921875 549.827148438 567.046875 c 0
 549.827148438 564.521484375 549.827148438 562.353515625 548.80859375 555.076171875 c 1
 483.618164062 487.387695312 387.054364959 472.60546875 285.936353118 458.3515625 c 0
 270.865540262 456.225585938 267.095531389 455.678710938 262.436050458 455 c 2
 247.348841804 455 l 1
 247.348841804 450 247.348841804 460 247.348841804 465 c 1
 261.642903715 465 l 1
 269.136808278 466.090820312 276.736260793 467.163085938 284.41359335 468.247070312 c 0
 375.992324789 481.163085938 476.989257812 495.885742188 539.534179688 559.874023438 c 0
 539.736328125 562.495117188 539.827148438 564.884765625 539.827148438 567.046875 c 0
 539.827148438 578.138671875 518.791992188 579.200195312 493.90625 579.438476562 c 0
 480.76953125 579.619140625 470.013671875 579.77734375 464.65625 583.698242188 c 1
 324.894819368 557.388671875 182.485351562 466.555664062 134.387695312 339.872070312 c 1
 163.061523438 211.517578125 338.375239788 202.872070312 483.290039062 196.6640625 c 0
 523.982421875 194.829101562 545.821289062 193.84375 576.711914062 190.418945312 c 1
 575.610351562 180.479492188 l 1
 555.659179688 182.69140625 544.751953125 183.881835938 482.833007812 186.673828125 c 0
 329.000942106 193.266601562 153.626953125 202.02734375 124 340.646484375 c 1
 124 338.915039062 124.499023438 340.266601562 124.499023438 341.998046875 c 2
 170.392578125 464.788085938 306.387037292 564.998046875 468.293945312 594.591796875 c 1
 468.293945312 591.446289062 470.177734375 590.42578125 470.177734375 593 c 1
EndSplineSet
Validated: 524293
EndChar

StartChar: f
Encoding: 102 102 54
Width: 1010
Flags: HW
LayerCount: 2
Fore
SplineSet
359.502929688 595.68359375 m 0
 359.502929688 603.333984375 357.551757812 619.329101562 357.551757812 635.890625 c 0
 357.551757812 659.512695312 362.390625 690.482421875 394.165039062 690.482421875 c 0
 394.239257812 690.482421875 399.248046875 690.416015625 401.568359375 690 c 0
 485.06640625 671.60546875 582.025390625 602.633789062 606.46875 512.373046875 c 1
 606.46875 510.8203125 606.46875 484.947265625 606.46875 491 c 1
 596.46875 491 l 1
 596.46875 484.868164062 596.46875 509.440429688 596.46875 511.037109375 c 1
 573.827148438 593.209960938 482.357421875 661.837890625 399.556640625 680.12890625 c 0
 397.619140625 680.370117188 395.823242188 680.482421875 394.165039062 680.482421875 c 0
 372.868164062 680.482421875 367.551757812 660.297851562 367.551757812 635.890625 c 0
 367.551757812 627.6484375 369.502929688 596.0859375 369.502929688 595.68359375 c 0
 369.502929688 594.979492188 369.49609375 594.302734375 369.478515625 593.646484375 c 0
 373.271484375 555.19921875 380.681640625 515.40625 389.208007812 475.958984375 c 1
 446.280273438 455.55078125 496.259765625 440.428710938 553.418945312 427.936523438 c 1
 553.418945312 423.051757812 551.291015625 413.278320312 551.291015625 418.1640625 c 1
 494.221679688 430.635742188 443.755859375 446.014648438 391.8359375 464.3828125 c 1
 402.567382812 418.74609375 414.602539062 373.846679688 423.290039062 332.6484375 c 1
 423.290039062 330.836914062 445.889648438 263.42578125 445.889648438 268.344726562 c 1
 445.889648438 263.653320312 436.504882812 260.1953125 436.504882812 264.88671875 c 1
 428.874023438 286.702148438 421.12890625 308.396484375 413.571289062 330.287109375 c 0
 403.85546875 376.465820312 391.42578125 422.186523438 380.633789062 468.377929688 c 1
 353.978515625 477.9609375 326.791992188 488.323242188 298 499.477539062 c 1
 298 494.813476562 301.608398438 504.141601562 301.608398438 508.8046875 c 1
 329.081054688 498.163085938 354.22265625 488.618164062 378.017578125 479.98828125 c 1
 370.04296875 517.297851562 363.219726562 554.942382812 359.456054688 593.354492188 c 1
 359.456054688 592.478515625 359.473632812 593.6015625 359.473632812 594.00390625 c 2
 359.493164062 594.487304688 359.502929688 595.052734375 359.502929688 595.68359375 c 0
EndSplineSet
Validated: 524325
EndChar

StartChar: g
Encoding: 103 103 55
Width: 1010
Flags: HW
LayerCount: 2
Fore
SplineSet
541.390625 514.944335938 m 1
 512.581054688 502.176757812 448.202148438 391.634765625 381.259765625 391.634765625 c 0
 379.421875 391.634765625 377.795898438 391.634765625 373.107421875 392.22265625 c 1
 373.107421875 387.125 325.4375 423.974609375 325.4375 428.114257812 c 1
 323.463867188 440.788085938 323.153320312 448.03125 323.153320312 455.450195312 c 0
 323.153320312 512.259765625 366.97265625 565.477539062 428.1640625 572.974609375 c 0
 434.349609375 574.247070312 440.245117188 574.93359375 446.028320312 574.93359375 c 0
 462.713867188 574.93359375 473.623046875 569.6328125 483.729492188 564.720703125 c 1
 483.729492188 560.270507812 479.171875 551.369140625 479.171875 555.819335938 c 1
 469.233398438 560.620117188 460.30078125 564.93359375 446.028320312 564.93359375 c 0
 440.797851562 564.93359375 435.59375 564.297851562 429.8359375 563.104492188 c 0
 373.07421875 556.275390625 333.153320312 507.03125 333.153320312 455.450195312 c 0
 333.153320312 448.266601562 333.619140625 441.03125 334.583007812 433.806640625 c 1
 334.583007812 429.651367188 376.864257812 396.721679688 376.864257812 401.852539062 c 2
 378.326171875 401.706054688 379.791015625 401.634765625 381.259765625 401.634765625 c 0
 419.419921875 401.634765625 461.2421875 447.694335938 494.060546875 484.86328125 c 0
 519.057617188 511.51953125 532.430664062 525.26953125 544.030273438 525.26953125 c 0
 545.724609375 525.26953125 545.784179688 525.26953125 550.67578125 524.049804688 c 1
 551.459960938 517.092773438 551.76953125 513.077148438 551.76953125 505.611328125 c 0
 551.76953125 396.189453125 488.798828125 119.383789062 385.666992188 119.383789062 c 0
 368.5234375 119.383789062 356.565429688 126.206054688 347.134765625 131.5859375 c 1
 347.134765625 133.725585938 352.305664062 135.865234375 352.305664062 135.865234375 c 1
 361.329101562 132.788085938 371.309570312 129.383789062 385.666992188 129.383789062 c 0
 476.028320312 129.383789062 541.76953125 391.046875 541.76953125 505.611328125 c 0
 541.76953125 508.953125 541.642578125 512.07421875 541.390625 514.944335938 c 1
EndSplineSet
Validated: 524321
EndChar

StartChar: h
Encoding: 104 104 56
Width: 1010
Flags: HW
LayerCount: 2
Fore
SplineSet
204.841796875 280.391601562 m 0
 204.841796875 311.072265625 206.138671875 341.676757812 206.138671875 372.205078125 c 0
 206.138671875 443.099609375 200.624023438 473.872070312 187.575195312 540.9921875 c 0
 176.455078125 596.090820312 174.669921875 609.528320312 172 632.4453125 c 1
 172 627.4765625 181.939453125 628.5859375 181.939453125 633.5546875 c 1
 191.674804688 548.1015625 214.864257812 482.31640625 215.5234375 404.920898438 c 0
 215.973632812 393.998046875 216.138671875 383.091796875 216.138671875 372.205078125 c 0
 216.138671875 341.524414062 214.841796875 310.919921875 214.841796875 280.391601562 c 0
 214.841796875 274.194335938 214.881835938 268.000976562 214.975585938 261.813476562 c 1
 244.979492188 312.03125 293.9921875 367.924804688 366.618164062 378.115234375 c 1
 405.416015625 371.477539062 423.271484375 345.69921875 423.271484375 293.655273438 c 0
 423.271484375 262.110351562 417.986328125 227.487304688 417.986328125 199.49609375 c 0
 417.986328125 191.70703125 417.986328125 186.90625 420.259765625 172.862304688 c 1
 410.38671875 171.264648438 l 1
 408.936523438 180.225585938 407.986328125 186.09375 407.986328125 199.49609375 c 0
 407.986328125 228.137695312 413.271484375 262.681640625 413.271484375 293.655273438 c 0
 413.271484375 331.736328125 404.657226562 361.11328125 366.424804688 367.986328125 c 1
 296.568359375 357.974609375 246.037109375 300.63671875 214.954101562 243.681640625 c 2
 206.336914062 227.26171875 l 1
 205.094726562 255.743164062 204.841796875 261.5234375 204.841796875 280.391601562 c 0
EndSplineSet
Validated: 524293
EndChar

StartChar: i
Encoding: 105 105 57
Width: 1010
Flags: HW
LayerCount: 2
Fore
SplineSet
519.711914062 684.983398438 m 1
 519.711914062 680.194335938 507.837890625 719.774414062 507.837890625 724.563476562 c 1
 507.837890625 719.774414062 517.41796875 722.6484375 517.41796875 727.4375 c 1
 517.41796875 722.6484375 529.291992188 683.068359375 529.291992188 687.857421875 c 1
 529.291992188 683.068359375 519.711914062 680.194335938 519.711914062 684.983398438 c 1
455.196289062 392.935546875 m 1
 455.196289062 391.744140625 501.2578125 593.28125 501.2578125 598.078125 c 1
 501.2578125 593.1953125 511.025390625 591.041015625 511.025390625 595.923828125 c 1
 511.025390625 594.84375 509.947265625 594.604492188 509.947265625 594.842773438 c 1
 509.947265625 594.842773438 464.94921875 390.70703125 464.916015625 390.572265625 c 0
 442.703125 298.084960938 442.703125 298.084960938 442.703125 298.084960938 c 1
 442.703125 293.234375 433 295.66015625 433 300.510742188 c 1
 433 295.4609375 455.196289062 391.672851562 455.196289062 392.935546875 c 1
EndSplineSet
Validated: 524325
EndChar

StartChar: j
Encoding: 106 106 58
Width: 1010
Flags: HW
LayerCount: 2
Fore
SplineSet
529.065429688 452.920898438 m 0
 529.065429688 401.58984375 514.662109375 294.625 427.5625 289.977539062 c 1
 383.5625 300.137695312 357.009765625 333.98828125 340 356.999023438 c 1
 340 353 347.998046875 359.000976562 347.998046875 363 c 1
 361.014648438 345.374023438 387.2265625 309.881835938 428.435546875 300.041015625 c 1
 497.83984375 304.30078125 519.065429688 387.942382812 519.065429688 452.920898438 c 0
 519.065429688 499.989257812 512.775390625 517.717773438 510.278320312 524.701171875 c 2
 510.278320312 524.124023438 508.627929688 524.701171875 508.627929688 526.350585938 c 1
 508.627929688 521.630859375 518.069335938 524.931640625 518.069335938 529.651367188 c 1
 523.07421875 516.166992188 529.065429688 500.0234375 529.065429688 452.920898438 c 0
EndSplineSet
Validated: 524293
EndChar

StartChar: k
Encoding: 107 107 59
Width: 1010
Flags: HW
LayerCount: 2
Fore
SplineSet
489.962890625 428.427734375 m 0
 533.661132812 455.952148438 547.024414062 468.065429688 561.237304688 494.372070312 c 1
 561.237304688 489.970703125 570.041015625 485.2265625 570.041015625 489.627929688 c 1
 554.071289062 460.067382812 538.596679688 447.247070312 495.291992188 419.966796875 c 0
 485.064453125 413.555664062 475.118164062 407.309570312 466.21875 400.73046875 c 1
 492.263671875 382.791015625 547.1171875 391.758789062 573.299804688 356.99609375 c 2
 573.299804688 353.249023438 576.255859375 346.796875 576.255859375 351.899414062 c 1
 576.255859375 347.869140625 568.196289062 341.951171875 568.196289062 345.981445312 c 1
 555.337890625 363.005859375 546.002929688 368.796875 505.451171875 376.627929688 c 0
 470.985351562 383.758789062 464.580078125 387.016601562 450.802734375 401.53125 c 1
 465.002929688 412.73046875 470.340820312 416.180664062 489.962890625 428.427734375 c 0
396.548828125 594.274414062 m 1
 396.548828125 589.282226562 406.534179688 588.733398438 406.534179688 593.725585938 c 1
 406.534179688 588.733398438 390.985351562 305.748046875 390.985351562 310.740234375 c 1
 390.985351562 305.748046875 381 306.296875 381 311.2890625 c 1
 381 306.296875 396.548828125 589.282226562 396.548828125 594.274414062 c 1
EndSplineSet
Validated: 524325
EndChar

StartChar: l
Encoding: 108 108 60
Width: 1010
Flags: HW
LayerCount: 2
Fore
SplineSet
391.495117188 287.88671875 m 1
 391.495117188 287.388671875 406.759765625 559.358398438 406.759765625 564.271484375 c 1
 406.759765625 559.279296875 416.745117188 558.736328125 416.745117188 563.728515625 c 1
 416.745117188 558.815429688 401.467773438 286.600585938 401.467773438 287.099609375 c 1
 401.467773438 286.6015625 367.94921875 -31.615234375 367.94921875 -36.5068359375 c 1
 367.94921875 -31.533203125 358 -30.51953125 358 -35.494140625 c 1
 358 -30.6025390625 391.495117188 287.388671875 391.495117188 287.88671875 c 1
EndSplineSet
Validated: 524325
EndChar

StartChar: m
Encoding: 109 109 61
Width: 1020
Flags: HW
LayerCount: 2
Fore
SplineSet
437.337879967 270.734375 m 1
 478.453777147 290.787109375 512.133382302 336.361328125 564.814453125 336.361328125 c 0
 567.231445312 336.361328125 569.68359375 336.262695312 572.173828125 336.057617188 c 0
 576.327148438 336.736328125 580.3125 337.063476562 584.143554688 337.063476562 c 0
 620.79296875 337.063476562 639.934570312 308.127929688 656.525390625 283.673828125 c 0
 659.7421875 278.698242188 661.188476562 276.4609375 664.206054688 271.975585938 c 1
 664.206054688 269.409179688 667.89453125 241.58203125 667.89453125 241.58203125 c 1
 657.955078125 240.477539062 l 1
 657.955078125 240.477539062 654.538085938 265.900390625 654.538085938 268.436523438 c 1
 652.387695312 271.657226562 650.264648438 274.940429688 648.137695312 278.23046875 c 0
 631.04296875 303.330078125 614.389648438 327.063476562 584.143554688 327.063476562 c 0
 579.959960938 327.063476562 576.495117188 326.65234375 572.571289062 325.98046875 c 0
 570.12109375 326.200195312 567.892578125 326.361328125 564.814453125 326.361328125 c 0
 513.526914589 326.361328125 479.741223827 275.825195312 433.338555599 257.754882812 c 2
 433.338555599 260.143554688 425.558257821 259.330078125 425.558257821 259.330078125 c 1
 428.118731779 299.55859375 433.737149092 314.455078125 433.737149092 342.813476562 c 0
 433.737149092 361.650390625 429.546252658 378.151367188 416.609988415 388.985351562 c 1
 337.598632812 387.702148438 268.344726562 302.7578125 244.440429688 236.627929688 c 1
 235 239.931640625 l 1
 259.756835938 308.513671875 331.272460938 399 418.497900227 399 c 0
 418.559697668 399 418.620465151 399 418.681232634 399 c 2
 420.692739327 399 l 1
 429.994284103 391.724609375 444.283912296 378.90625 444.283912296 342.813476562 c 0
 444.283912296 326.345703125 441.944879167 309.358398438 439.823167038 293.83203125 c 0
 438.882815983 285.711914062 437.984693179 277.9296875 437.337879967 270.734375 c 1
EndSplineSet
Validated: 524289
EndChar

StartChar: n
Encoding: 110 110 62
Width: 1020
Flags: HW
LayerCount: 2
Fore
SplineSet
280.711914062 317 m 1
 265 317 l 1
 265 312 265 322 265 327 c 1
 271.333984375 327 l 1
 283.51171875 481.11328125 442.434645076 592.547851562 604.653389701 592.547851562 c 0
 632.7031701 592.547851562 660.81400008 589.275390625 688.240274104 582.365234375 c 1
 712.100652114 589.392578125 734.353724765 592.666992188 754.932437598 592.666992188 c 0
 861.063476562 592.666992188 917.701171875 504.234375 917.701171875 406.942382812 c 0
 917.701171875 376.926757812 913.81640625 353.755859375 907.591796875 328.06640625 c 1
 907.591796875 323.225585938 897.908203125 325.725585938 897.908203125 330.56640625 c 1
 905.916015625 363.688476562 907.701171875 385.153320312 907.701171875 406.942382812 c 0
 907.701171875 500.990234375 853.790039062 582.666992188 754.932437598 582.666992188 c 0
 733.024645364 582.666992188 711.72034325 578.94140625 688.46045292 571.963867188 c 1
 659.498932058 579.401367188 632.524024608 582.547851562 604.653389701 582.547851562 c 0
 444.809573855 582.547851562 289.89453125 473.416992188 280.991210938 326.40234375 c 2
 280.991210938 325.80859375 280.711914062 306.99609375 280.711914062 317 c 1
EndSplineSet
Validated: 524293
EndChar

StartChar: o
Encoding: 111 111 63
Width: 1010
Flags: HW
LayerCount: 2
Fore
SplineSet
485.9765625 379.592773438 m 0
 476.254882812 379.592773438 470.21484375 379.592773438 432.943359375 373.7109375 c 1
 372.0703125 332.534179688 337.49609375 248.306640625 337.49609375 168.049804688 c 0
 337.49609375 129.75390625 348.176757812 77.720703125 387.2265625 77.720703125 c 0
 388.9609375 78.115234375 403.797851562 79.541015625 414.39453125 83.89453125 c 0
 496.655273438 147.747070312 538.083984375 257.209960938 540.959960938 358.6015625 c 1
 528.298828125 374.774414062 508.602539062 379.592773438 485.9765625 379.592773438 c 0
485.9765625 389.592773438 m 0
 528.10546875 389.592773438 543.23046875 372.46875 551.036132812 361.681640625 c 1
 551.036132812 363.573242188 550.999023438 362.840820312 550.999023438 362.759765625 c 2
 548.588867188 263.100585938 509.907226562 145.75390625 419.607421875 75.2548828125 c 1
 413.599609375 72.72265625 401.071289062 67.720703125 387.2265625 67.720703125 c 0
 336.65234375 67.720703125 327.49609375 131.349609375 327.49609375 168.049804688 c 0
 327.49609375 173.6015625 327.6875 178.743164062 328.006835938 183.278320312 c 0
 330.6875 249.763671875 358.848632812 325.936523438 412.90234375 370.875976562 c 1
 412.90234375 365.907226562 409.590820312 365.534179688 409.590820312 370.502929688 c 1
 409.590820312 365.534179688 408.471679688 375.47265625 408.471679688 380.440429688 c 1
 416.935546875 381.404296875 419.41015625 381.685546875 429.134765625 383.232421875 c 0
 433.921875 386.586914062 436.83203125 388.608398438 449.111328125 395.319335938 c 1
 449.111328125 390.594726562 453.2109375 381.685546875 453.2109375 386.966796875 c 1
 463.946289062 388.447265625 475.052734375 389.592773438 485.9765625 389.592773438 c 0
EndSplineSet
Validated: 524293
EndChar

StartChar: p
Encoding: 112 112 64
Width: 1010
Flags: HW
LayerCount: 2
Fore
SplineSet
324.379882812 137.133789062 m 1
 349.399414062 189.037109375 330.298828125 289.666992188 350.775390625 358.299804688 c 1
 350.775390625 354.081054688 310 380.029296875 310 384.248046875 c 1
 310 380.029296875 315.368164062 388.465820312 315.368164062 392.684570312 c 1
 315.368164062 388.465820312 353.990234375 363.888671875 353.990234375 368.106445312 c 1
 358.09375 379.750976562 363.42578125 390.40625 370.381835938 399.65625 c 1
 370.381835938 396.677734375 368.772460938 454.02734375 368.772460938 458.868164062 c 1
 368.772460938 453.870117188 378.76953125 454.1328125 378.76953125 459.131835938 c 1
 378.76953125 454.262695312 380.107421875 406.009765625 380.107421875 409.600585938 c 1
 398.508789062 425.53125 420.642578125 430.262695312 436.588867188 431.997070312 c 1
 436.85546875 431.997070312 l 2
 436.9375 431.998046875 437.018554688 432.000976562 437.100585938 432.000976562 c 0
 453.2578125 432.000976562 455.624023438 419.849609375 457.077148438 412.85546875 c 0
 457.930664062 407.266601562 458.302734375 404.82421875 460.012695312 400.756835938 c 1
 456.442382812 362.350585938 429.61328125 334.06640625 400.913085938 334.06640625 c 0
 394.69140625 334.06640625 388.288085938 335.443359375 381.88671875 338.380859375 c 1
 381.223632812 267.95703125 369.967773438 194.552734375 333.232421875 132.5 c 1
 324.379882812 137.133789062 l 1
381.6484375 350.505859375 m 1
 384.780273438 348.23828125 390.5390625 344.06640625 400.913085938 344.06640625 c 0
 425.161132812 344.06640625 446.587890625 370.69921875 449.790039062 399.380859375 c 0
 448.383789062 403.249023438 447.819335938 407.329101562 447.220703125 411.1640625 c 0
 445.493164062 418.4765625 444.51171875 421.96875 437.201171875 422.000976562 c 0
 411.290039062 419.151367188 393.182617188 409.80859375 380.478515625 395.92578125 c 1
 380.478515625 392.600585938 381.6484375 346.196289062 381.6484375 350.505859375 c 1
362.610351562 362.62109375 m 1
 362.610351562 358.40234375 371.474609375 352.76171875 371.474609375 356.98046875 c 1
 371.474609375 352.453125 370.83984375 380.232421875 370.83984375 382.865234375 c 1
 367.615234375 376.592773438 364.900390625 369.818359375 362.610351562 362.62109375 c 1
359.545898438 352.71875 m 1
 345.759765625 303.549804688 352.21875 235.443359375 346.225585938 183.813476562 c 1
 365.04296875 234.572265625 371.5390625 290.384765625 371.90234375 344.818359375 c 1
 371.90234375 344.814453125 371.791992188 344.817382812 371.791992188 344.92578125 c 1
 371.791992188 340.708007812 359.545898438 348.5 359.545898438 352.71875 c 1
EndSplineSet
Validated: 524325
EndChar

StartChar: q
Encoding: 113 113 65
Width: 1010
Flags: HW
LayerCount: 2
Fore
SplineSet
484.943359375 540.118164062 m 0
 434.448242188 540.118164062 356.75390625 527.408203125 356.75390625 477.180664062 c 0
 356.75390625 472.458984375 357.205078125 468.225585938 358.002929688 463.54296875 c 2
 358.002929688 464.287109375 358.002929688 463.961914062 358.002929688 463.935546875 c 2
 358.001953125 463.83984375 357.999023438 463.745117188 357.999023438 463.649414062 c 0
 357.999023438 435.895507812 377.307617188 405.484375 402.551757812 404.03125 c 1
 428.568359375 410.216796875 451.86328125 427.072265625 468.178710938 449.368164062 c 1
 476.484375 489.750976562 486.185546875 511.677734375 500.819335938 544.752929688 c 1
 502.16796875 522.977539062 502.16796875 522.977539062 502.16796875 520.120117188 c 0
 502.16796875 493.046875 492.887695312 466.754882812 477.499023438 445.068359375 c 1
 472.236328125 419.921875 469.671875 394.189453125 469.671875 368.588867188 c 0
 469.671875 363.052734375 469.780273438 357.521484375 469.99609375 352.002929688 c 2
 469.99609375 351.805664062 470.002929688 351.6328125 470.002929688 351.831054688 c 1
 470.002929688 351.696289062 470.002929688 351.616210938 470.002929688 351.712890625 c 2
 469.971679688 350.671875 469.951171875 349.624023438 469.951171875 348.5703125 c 0
 469.951171875 308.809570312 489.954101562 263.357421875 529.96484375 254.907226562 c 0
 531.372070312 254.654296875 532.698242188 254.541015625 533.9609375 254.541015625 c 0
 552.166015625 254.541015625 563.174804688 275.573242188 582.341796875 281.678710938 c 1
 582.341796875 276.921875 653.213867188 345.727539062 653.213867188 349.42578125 c 1
 653.213867188 345.784179688 660.06640625 338.50390625 660.06640625 342.14453125 c 1
 660.06640625 338.4453125 587.625 268.047851562 587.625 272.865234375 c 1
 568.345703125 267.326171875 558.319335938 244.541015625 533.9609375 244.541015625 c 0
 532.053710938 244.541015625 530.09765625 244.716796875 527.96875 245.106445312 c 0
 480.856445312 255.002929688 459.951171875 306.624023438 459.951171875 348.5703125 c 0
 459.951171875 349.643554688 459.966796875 350.711914062 459.997070312 351.775390625 c 0
 459.78125 357.369140625 459.671875 362.975585938 459.671875 368.588867188 c 0
 459.671875 388.946289062 461.309570312 409.389648438 464.662109375 429.576171875 c 1
 451.415039062 415.7109375 431.291015625 400.391601562 403.461914062 393.983398438 c 1
 368.087890625 395.306640625 348.041992188 433.515625 347.999023438 462.684570312 c 0
 347.161132812 467.721679688 346.75390625 472.55078125 346.75390625 477.180664062 c 0
 346.75390625 538.815429688 436.40625 550.118164062 484.943359375 550.118164062 c 0
 488.484375 550.118164062 489.202148438 550.115234375 498.146484375 549.850585938 c 1
 498.146484375 544.853515625 497.848632812 534.857421875 497.848632812 539.85546875 c 1
 490.333984375 540.077148438 488.977539062 540.118164062 484.943359375 540.118164062 c 0
EndSplineSet
Validated: 524325
EndChar

StartChar: r
Encoding: 114 114 66
Width: 1020
Flags: HW
LayerCount: 2
Fore
SplineSet
834.067382812 627.581054688 m 0
 837.279296875 627.581054688 844.047851562 627.561523438 853.868164062 626.967773438 c 1
 853.868164062 622.029296875 913.189453125 605.895507812 913.189453125 610.662109375 c 1
 913.189453125 605.844726562 910.512695312 596.208007812 910.512695312 601.025390625 c 1
 910.512695312 596.259765625 852.19921875 612.112304688 852.19921875 617.049804688 c 1
 846.129882812 617.40625 840.0859375 617.581054688 834.067382812 617.581054688 c 0
 620.880190313 617.581054688 437.577148438 408.004882812 373.638671875 259.0546875 c 2
 364 236.286132812 l 1
 364.111328125 321.083984375 366.426757812 356.212890625 389.239257812 501.077148438 c 0
 395.211914062 537.489257812 398.956054688 560.313476562 403.736328125 594.661132812 c 1
 403.736328125 589.705078125 413.649414062 588.383789062 413.649414062 593.33984375 c 1
 408.852539062 558.869140625 405.107421875 536.0390625 399.118164062 499.515625 c 0
 387.86328125 427.380859375 376.645507812 355.37109375 374.426757812 282.982421875 c 1
 446.359375 432.461914062 624.537541157 627.581054688 834.067382812 627.581054688 c 0
EndSplineSet
Validated: 524325
EndChar

StartChar: s
Encoding: 115 115 67
Width: 1010
Flags: HW
LayerCount: 2
Fore
SplineSet
501.12890625 615.0625 m 0
 488.841796875 615.0625 477.28515625 613.71875 465.854492188 611.096679688 c 1
 431.634765625 607.4765625 405.73046875 580.309570312 405.73046875 550.1171875 c 0
 405.73046875 545.666015625 406.08203125 541.129882812 406.8203125 536.5390625 c 0
 446.838867188 437.836914062 543.455078125 382.41015625 592.869140625 284.19921875 c 1
 593.28515625 281.747070312 593.297851562 280.790039062 593.297851562 279.821289062 c 0
 593.297851562 234.5390625 532.802734375 229.166992188 504.029296875 229 c 2
 499.029296875 228.970703125 l 1
 498.970703125 238.970703125 l 1
 538.6015625 239.201171875 583.297851562 246.784179688 583.297851562 279.821289062 c 0
 583.297851562 280.296875 583.240234375 280.791015625 583.120117188 281.303710938 c 0
 535.119140625 375.927734375 438.141601562 432.09375 397.182617188 533.702148438 c 1
 396.103515625 539.978515625 395.73046875 545.0234375 395.73046875 550.1171875 c 0
 395.73046875 586.2578125 426.37890625 616.795898438 464.142578125 620.96875 c 0
 476.379882812 623.751953125 488.768554688 625.0625 501.12890625 625.0625 c 0
 565.21875 625.0625 628.333007812 590.5 666.91796875 542.99609375 c 2
 666.91796875 539.24609375 670.0234375 533.553710938 670.0234375 538.27734375 c 1
 670.0234375 534.361328125 662.193359375 528.14453125 662.193359375 532.060546875 c 1
 662.193359375 527.337890625 659.08203125 533.036132812 659.08203125 536.78515625 c 2
 622.228515625 582.108398438 561.584960938 615.0625 501.12890625 615.0625 c 0
EndSplineSet
Validated: 524293
EndChar

StartChar: t
Encoding: 116 116 68
Width: 1020
Flags: HW
LayerCount: 2
Fore
SplineSet
479.54985808 465.5546875 m 0
 479.54985808 505.322265625 469.148433614 551.899414062 469.148433614 589.024414062 c 0
 469.148433614 594.76171875 469.148433614 598.297851562 471.238574631 609.669921875 c 1
 471.238574631 604.71484375 482.111378926 603.375976562 482.111378926 608.331054688 c 1
 480.846152611 601.5390625 480.118727829 597.634765625 480.118727829 589.024414062 c 0
 480.118727829 552.782226562 490.520152295 506.110351562 490.520152295 465.5546875 c 0
 490.520152295 461.365234375 490.480513537 457.208984375 490.396950749 453.091796875 c 0
 539.478304184 449.424804688 594.702148438 446.833984375 655.123046875 446.833984375 c 0
 662.319335938 446.833984375 668.669921875 446.836914062 686.938476562 447.061523438 c 1
 686.938476562 442.061523438 687.061523438 432.0625 687.061523438 437.0625 c 1
 672.311523438 436.880859375 665.474609375 436.833984375 655.123046875 436.833984375 c 0
 602.193359375 436.833984375 547.437124079 438.787109375 489.782014335 443.098632812 c 1
 488.945315137 435.1484375 487.331910539 427.559570312 484.618262565 420.505859375 c 0
 481.801768084 399.700195312 480.847223929 378.145507812 480.847223929 356.131835938 c 0
 480.847223929 309.981445312 484.852881162 262.008789062 484.852881162 214.6953125 c 0
 484.852881162 113.556640625 463.611863252 65.7041015625 436.622070312 24.3701171875 c 1
 436.622070312 28.6220703125 428.1171875 33.8828125 428.1171875 29.630859375 c 1
 452.963867188 68.8955078125 473.882586947 114.990234375 473.882586947 214.6953125 c 0
 473.882586947 261.732421875 469.876929714 309.698242188 469.876929714 356.131835938 c 0
 469.876929714 382.993164062 471.274999436 403.759765625 473.846162142 422.577148438 c 0
 475.468137283 426.697265625 477.712548062 433.317382812 478.841717018 443.946289062 c 1
 432.145507812 447.840820312 388.005859375 453.443359375 344.563476562 461 c 1
 334 461 l 1
 334 456 334 466 334 471 c 1
 345.436523438 471 l 1
 373.727539062 466.0703125 417.990234375 459.118164062 479.445940254 453.939453125 c 1
 479.513433275 457.626953125 479.54985808 461.495117188 479.54985808 465.5546875 c 0
EndSplineSet
Validated: 524293
EndChar

StartChar: u
Encoding: 117 117 69
Width: 1010
Flags: HW
LayerCount: 2
Fore
SplineSet
354.337890625 457.04296875 m 0
 354.337890625 449.970703125 354.791992188 442.9375 355.916992188 435.923828125 c 0
 368.006835938 374.653320312 396.106445312 299.737304688 460.860351562 288.168945312 c 1
 536.377929688 306.016601562 541.140625 400.977539062 544.349609375 479.357421875 c 0
 544.82421875 490.473632812 545.279296875 501.135742188 545.97265625 511.028320312 c 1
 545.97265625 510.373046875 541.296875 532.978515625 541.296875 537.240234375 c 1
 541.296875 532.298828125 551.181640625 533.819335938 551.181640625 538.760742188 c 1
 551.181640625 534.475585938 556.02734375 510.790039062 556.02734375 511.44921875 c 1
 555.283203125 501.01171875 554.861328125 491.131835938 554.340820312 478.931640625 c 0
 550.936523438 395.8828125 546.275390625 297.198242188 461.140625 277.96875 c 1
 387.3984375 289.7109375 358.31640625 372.2421875 346.0703125 434.16796875 c 0
 344.826171875 441.857421875 344.337890625 449.489257812 344.337890625 457.04296875 c 0
 344.337890625 471.005859375 346.20703125 484.669921875 348.0234375 498.047851562 c 0
 349.302734375 505.64453125 349.438476562 506.454101562 350.591796875 514.560546875 c 1
 350.591796875 509.591796875 360.529296875 508.471679688 360.529296875 513.440429688 c 1
 359.477539062 506.022460938 359.364257812 505.22265625 357.934570312 496.713867188 c 0
 356.119140625 483.340820312 354.337890625 470.112304688 354.337890625 457.04296875 c 0
EndSplineSet
Validated: 524293
EndChar

StartChar: v
Encoding: 118 118 70
Width: 1010
Flags: HW
LayerCount: 2
Fore
SplineSet
308.53125 378.272460938 m 0
 299.151367188 445.436523438 292.625976562 473.221679688 271 507.376953125 c 1
 271 503.120117188 279.513671875 508.365234375 279.513671875 512.622070312 c 1
 302.796875 475.821289062 309.125 446.380859375 318.440429688 379.62890625 c 0
 327.041992188 316.586914062 335.640625 256.0546875 383.49609375 218.817382812 c 1
 436.748046875 245.009765625 430.282226562 332.890625 459.520507812 383.995117188 c 2
 459.520507812 382.609375 461.979492188 383.998046875 461.979492188 386.456054688 c 1
 461.979492188 382.100585938 470.690429688 377.189453125 470.690429688 381.544921875 c 1
 460.552734375 364.376953125 456.563476562 354.435546875 446.484375 314.404296875 c 0
 432.845703125 258.27734375 422.422851562 224.899414062 382.237304688 207.243164062 c 1
 328.764648438 246.940429688 319.137695312 300.522460938 308.53125 378.272460938 c 0
EndSplineSet
Validated: 524293
EndChar

StartChar: w
Encoding: 119 119 71
Width: 1010
Flags: HW
LayerCount: 2
Fore
SplineSet
394.3828125 354.219726562 m 0
 394.3828125 347.126953125 392.25390625 338.080078125 392.25390625 330.252929688 c 0
 392.25390625 321.5546875 393.471679688 316.198242188 397.239257812 313.251953125 c 0
 411.204101562 321.73828125 411.758789062 343.036132812 423.635742188 359.670898438 c 1
 423.635742188 356.0234375 475.633789062 404.770507812 475.633789062 408.41796875 c 1
 475.633789062 404.770507812 482.471679688 397.4765625 482.471679688 401.124023438 c 1
 482.471679688 397.4765625 431.186523438 349.397460938 431.186523438 353.044921875 c 1
 418.953125 335.321289062 421.819335938 313.51953125 397.647460938 301.890625 c 1
 392.311523438 304.231445312 382.25390625 308.641601562 382.25390625 330.252929688 c 0
 382.25390625 333.696289062 382.806640625 337.130859375 383.336914062 340.287109375 c 1
 362.220703125 311.834960938 329.830078125 294.03125 295.551757812 293.00390625 c 2
 295.551757812 288.005859375 295.177734375 287.995117188 295.177734375 292.993164062 c 1
 234.705078125 300.4609375 224.518554688 361.705078125 215.379882812 416.649414062 c 0
 209.3359375 449.373046875 207.36328125 455.5078125 202 469.296875 c 1
 202 464.595703125 211.403320312 468.00390625 211.403320312 472.705078125 c 1
 217.485351562 457.034179688 219.359375 450.234375 225.235351562 418.354492188 c 0
 234.271484375 363.889648438 243.85546875 309.672851562 295.634765625 303.01171875 c 1
 331.759765625 304.243164062 365.829101562 326.15625 384.046875 359.995117188 c 2
 384.046875 357.540039062 388.778320312 365.936523438 388.778320312 368.391601562 c 1
 394.3828125 358.361328125 394.3828125 358.361328125 394.3828125 354.219726562 c 0
EndSplineSet
Validated: 524325
EndChar

StartChar: x
Encoding: 120 120 72
Width: 1010
Flags: HW
LayerCount: 2
Fore
SplineSet
379 509.517578125 m 1
 379 505.9296875 386.174804688 512.893554688 386.174804688 516.481445312 c 1
 386.174804688 512.876953125 472.53125 423.077148438 472.53125 427.095703125 c 1
 472.53125 423.095703125 519.068359375 457.999023438 519.068359375 461.999023438 c 1
 519.068359375 457.999023438 525.068359375 450 525.068359375 454 c 1
 525.068359375 450 479.55078125 415.862304688 479.55078125 419.862304688 c 1
 479.55078125 415.876953125 591.137695312 301.731445312 591.137695312 305.306640625 c 1
 591.137695312 301.71875 583.963867188 294.754882812 583.963867188 298.342773438 c 1
 583.963867188 294.767578125 471.48828125 409.829101562 471.48828125 413.815429688 c 1
 471.48828125 409.815429688 426.111328125 375.782226562 426.111328125 379.782226562 c 1
 426.111328125 375.708007812 412.607421875 344.17578125 412.607421875 348.830078125 c 1
 412.607421875 344.26171875 403.46875 348.323242188 403.46875 352.892578125 c 1
 403.46875 348.244140625 418.026367188 382.1484375 418.026367188 386.217773438 c 1
 418.026367188 382.217773438 464.467773438 417.047851562 464.467773438 421.047851562 c 1
 464.467773438 417.029296875 379 505.913085938 379 509.517578125 c 1
EndSplineSet
Validated: 524325
EndChar

StartChar: y
Encoding: 121 121 73
Width: 1010
Flags: HW
LayerCount: 2
Fore
SplineSet
366.525390625 467.170898438 m 0
 366.525390625 471.526367188 367.002929688 475.693359375 367.966796875 479.458007812 c 2
 367.966796875 478.393554688 367.966796875 529.330078125 367.966796875 534 c 1
 377.966796875 534 l 1
 377.966796875 529.318359375 377.966796875 477.047851562 377.966796875 478.177734375 c 1
 376.877929688 474.229492188 376.525390625 470.844726562 376.525390625 467.170898438 c 0
 376.525390625 445.30859375 385.365234375 423 402.837890625 423 c 0
 402.874023438 423 402.909179688 423 402.9453125 423 c 2
 403.229492188 423 l 2
 406.151367188 422.6953125 407.669921875 422.655273438 409.200195312 422.655273438 c 0
 442.412109375 422.655273438 456.827148438 459.139648438 468.096679688 489.174804688 c 0
 472.118164062 498.88671875 475.467773438 507.388671875 480.000976562 512.99609375 c 2
 480.000976562 509.947265625 497.482421875 532.67578125 497.482421875 535.723632812 c 1
 483.876953125 494.200195312 483.876953125 494.200195312 474.119140625 462.861328125 c 0
 431.8125 324.638671875 384.141601562 172.291992188 241.099609375 132.84765625 c 1
 208 140.203125 l 1
 210.169921875 149.966796875 l 1
 240.826171875 143.154296875 l 1
 370.188476562 179.434570312 419.530273438 319.091796875 458.564453125 444.919921875 c 1
 447.7578125 427.09375 432.486328125 412.655273438 409.200195312 412.655273438 c 0
 407.084960938 412.655273438 404.918945312 412.768554688 402.698242188 413 c 0
 376.001953125 413.110351562 366.525390625 444.6953125 366.525390625 467.170898438 c 0
EndSplineSet
Validated: 524325
EndChar

StartChar: z
Encoding: 122 122 74
Width: 1020
Flags: HW
LayerCount: 2
Fore
SplineSet
484.119400857 193.240234375 m 0
 469.281107665 193.240234375 454.147352717 193.095703125 438.893375398 193.095703125 c 0
 355.789152722 193.095703125 270.13671875 197.158203125 209.4375 254.361328125 c 2
 205 258.54296875 l 1
 209.97265625 262.078125 l 2
 329.118125589 341.77734375 525.975124621 289.436523438 665.366210938 338.525390625 c 1
 597.506835938 383.568359375 510.358442525 392.176757812 424.440201324 400.349609375 c 0
 395.725393901 403.1015625 381.508589232 404.463867188 355.524255975 407.733398438 c 1
 355.524255975 402.776367188 356.879304722 412.692382812 356.879304722 417.649414062 c 1
 374.303397702 415.45703125 382.912541994 414.379882812 425.486543477 410.299804688 c 0
 514.436833602 401.911132812 606.8984375 393.224609375 678.788085938 342.002929688 c 2
 678.788085938 337.515625 686.0234375 331.114257812 686.0234375 336.219726562 c 1
 623.853515625 309.904296875 579.151367188 304.735351562 462.925623394 300.9140625 c 0
 371.780765599 298.26953125 284.685546875 295.444335938 220.89453125 257.452148438 c 1
 277.870117188 207.407226562 357.95519305 203.095703125 438.893375398 203.095703125 c 0
 454.110674706 203.095703125 469.242391987 203.240234375 484.119400857 203.240234375 c 0
 495.430491973 203.240234375 501.593416685 203.205078125 516.93297603 202.892578125 c 1
 516.711889129 192.895507812 l 1
 503.351923555 193.166992188 497.204281347 193.240234375 484.119400857 193.240234375 c 0
EndSplineSet
Validated: 524293
EndChar

StartChar: braceleft
Encoding: 123 123 75
Width: 1000
Flags: H
LayerCount: 2
Fore
SplineSet
572.986391013 628.158033194 m 0
 572.986391013 615.442770718 589.000826837 596.067511099 589.005061997 573.461316894 c 0
 589.005061997 573.134951228 586.591924935 552.867706405 585.757676235 540.986711974 c 0
 583.76137023 512.556220206 581.654762076 472.543056602 544.212103023 472.002330153 c 0
 542.679193521 471.895712587 541.163794131 471.844973131 539.666023689 471.844973131 c 0
 513.121723922 471.844973131 492.58003528 487.679878642 471.905385079 489.981374772 c 0
 464.112825814 489.412510173 458.763209673 487.355803163 455.038969274 483.968390909 c 1
 465.103716806 482.067920965 467.770118679 474.373237874 481.50491343 472.586705264 c 1
 483.656590438 467.429467044 484.995663981 464.219914108 507.656845862 457.540933211 c 0
 513.298609768 455.878123497 519.029415197 454.214743341 524.075763069 452 c 1
 544.732059863 452 l 2
 546.611387969 451.440385256 547.290913686 451.25366271 550.468376125 450.532982402 c 0
 556.74486703 449.109411395 567.195013383 446.721084606 567.195013383 434.716962769 c 2
 567.195013383 434.716962769 567.142506794 432.95303047 567.041017546 432.030389953 c 0
 567.211202892 430.655472072 567.292265187 429.305273564 567.292265187 427.982184229 c 0
 567.292265187 411.750449255 555.510091485 401.50443844 551.589153402 390.993861238 c 0
 548.274211136 384.450510504 544.629594935 378.973984114 539.916543492 371.91565049 c 0
 530.637781214 358.019642658 521.999957352 344.631601888 521.999994939 330.007183666 c 2
 521.999994939 329.592797781 l 2
 521.322194779 325.417953813 521.166702731 322.410573321 521.166702731 319.534052755 c 0
 521.166702731 296.461502771 533.232442329 275.811229577 550.401305893 275.811229577 c 0
 555.11237609 275.811229577 557.58311115 276.712289766 564.98481716 279.411641358 c 1
 568.411641358 270.01518284 l 1
 560.651182514 267.184996541 556.884270777 265.811229577 550.401305893 265.811229577 c 0
 524.192103399 265.811229577 511.166702731 294.767563938 511.166702731 319.534052755 c 0
 511.166703039 323.19520353 511.43955117 326.842217455 512.001202178 330.410220822 c 0
 512.131853604 348.757874277 522.519877342 363.868897959 531.594162837 377.458678421 c 0
 535.648630816 383.530706092 539.527273597 389.36465652 542.417394131 395.020087155 c 0
 546.690695685 406.182436441 557.292265187 415.606302002 557.292265187 427.982184229 c 0
 557.292265187 428.884397389 557.292265187 429.616802937 556.95116949 431.973608391 c 0
 557.107711116 433.140548871 557.195013383 433.791344142 557.195013383 434.716962769 c 0
 557.195013383 438.769657001 555.855161509 439.055419905 548.250430644 440.780249039 c 0
 546.712221621 441.129130253 545.036979677 441.506371813 543.287094137 442 c 2
 521.896909057 442 l 1
 504.815766489 449.911205274 482.68034473 450.65340999 474.68271587 463.55330929 c 1
 465.977302147 465.750112086 456.290262758 474.244892808 452.128926021 474.244892808 c 0
 451.960266959 474.244892812 451.804548707 474.294643236 451.630581472 474.294643236 c 0
 451.334928141 474.294643236 450.98656769 474.150952946 450.432406031 473.375175673 c 0
 454.518704539 462.569011921 468.885061515 454.858174408 476.183151307 443.738340585 c 2
 486.088511561 428.645903643 l 1
 472.623032142 435.146500437 l 1
 471.849619366 433.672362318 470.427596604 432.244861834 467.840981401 432.244861834 c 0
 466.770865473 432.244861907 465.956206046 432.434970834 465.271254124 432.709485901 c 0
 463.58031906 432.384609699 461.937623384 432.221747351 460.340282875 432.221747351 c 0
 441.325696712 432.221747351 436.996464878 453.228266506 436.996464878 464.449235301 c 0
 436.996464878 464.655987791 436.997790997 464.861472195 437.000422798 465.065628305 c 2
 437.000422798 465.368293928 l 1
 439.136411537 479.945174349 444.927302771 498.241641016 472.092798673 500.016891137 c 1
 495.9262868 497.581470498 515.227749135 481.844973131 539.666023689 481.844973131 c 0
 540.97519142 481.844973131 542.298012446 481.890733192 543.636968736 481.986995911 c 2
 543.788654332 481.997901172 l 1
 543.941271026 481.997901172 l 2
 570.907712061 482.308933426 573.576783683 510.283287704 575.782494452 541.696027536 c 0
 576.35155692 549.800359046 576.896946733 557.719692629 578.066664873 564.817729531 c 0
 579.002628977 571.000798008 579.002628977 571.000798008 579.002628977 573.458779435 c 0
 579.002628977 592.997214834 564.902965061 608.365973309 563.006129161 626.67924904 c 1
 563.006129161 626.880599101 l 2
 562.996115727 627.306993371 562.986391013 627.732832912 562.986391013 628.158033194 c 0
 562.986391013 652.025478974 579.201179851 674.157404522 606.22329714 674.157404522 c 0
 607.530997409 674.157404522 608.853787327 674 610.203240551 674 c 0
 624 674 624 674 624 674 c 1
 624 664 l 1
 609.791561435 664 l 1
 609.584850019 664.01702351 l 2
 608.435505474 664.111676623 607.3148257 664.157404522 606.22329714 664.157404522 c 0
 585.616721199 664.157404522 572.986391013 647.781620238 572.986391013 628.158033194 c 0
460.340282875 442.221747351 m 0
 463.954680146 442.650394256 463.954680146 442.650394256 464.06673291 442.911847372 c 0
 458.835303915 448.51883495 452.314560644 453.423186971 447.294582374 459.444616678 c 1
 448.414683114 450.20970744 452.702026806 442.221747351 460.340282875 442.221747351 c 0
EndSplineSet
Validated: 524321
EndChar

StartChar: bar
Encoding: 124 124 76
Width: 1000
Flags: H
LayerCount: 2
Fore
SplineSet
446.924790159 595.96002278 m 0
 446.924790159 615.465043552 445.310960799 635.119135376 445.310960799 654.920139242 c 0
 445.310960799 662.564271792 445.369743769 666.784175685 446.387654782 680.360069899 c 1
 456.360069899 679.612345218 l 1
 455.390223774 666.677493123 455.310960799 662.677572282 455.310960799 654.920139242 c 0
 455.310960799 635.41511847 456.924790159 615.761026646 456.924790159 595.96002278 c 0
 456.924789859 576.158545481 454.129379086 558.059871282 454.129379086 507.841857897 c 0
 454.129379086 425.626010719 464.256389501 343.839382387 470.97303932 261.521869263 c 0
 473.881214398 225.880031953 473.08303862 189.935479635 474.144873099 154.14911965 c 1
 464.14911965 153.855126901 l 1
 461.007695801 260.663537752 l 1
 452.472160052 342.811755125 444.129379086 425.003230986 444.129379086 507.841857897 c 0
 444.129379086 529.614731477 444.70627499 551.431328207 446.019788712 573.447451989 c 0
 446.683129603 580.912625542 446.924790159 588.415255635 446.924790159 595.96002278 c 0
EndSplineSet
Validated: 524289
EndChar

StartChar: braceright
Encoding: 125 125 77
Width: 1000
Flags: H
LayerCount: 2
Fore
SplineSet
678.637088244 455.97956605 m 0
 678.637088244 451.882910503 674.535230583 450.773604133 673.598630702 450.773604133 c 0
 673.242290936 450.773604133 673.00215827 450.854675525 672.685954357 450.854675525 c 0
 666.454585337 450.854675525 639.18516563 454.057912597 638.907019791 454.120033807 c 0
 632.484626034 455.554413956 626.34237788 456.236639547 620.555302547 456.236639547 c 0
 594.08659171 456.236639547 566.601140741 441.496521696 563.934055416 400.828202304 c 1
 558.128190417 387.102204419 555.826576235 372.476790021 552.649602961 347.876531677 c 0
 547.053303498 304.542703937 541.102382746 259.769658766 493.511944046 250 c 1
 480.18556546 250 l 1
 456.674226184 257.837113092 l 1
 459.837113092 267.325773816 l 1
 481.81443454 260 l 1
 492.478778148 260 l 1
 531.802468221 268.380494541 537.299313362 307.098059418 542.732345865 349.167662048 c 0
 545.200705329 368.280903595 547.580145603 387.395371553 554.069760896 403.170143509 c 1
 556.05846382 429.699736147 569.431072259 449.639727575 589.616228844 459.456285702 c 1
 561.180618549 461.185927918 531.704563635 475.769281105 531.701842724 507.69565571 c 0
 531.701842724 507.986075188 532.148632645 515.440958314 532.950750468 519.302389371 c 0
 532.71747105 521.957472518 532.607637721 524.508627419 532.607637721 526.977005549 c 0
 532.607637721 539.634668075 533.170450951 541.545255371 542.298245208 571.729105952 c 1
 546.969114693 582.414433267 551.132577573 593.062573088 551.132577573 605.0902834 c 0
 551.13257749 605.882463582 551.114709619 606.681875172 551.077858953 607.489356359 c 0
 543.460392161 619.868693667 526.989932916 633.960235579 512.496580967 643.048819107 c 1
 421.830605762 646.175232045 l 1
 422.175232045 656.169394238 l 1
 515.490608598 652.951622633 l 1
 530.46324255 643.762537897 550.096093596 629.121308633 560.909755065 610.502135301 c 1
 561.129057246 607.269705337 561.132577573 606.443612877 561.132577573 605.0902834 c 0
 561.132577573 591.176400968 556.534105468 579.346088704 551.701624401 568.270836484 c 0
 542.607637721 538.277220447 542.607637721 537.685859186 542.607637721 526.977005549 c 0
 542.607637721 525.390362462 542.612687947 523.26489537 543.053027878 518.692822243 c 1
 541.936637666 513.623085859 541.704563635 510.628881399 541.704563635 507.700937949 c 0
 541.704563635 482.208660409 567.025297332 469.280331837 595.400874395 469.280331837 c 0
 599.583692062 469.280331837 603.084527019 469.549168201 606.825621081 470.017673532 c 0
 607.532275624 469.978176714 671.861453314 464.120064802 676.863014254 459.821106653 c 0
 677.26753179 459.473414406 678.637088244 458.365386727 678.637088244 455.97956605 c 0
EndSplineSet
Validated: 524289
EndChar

StartChar: asciitilde
Encoding: 126 126 78
Width: 1000
Flags: H
LayerCount: 2
Fore
SplineSet
336.338959426 421.444452567 m 0
 310.623635268 421.444452567 289.473276463 399.532630371 262.380819829 399.532630371 c 0
 260.30822322 399.532630787 258.205364019 399.662538027 256.074994714 399.940908139 c 0
 253.781401534 399.574023424 251.513458405 399.397467579 249.281104826 399.397467579 c 0
 239.821256255 399.397467579 218.906469244 402.871450347 203 430.670430169 c 1
 203 443 l 1
 213 443 l 1
 213 433.358000895 l 1
 220.834595184 420.330877813 234.15974485 409.397467579 249.281104826 409.397467579 c 0
 251.983341061 409.397467579 253.81596255 409.689092872 255.922796731 410.066466927 c 0
 259.396918492 409.55227542 260.870815013 409.532630371 262.380819829 409.532630371 c 0
 286.278992626 409.532630371 307.698229454 431.444452567 336.338959426 431.444452567 c 0
 354.790841519 431.444452567 334.051527855 429.089369505 380.255230142 417.762464862 c 0
 399.66477779 413.004186099 414.138249222 409.126426459 427.971540391 396.127833378 c 1
 442.822050443 370.139440788 l 1
 434.139440788 365.177949557 l 1
 420.03742284 389.856480967 l 1
 398.790926966 409.253437081 366.807415335 405.606886907 341.297800765 421.171124508 c 0
 339.618104085 421.357371776 337.967576233 421.444452567 336.338959426 421.444452567 c 0
EndSplineSet
Validated: 524289
EndChar

StartChar: uni007F
Encoding: 127 127 79
Width: 1000
Flags: H
LayerCount: 2
Fore
SplineSet
845 475.062723797 m 1
 845 488 l 1
 855 488 l 1
 855 472.937276203 l 1
 818.252692078 390.255833379 l 1
 767.20517546 333.20272657 l 1
 732.353643877 260.33134235 l 1
 723.33134235 264.646356123 l 1
 758.79482454 338.79727343 l 1
 809.747307922 395.744166621 l 1
 845 475.062723797 l 1
677.555131148 328.794060317 m 0
 677.555131148 322.6124589 674.332289606 320.736384258 668.670203913 317.440381257 c 1
 664.238098363 323.350480166 662.748006547 325.337479329 661.289274767 328.397235978 c 1
 660.236262711 326.291211866 l 1
 651.291211866 330.763737289 l 1
 660.058474129 348.298261814 l 1
 662.418999275 350.055824842 663.287310407 350.702338414 665.497301948 350.702338414 c 0
 665.760847932 350.702338414 670.248699348 350.625810199 671.374446525 345.43322881 c 0
 671.405577987 345.417325429 674.107691542 344.023110612 674.439115664 343.751367349 c 2
 719.378861167 358.99213899 l 1
 677.813546209 334.260942057 677.813546209 334.260942057 677.175805837 333.910558398 c 0
 677.174906026 332.600718934 677.555131148 330.839925124 677.555131148 328.794060317 c 0
668.789413234 445.553805162 m 1
 661.115585692 483.922942872 l 1
 670.922942872 485.884414308 l 1
 672.19163939 479.540931717 l 1
 679.325773816 477.162886908 l 1
 668.789413234 445.553805162 l 1
383.566783871 112.088950772 m 0
 384.158032804 112.088950772 389.369538144 111.578943142 389.369538144 106.663456104 c 0
 389.369538144 102.432948664 387.614536726 101.215508606 363.212702021 84.2880174098 c 1
 361.77732228 94.1674778758 361.77732228 94.1674778758 361.77732228 96.0741940947 c 0
 361.77732228 107.119778809 367.765868562 114.666200215 375.19157755 124.023651362 c 1
 383.023651362 117.80842245 l 1
 378.672077995 112.324820109 378.672077995 112.324820109 377.649736234 110.8865184 c 1
 379.967427925 111.664138627 381.693603791 112.088950772 383.566783871 112.088950772 c 0
537.010568068 517.648373135 m 0
 537.010568068 517.076692304 537.00691209 516.505421657 536.999580248 515.934608389 c 2
 536.999580248 515.627944376 l 1
 527.323528606 450.274394593 467.764900747 429.69201133 396.967461427 417.925343982 c 1
 390.184324832 419.141832322 378.984025887 422.10500855 372 439.686635805 c 1
 372 351.066947992 l 1
 375.129834582 232.133233858 l 1
 365.133233858 231.870165418 l 1
 365.001757966 236.866249314 l 1
 365.001757966 236.866249314 362 350.866237761 362 351 c 0
 362 508.292541581 362 508.292541581 362 508.292541581 c 1
 373.54320648 476.657035532 373.54320648 476.657035532 375.955725559 464.353531588 c 0
 379.447482306 446.54606923 383.085248856 431.137237082 397.076200719 428.082456813 c 1
 452.29103737 437.326452634 518.46910401 454.693543892 527.003985441 516.373030533 c 0
 527.003985441 516.797783866 527.010568068 517.222907027 527.010568068 517.648373135 c 0
 527.010568068 579.202754046 481.484045475 645.723518604 417.977809959 646.000048304 c 2
 417.616388107 646.000048304 l 2
 411.982136918 646.86075099 405.039113126 647.538909012 397.525742926 647.538909012 c 0
 306.63900081 647.538909012 250.475483805 549.020143076 224.758793517 469.462596096 c 2
 223.220360541 464.703276276 l 1
 213.703276276 467.779639459 l 1
 235.933276764 536.550709465 290.281412682 657.538909012 397.525742926 657.538909012 c 0
 404.307179579 657.538908897 411.260885311 657.037490073 418.38507601 655.9977395 c 0
 489.187973552 655.442691294 537.010568068 582.80141182 537.010568068 517.648373135 c 0
EndSplineSet
Validated: 524289
EndChar

StartChar: space
Encoding: 32 32 80
Width: 1000
LayerCount: 2
Fore
SplineSet
701.288723712 545.365894717 m 0
 701.288723712 542.825606189 713.320487903 541.745202113 718.751550483 539.248945515 c 0
 728.678101249 541.234186973 738.985989047 543.413872393 749.454997153 545.88240043 c 1
 757.8259315 601.788074074 822.653028693 631.293164023 874.463070844 637.236344673 c 1
 684.664273167 941.411668355 594.362685673 1087.73656641 587.951672857 1101.23059551 c 0
 587.636820667 1101.89330275 587.119751368 1101.93820018 587.119751368 1104.29338847 c 0
 587.119751368 1104.93542533 588.039512314 1109.35376609 592.157897171 1109.35376609 c 0
 595.392142175 1109.35376609 595.539426047 1109.35376609 610.834862803 1086.39312234 c 0
 640.744334407 1041.49471683 640.744334407 1041.49471683 903.198582881 633.383457241 c 1
 906.915779564 639.586050203 l 1
 994.06210114 499.797914944 1037.76395971 428.951842993 1041.02241211 421.819855503 c 0
 1041.21514367 421.398011368 1041.63899857 421.389223067 1041.63899857 419.279143607 c 0
 1041.63899857 418.647454657 1040.71988794 414.240076523 1036.61428186 414.240076523 c 0
 1033.4205538 414.240076523 1033.24282799 414.507943289 1020.7712582 433.304982875 c 0
 1002.03728817 461.540656691 962.435780478 522.806474323 902.992042542 615.217891856 c 1
 869.919249098 571.961053129 812.024023549 550.773386335 758.672284835 537.748457957 c 0
 758.591586973 536.370104526 758.550639731 534.976757956 758.550639731 533.56846866 c 0
 758.550639853 531.075845244 758.67537498 528.525516408 758.933099496 525.916406085 c 0
 767.449605857 494.603917239 782.758306756 458.645366833 816.956982017 455.029839083 c 1
 872.381909576 461.550418796 l 1
 873.550418796 451.618090424 l 1
 817.055507644 444.971630289 l 1
 777.317822112 448.767800372 759.634840925 485.020086287 749.068300415 524.079470238 c 0
 748.670747646 527.913267575 748.550639731 530.739618543 748.550639731 533.56846866 c 0
 748.550639731 534.168980752 748.556857402 534.766798574 748.569221932 535.361925022 c 1
 738.447187486 533.046691286 729.400092648 531.166107912 717.072244675 528.717203956 c 1
 714.556890742 530.239443005 713.861209823 530.660454397 707.978836773 531.963973712 c 0
 703.036521712 533.059178503 691.288723712 534.690692323 691.288723712 545.365894717 c 0
 691.288723712 547.680605677 691.288723712 547.680605677 696.837113092 564.325773816 c 1
 706.325773816 561.162886908 l 1
 701.288723712 546.049540041 701.288723712 546.049540041 701.288723712 545.365894717 c 0
897.205103369 624.215152806 m 1
 885.215832349 642.857236202 885.215832349 642.857236202 802.367186123 771.784860745 c 1
 830.640285071 726.384670813 857.443499425 683.398361255 891.652187271 628.579229544 c 1
 883.345143236 628.011750084 l 2
 832.964465371 624.570092585 770.843493697 597.178082407 760.152527363 548.497060893 c 1
 812.79981528 561.843692136 867.598536574 583.175996526 897.205103369 624.215152806 c 1
620.3843757 597.2077761 m 0
 604.470381516 579.324253216 603.705655322 551.035154663 602.9981452 524.862619037 c 0
 603.000530667 524.24519708 602.280476357 520.38728532 602.280476357 515.142656711 c 0
 602.280476357 483.241446695 629.729326113 474.857620061 661.46752786 465.626200542 c 0
 666.195490676 464.251018401 670.941424829 462.871437024 675.593322279 461.387317918 c 1
 683.795610435 465.488461996 l 1
 690.565315949 489.182431293 l 1
 700.182431293 486.434684051 l 1
 692.204389565 458.511538004 l 1
 676.395977443 450.607331943 l 1
 670.835710121 452.430180904 668.815612677 453.072473785 658.673255589 456.022494519 c 0
 628.519319679 464.793112173 592.280476357 474.933580573 592.279741902 515.140965443 c 0
 592.279741902 518.334149465 592.971693409 523.944084106 593.072561001 527.820074625 c 0
 593.716955027 552.581894181 594.120526311 585.575350278 615.497708922 606.567095411 c 2
 621.670072788 612.628169571 l 1
 622.925800163 607.784691928 l 2
 623.851386952 608.010228997 624.945481103 608.236673866 626.335508137 608.236673866 c 0
 628.886109582 608.236673866 633.234676057 605.98642461 633.234676057 601.498438736 c 0
 633.234676057 600.203214109 633.234676057 600.203214109 631.525373124 593.868852243 c 1
 621.868852243 596.474626876 l 1
 622.100991611 597.334892619 l 1
 621.591952077 597.25873642 621.027209829 597.2077761 620.3843757 597.2077761 c 0
384.432152859 482.199411205 m 0
 419.842587522 482.199411205 412.792067825 557.364585102 439.476665497 557.364585102 c 0
 444.846379059 557.364585102 449.193096764 554.282716384 451.472977207 552.666257093 c 2
 524.023425629 461.189604735 l 1
 516.189604735 454.976574371 l 1
 444.548547898 545.306602557 l 2
 442.069875787 546.958642227 440.388860686 547.364585102 439.476665497 547.364585102 c 0
 434.594126057 547.364585102 430.5773407 534.942054775 426.627919772 522.237764761 c 0
 420.348317801 502.037870632 411.943625821 472.199411205 384.432152859 472.199411205 c 0
 379.739838373 472.199411221 374.703584492 473.103382709 369.244893858 474.966320731 c 0
 368.828531835 474.954661825 368.410377808 474.948889111 367.990607359 474.948889111 c 0
 348.807822106 474.948889111 321.579024266 487.479059015 321.572768347 510.79320563 c 0
 321.572768347 511.096077999 322.098054277 516.910120232 322.99187308 519.772723692 c 0
 322.99187308 519.817614264 322.991707022 519.862494531 322.991707022 519.90736456 c 0
 322.991707022 559.953130693 365.752000986 588.515104882 402.797197725 589.995953631 c 2
 403.043305219 590.005791559 l 1
 403.288818922 589.991780698 l 2
 409.751933716 589.6229467 429.883599667 588.439657552 446.944694859 584.547894105 c 0
 459.142688749 581.765440446 474.982618033 577.266010415 474.982618033 564.854307198 c 0
 474.982618033 561.83164781 474.544559654 560.941598683 471.278372059 554.305342979 c 1
 462.305342979 558.721627941 l 1
 464.982618033 564.161328306 464.982618033 564.161328306 464.982618033 564.854307198 c 0
 464.982618033 566.74922939 457.271921892 576.871806084 402.960592622 579.993934602 c 0
 369.399013399 578.533174455 332.991707022 552.216500974 332.991707022 519.90736456 c 0
 332.991707022 519.63654678 332.994179507 519.365076547 332.999151414 519.092956647 c 2
 333.015233741 518.212746906 l 2
 332.381343498 516.353626628 331.579024266 514.000525327 331.579024266 510.803459688 c 0
 331.579024266 496.503923394 351.037977535 484.948889111 367.990607359 484.948889111 c 0
 368.726344852 484.948889111 368.889881328 484.949425147 370.744431483 485.045232564 c 0
 373.528081975 484.048681978 378.693623562 482.199411205 384.432152859 482.199411205 c 0
278.547672388 696.506696937 m 0
 278.547672388 700.926850862 274.308429573 706.220881295 274.308429573 713.171838254 c 0
 274.308429573 716.054135302 274.520562111 716.622115683 277.064898296 723.434521961 c 1
 286.434521961 719.935101704 l 1
 284.308429573 714.242534337 284.308429573 714.242534337 284.308429573 713.171838254 c 0
 284.308429573 708.916230155 288.546476504 703.541781336 288.549411829 696.508503903 c 0
 288.549411829 696.372202766 288.36318458 693.669877168 288.009822466 692.32279782 c 0
 288.020343507 691.448187274 288.025495595 690.574557629 288.025495595 689.701895457 c 0
 288.025495595 684.873767865 287.868659935 680.076952515 287.590729483 675.307593741 c 1
 290.780924504 678.387489795 297.350782996 684.730199602 313.086511961 689.225778818 c 1
 314.531469057 688.760707814 l 2
 349.497761507 677.50652678 363.175718202 636.531051465 363.175718202 603.328361973 c 0
 363.175718202 601.096703234 363.114135236 598.889611337 362.992037035 596.715708673 c 0
 362.775622358 586.612261692 345.652047662 564.812448851 324.721720937 564.812448851 c 0
 323.722037421 564.812448853 322.723990727 564.870088921 321.73185164 564.99166841 c 0
 318.037283231 564.898628717 317.701499839 564.89017274 316.877512735 564.89017274 c 0
 316.56461726 564.931780971 304.881867718 568.468409363 304.768789775 568.524948334 c 0
 282.291211866 579.763737289 282.291211866 579.763737289 282.291211866 579.763737289 c 1
 286.763737289 588.708788134 l 1
 308.679094027 577.751109765 l 1
 313.335107886 576.714485137 315.773936409 575.865426773 317.321142029 574.893338446 c 0
 318.010745511 574.901858825 318.010745511 574.901858825 321.872915517 574.998413075 c 2
 322.294108748 575.008942906 l 2
 323.05972612 574.90021471 323.677735701 574.812448851 324.721720937 574.812448851 c 0
 335.875586857 574.812448854 350.868244179 587.094925769 353.026194543 597.61848316 c 0
 353.125432127 599.492822105 353.175718202 601.399143134 353.175718202 603.328361973 c 0
 353.175718202 634.312401774 340.258505161 668.916635955 312.905351516 678.749970019 c 1
 300.23884048 674.749170276 291.683522926 666.950068236 285.939798026 656.559603097 c 0
 285.847776982 655.751032877 276.922945296 595.561203424 275.99568062 575.790479916 c 0
 275.541104057 564.785329225 275.38219481 553.759725678 275.38219481 542.712848038 c 0
 275.38219481 534.211705109 275.38219481 534.211705109 275.9994542 492.074560988 c 2
 276.004877938 491.704310083 l 1
 271.947672691 460.997290618 270.058984396 459.33713416 265.262451479 459.33713416 c 0
 259.261370696 459.33713416 258.812966849 466.364035486 258.812966849 476.95304464 c 0
 258.812966887 515.314852967 265.010670002 515.346077775 265.010670002 553.583220532 c 0
 265.010670002 553.939961431 264.634056037 587.952720118 264.634056037 589.255322458 c 0
 264.634056049 613.725154351 266.050013448 639.941410142 276.227009936 659.760830357 c 0
 277.312599149 669.737246564 278.025495595 679.704417691 278.025495595 689.701895457 c 0
 278.025495595 690.774373037 278.017338848 691.847291341 278.000617133 692.92071915 c 2
 277.987727478 693.748153042 l 2
 278.405158636 695.047945445 278.547672388 695.491703149 278.547672388 696.506696937 c 0
80.9237104269 447.907771598 m 1
 85.1695291717 455.733423849 87.3379343023 457.467257279 90.941307135 457.467257279 c 0
 92.6930116846 457.467257279 97.0128405594 456.656032786 98.4087040738 448.925008668 c 0
 101.873622819 448.870899069 105.537654368 448.829908231 109.346575453 448.829908231 c 0
 154.463078298 448.829908231 212.03348952 454.931757824 212.03348952 501.891202238 c 0
 212.03348952 502.531570126 212.023257756 503.181172025 212.002513602 503.840100982 c 2
 211.985006325 504.396211986 l 2
 212.665431089 507.975382173 214.136489617 515.949929574 214.136489617 525.711972131 c 0
 214.136489617 608.887621244 108.089916334 630.863907714 86.0771008287 697.962666671 c 0
 85.8816207107 699.968204235 85.755001208 701.641264857 85.755001208 703.869145817 c 0
 85.755001208 743.553694475 130.644990868 745.623139653 159.888900931 747.527144708 c 0
 173.261130463 748.397779901 179.50109121 749.147800798 179.699862618 749.147800798 c 0
 187.445366053 749.147800798 190.148027973 742.438601738 191.400283441 739.498471296 c 0
 192.664415774 736.530455544 192.744436191 736.342578173 195 734.038704483 c 1
 195 721 l 1
 185 721 l 1
 185 730.193591442 l 1
 181.888502666 734.467434711 181.673871851 739.147800798 179.699862618 739.147800798 c 0
 179.487682062 739.147800798 179.191825544 739.127845756 178.811788621 739.065689531 c 0
 176.965184944 738.742537248 170.432788926 738.19213928 160.547124152 737.548505933 c 0
 128.077676509 735.434493398 95.755001208 732.476796031 95.755001208 703.869145817 c 0
 95.75500133 702.652001035 95.8103231445 701.374467675 95.9261143966 700.03503183 c 0
 116.464959543 639.175765746 224.133850361 614.022393475 224.140291237 525.718692998 c 0
 224.140291237 525.198683902 223.397572667 511.042115415 222.013003522 503.599081874 c 0
 222.026675872 503.025651448 222.03348952 502.456372442 222.03348952 501.891202238 c 0
 222.03348952 443.47312541 151.904172793 438.829908231 109.346575453 438.829908231 c 0
 103.231749175 438.829908231 98.7657273395 438.911779266 89.4662983042 439.082256238 c 1
 89.1637006398 442.109687679 l 1
 84.3447131584 433.265882584 82.9235359617 430.657738409 78.4711469769 430.657738409 c 0
 71.3946176686 430.657738409 71.1581087209 440.412070597 71.0079585201 446.604711299 c 2
 64.382487366 496.295744955 l 1
 74.2957449554 497.617512634 l 1
 80.9237104269 447.907771598 l 1
EndSplineSet
Validated: 35
EndChar

StartChar: exclam
Encoding: 33 33 81
Width: 1000
LayerCount: 2
Fore
SplineSet
440 244 m 1
 440 266 l 1
 450 266 l 1
 450 244 l 1
 440 244 l 1
494.832833571 701.71374366 m 1
 504.71374366 700.167166429 l 1
 449.167166429 345.28625634 l 1
 439.28625634 346.832833571 l 1
 494.832833571 701.71374366 l 1
EndSplineSet
Validated: 3
EndChar

StartChar: quotedbl
Encoding: 34 34 82
Width: 1000
LayerCount: 2
Fore
SplineSet
174.6146212 675.040656571 m 1
 184.040656571 678.3853788 l 1
 197.306436146 641 l 1
 201 641 l 1
 201 630.590865501 l 1
 220.3853788 575.959343429 l 1
 218.507182608 575.292886715 l 1
 223.325773816 560.837113092 l 1
 213.837113092 557.674226184 l 1
 191 626.18556546 l 1
 191 627 l 1
 191 628.863679953 l 1
 174.6146212 675.040656571 l 1
207.591143691 671.990799611 m 1
 216.990799611 675.408856309 l 1
 244.408856309 600.009200389 l 1
 235.009200389 596.591143691 l 1
 207.591143691 671.990799611 l 1
EndSplineSet
Validated: 3
EndChar

StartChar: numbersign
Encoding: 35 35 83
Width: 1000
LayerCount: 2
Fore
SplineSet
484.998891285 105.012097786 m 0
 484.998891285 111.935521443 493.061144309 113.702341039 521.60833373 113.702341039 c 0
 529.486414433 113.702341039 539.001637064 113.537375461 550.395552159 113.185824275 c 1
 541.380932282 194.673620063 532.156023344 277.549314611 518.823754738 359.93954029 c 1
 401.205183162 363.673463198 l 1
 404.979819626 333.476371486 l 1
 411.311705695 235.332137419 l 1
 401.332137419 234.688294305 l 1
 395.020180374 332.523628514 l 1
 391.086296727 363.994697688 l 1
 390.421927455 364.015788776 l 1
 190.115585692 404.077057128 l 1
 192.077057128 413.884414308 l 1
 389.792980227 374.341229688 l 1
 378.738842018 462.774335355 l 1
 335.776243252 466.079150645 l 1
 192.420088415 528.407913618 l 1
 196.407913618 537.579911585 l 1
 338.223756748 475.920849355 l 1
 377.472923604 472.901682674 l 1
 361.417932977 601.341607684 l 1
 371.341607684 602.582067023 l 1
 387.649507496 472.118868528 l 1
 499.529108814 463.51274535 l 1
 493.438850343 491.96522484 486.650781251 520.26306557 479 548.32699743 c 1
 479 560 l 1
 489 560 l 1
 489 549.672405298 l 1
 496.841258642 520.856353685 503.764947392 491.888559984 509.965159083 462.709972252 c 1
 810.368983394 439.601985767 l 1
 809.601985767 429.631016606 l 1
 512.100428022 452.515751817 l 1
 517.758787277 425.109048142 522.800901053 397.510966759 527.386785154 369.672823522 c 1
 585.156177799 367.83887455 l 1
 584.83887455 357.843822201 l 1
 529.022261727 359.615778164 l 1
 542.346753466 276.616202962 551.803028181 191.439719772 561.60549232 102.804112885 c 1
 539.333287338 103.570468325 530.838523736 103.702341039 521.60833373 103.702341039 c 0
 514.610701017 103.702341039 508.947117964 103.495995498 504.575978751 103.213866232 c 1
 525.348079556 96.4461028907 555.337445511 89.8633011886 564.46641869 84.4565944094 c 0
 565.650788317 83.7551421032 568.907958886 82.3271179035 568.907958886 78.0705099326 c 0
 568.907958886 70.9353901925 560.61412468 70.5223259725 545.254805085 69.7573739358 c 1
 544.757373936 79.7451949148 l 1
 548.801966557 79.9466308797 l 1
 548.209953561 80.1358853004 496.888791304 94.1002157294 489.492358078 98.5298643499 c 0
 488.236796353 99.2818074951 484.998891285 100.76853801 484.998891285 105.012097786 c 0
501.680514727 453.317283609 m 1
 388.915425911 461.99152121 l 1
 399.949559847 373.718449723 l 1
 517.175185153 369.9970013 l 1
 512.548967825 397.858919577 507.434392645 425.656534006 501.680514727 453.317283609 c 1
EndSplineSet
Validated: 35
EndChar

StartChar: dollar
Encoding: 36 36 84
Width: 1020
Flags: HW
LayerCount: 2
Fore
SplineSet
379.509227121 562.635742188 m 0
 379.509227121 594.203125 380.147622746 626.080078125 380.147622746 657.810546875 c 0
 380.147622746 673.063476562 379.948629173 686.208984375 379.587006335 697.809570312 c 1
 304.688653816 693.881835938 235.325757031 640.2265625 235.325757031 569.764648438 c 0
 235.325757031 566.022460938 235.47727498 562.545898438 235.92273775 557.881835938 c 0
 235.213633749 552.959960938 233.969166328 543.611328125 233.969166328 531.787109375 c 0
 233.969166328 451.161132812 291.395479096 396.705078125 349.907670497 341.844726562 c 1
 365.41704775 393.78515625 376.632406331 446.736328125 380.691067123 501.072265625 c 0
 379.782969549 521.390625 379.509227121 541.954101562 379.509227121 562.635742188 c 0
346.532860714 330.771484375 m 1
 285.754970916 387.915039062 223.625541014 445.712890625 223.625541014 531.787109375 c 0
 223.625541014 540.30078125 224.236663408 549.071289062 225.513454658 558.120117188 c 0
 225.156882418 562.041015625 224.982131717 565.924804688 224.982131717 569.764648438 c 0
 224.982131717 646.794921875 299.867352681 703.725585938 379.265788283 707.806640625 c 1
 378.20718288 736.682617188 376.27785433 756.737304688 373.936396959 776.428710938 c 1
 373.936396959 771.461914062 384.212344256 772.604492188 384.212344256 777.571289062 c 1
 387.187146654 752.5546875 388.791216673 730.23828125 389.63062611 708.037109375 c 0
 390.458924231 708.03125 391.287222352 708.018554688 392.115520473 708.000976562 c 0
 393.235743175 708.009765625 394.357986117 708.014648438 395.482249298 708.014648438 c 0
 446.78218633 708.014648438 563.159179688 697.868164062 629.014648438 610.603515625 c 1
 628.583984375 595.903320312 628.142578125 580.845703125 613.899414062 580.845703125 c 0
 612.592773438 580.845703125 612.592773438 580.845703125 606.266601562 581.866210938 c 1
 606.266601562 576.922851562 607.771484375 586.809570312 607.771484375 591.752929688 c 1
 613.357421875 590.845703125 613.357421875 590.845703125 613.899414062 590.845703125 c 0
 617.374023438 590.845703125 618.639648438 596.890625 618.916015625 607.39453125 c 1
 568.85546875 672.397460938 478.447417419 698.014648438 395.482249298 698.014648438 c 0
 394.361016476 698.014648438 393.241803893 698.009765625 391.954911447 698.001953125 c 0
 391.289242591 698.016601562 390.624583855 698.02734375 389.959925119 698.034179688 c 1
 390.37205394 684.955078125 390.49124806 671.76953125 390.49124806 657.810546875 c 0
 390.49124806 626.009765625 389.852852435 594.1328125 389.852852435 562.635742188 c 0
 389.852852435 541.942382812 390.128615102 521.426757812 391.038732916 501.220703125 c 2
 391.051864471 500.928710938 l 1
 391.029641839 500.637695312 l 2
 386.819463098 443.913085938 373.411134736 389.935546875 355.644140044 336.465820312 c 1
 405.646073313 289.546875 455.098501487 241.69921875 468.864412208 176.348632812 c 1
 461.419830317 164.034179688 449.119603222 152.98828125 411.265368979 152.98828125 c 0
 395.843872136 152.98828125 379.812263019 154.93359375 366.116050555 154.93359375 c 0
 344.742928677 154.93359375 344.31968854 150.366210938 339.756978038 150 c 0
 333.217463361 149.48828125 326.726434429 149.241210938 320.28490136 149.241210938 c 0
 307.649314538 149.241210938 295.222822486 150.1953125 283.024617477 151.948242188 c 1
 276.330554492 133.486328125 269.765786825 114.802734375 263.479812183 95.8251953125 c 2
 263.479812183 97.4013671875 212.225330536 -41.98046875 212.225330536 -46.6123046875 c 1
 212.225330536 -41.87890625 202.616210938 -38.65625 202.616210938 -43.3896484375 c 1
 253.959434392 100.2109375 253.959434392 100.2109375 256.93120643 106.823242188 c 0
 263.278798371 122.193359375 269.641542107 137.602539062 275.948729261 153.05859375 c 1
 202.033203125 165.215820312 138.754882812 205.192382812 88 238.76953125 c 1
 93.7314453125 246.962890625 l 1
 144.743164062 213.24609375 207.608398438 173.858398438 280.067997233 162.541992188 c 1
 304.699765132 217.743164062 328.250704995 273.642578125 346.532860714 330.771484375 c 1
351.986496756 325.640625 m 1
 332.803314301 271.391601562 309.207929173 217.5234375 286.742867944 161.546875 c 1
 297.76226331 160.049804688 308.94832842 159.241210938 320.28490136 159.241210938 c 0
 320.510158044 159.25 331.931581035 159.451171875 337.816538172 159.883789062 c 0
 345.937900235 164.001953125 355.763334163 164.93359375 366.116050555 164.93359375 c 0
 380.341565721 164.93359375 396.315598017 162.98828125 411.265368979 162.98828125 c 0
 432.24353407 162.98828125 449.18425088 165.750976562 458.013706825 177.692382812 c 1
 445.046800755 235.981445312 399.515657099 280.864257812 351.986496756 325.640625 c 1
EndSplineSet
Validated: 524325
EndChar

StartChar: percent
Encoding: 37 37 85
Width: 1020
Flags: HW
LayerCount: 2
Fore
SplineSet
519.251707012 397.799804688 m 1
 528.929635656 402.837890625 l 1
 568.193359375 342.181640625 l 1
 569.247070312 342.708984375 l 1
 569.247070312 342.708984375 577.485351562 333.857421875 577.485351562 330.631835938 c 1
 577.485351562 335.032226562 568.688476562 330.287109375 568.688476562 325.88671875 c 1
 568.688476562 330.033203125 519.251707012 397.799804688 519.251707012 397.799804688 c 1
421.895507812 479.077148438 m 1
 382.087890625 471.115234375 l 1
 380.125976562 480.922851562 l 1
 419.93359375 488.884765625 l 1
 421.895507812 479.077148438 l 1
677.221679688 627.118164062 m 1
 677.221679688 623.209960938 685.036132812 616.97265625 685.036132812 620.880859375 c 1
 685.036132812 617.059570312 422.975585938 315.124023438 422.975585938 312.07421875 c 2
 422.920898438 312.00390625 362.975585938 234.00390625 362.975585938 234.00390625 c 1
 362.975585938 236.349609375 359.924804688 234.001953125 359.924804688 230.952148438 c 1
 359.924804688 234.915039062 352 241.01171875 352 237.048828125 c 1
 352 240.970703125 415.045898438 321.25 415.045898438 318.163085938 c 1
 415.045898438 321.212890625 677.221679688 623.296875 677.221679688 627.118164062 c 1
EndSplineSet
Validated: 524325
EndChar

StartChar: ampersand
Encoding: 38 38 86
Width: 1000
LayerCount: 2
Fore
SplineSet
428.814982056 276.220187933 m 0
 428.814982984 232.710952853 471.076920244 217.185167335 501.308288954 217.185167335 c 0
 505.026837643 217.185167432 508.73223239 217.402125129 512.376825082 217.836660736 c 0
 529.448045248 227.925766661 557.375251671 257.939845461 566.546002967 281.288261629 c 1
 536.536195905 303.702846873 510.616101278 331.076503062 490.722486199 362.804442379 c 1
 456.241140411 341.355031919 428.814982056 318.164193451 428.814982056 276.220187933 c 0
501.308288954 207.185167335 m 0
 466.551593173 207.185167335 418.814982056 225.983156106 418.814982056 276.220187933 c 0
 418.814982056 323.57913585 450.263288284 349.492192532 485.549917947 371.388430566 c 1
 473.1332735 392.84779534 464.325434432 414.38586729 457.936284675 437.550467181 c 1
 462.470474431 486.281253882 501.979916898 526.602292187 550.26714594 530.031754339 c 1
 588.543680609 523.21857715 597.000360835 475.800093861 597.000360835 453.266863066 c 0
 597.000360835 453.173213621 597.000234287 453.079660247 596.999981331 452.986204093 c 2
 596.999981331 451.886308319 l 1
 580.461704521 416.555604123 550.638330569 398.243890223 511.416287363 375.202549964 c 0
 507.316899452 372.794327853 503.256813496 370.405778477 499.265006065 368.012703585 c 1
 517.6827946 338.66424897 541.473243865 313.126415376 569.029402345 291.941176532 c 1
 569.175036125 296.16921117 l 1
 579.16921117 295.824963875 l 1
 578.91873957 288.553281415 578.903170247 288.101273382 578.267491048 285.101639697 c 0
 608.632151001 263.4568768 643.109104598 246.868064814 679.727231648 236 c 1
 693 236 l 1
 693 226 l 1
 678.275291673 226 l 1
 659.175258746 231.627399582 618.177675975 245.009388804 575.009116762 275.173659837 c 1
 565.516552782 253.100526935 537.509556205 220.530154142 516.452716723 208.642756741 c 0
 514.43725048 207.287866054 501.621506364 207.185167335 501.308288954 207.185167335 c 0
586.996572878 454.11601876 m 1
 586.753581133 481.43277847 574.806109921 515.005393562 549.719645893 519.964701287 c 1
 507.556186662 516.626024744 472.372402486 479.764552696 468.067908474 438.44030317 c 1
 474.230371264 416.393790592 483.045819897 395.729898841 494.100020138 376.58833674 c 1
 498.179804631 379.028121876 502.280767945 381.433751174 506.361788349 383.831183129 c 0
 539.484980029 403.289696878 571.867598175 422.618629222 586.996572878 454.11601876 c 1
EndSplineSet
Validated: 35
EndChar

StartChar: quotesingle
Encoding: 39 39 87
Width: 1000
LayerCount: 2
Fore
SplineSet
488 691.047631797 m 1
 488 704 l 1
 498 704 l 1
 498 688.952368203 l 1
 474.577051814 635.414200921 l 1
 465.414200921 639.422948186 l 1
 488 691.047631797 l 1
EndSplineSet
Validated: 3
EndChar

StartChar: parenleft
Encoding: 40 40 88
Width: 1000
LayerCount: 2
Fore
SplineSet
330.397071685 458.384847947 m 0
 330.397071685 446.988332716 331.32274909 436.746302467 333.041505348 426.151010902 c 1
 331.942902531 415.352167614 331.503949728 405.835033626 331.503949728 396.023176524 c 0
 331.503949728 320.770805998 359.423848766 240.75439645 406.774756625 186.277550465 c 2
 410.052563606 182.506459389 l 1
 402.506459389 175.947436394 l 1
 399.225243375 179.722449535 l 2
 350.031746999 236.319179074 321.503949728 318.404778328 321.503949728 396.023176524 c 0
 321.503951768 406.059779936 321.982641974 416.02325152 322.959387306 425.850143758 c 0
 321.22590429 436.758161807 320.397071685 447.62382893 320.397071685 458.384847947 c 0
 320.397071685 526.141627306 353.172980064 589.397220566 399.550928402 633.618592374 c 2
 403.168235525 637.067694565 l 1
 410.067694565 629.831764475 l 1
 406.449071598 626.381407626 l 2
 361.756576439 583.767115354 330.397071685 522.867963362 330.397071685 458.384847947 c 0
EndSplineSet
Validated: 35
EndChar

StartChar: parenright
Encoding: 41 41 89
Width: 1000
LayerCount: 2
Fore
SplineSet
597.00706109 350.17453886 m 0
 597.00706109 349.43896207 597.004630812 348.775598369 596.999847556 348.039415497 c 0
 597.001867837 347.77831436 597.002874664 347.517671612 597.002874664 347.257485107 c 0
 597.002874664 293.060275898 554.339952343 262.527494588 532.966179769 218.725407278 c 1
 516.000123592 206.000865145 l 1
 510.000865145 213.999876408 l 1
 525.043096337 225.281549802 l 1
 545.945278827 267.194852277 587.002874664 297.636776712 587.002874664 347.257485107 c 0
 587.002874664 347.491365722 587.001969636 347.725730649 587.000152444 347.960584503 c 0
 587.004792162 348.674675518 587.00706109 349.461006943 587.00706109 350.17453886 c 0
 587.00706109 473.447928337 517.524450858 575.805961797 489.032890501 616.204168839 c 1
 497.204168839 621.967109499 l 1
 526.551219931 580.355901434 597.00706109 476.376702591 597.00706109 350.17453886 c 0
EndSplineSet
Validated: 35
EndChar

StartChar: asterisk
Encoding: 42 42 90
Width: 1000
LayerCount: 2
Fore
SplineSet
434.93031875 687 m 1
 442 694.06968125 l 1
 469.226644859 666.843036391 l 1
 477.077398413 672.949178044 l 1
 486.456460183 708.120659684 l 1
 496.120659684 705.543539817 l 1
 490.137615682 683.107124809 l 1
 511.876935592 700.01548474 l 1
 518.01548474 692.123064408 l 1
 485.875872615 667.125588311 l 1
 483.429631493 657.9521841 l 1
 543.175328411 655.81840921 l 1
 542.81840921 645.824671589 l 1
 488.297846715 647.771834535 l 1
 496.081241124 639.988440126 l 1
 550.844804939 607.774579058 l 1
 545.774579058 599.155195061 l 1
 489.918758876 632.011559874 l 1
 479.869914214 642.060404536 l 1
 466.824382809 582.050960075 l 1
 457.050960075 584.175617191 l 1
 471.010443683 648.389241786 l 1
 462.191247325 648.704213085 l 1
 402.123064408 601.98451526 l 1
 395.98451526 609.876935592 l 1
 447.693030375 650.09466957 l 1
 400.163329361 659.00648851 l 1
 402.00648851 668.836670639 l 1
 454.557660298 658.983325929 l 1
 458.920947797 658.827494232 l 1
 461.273253453 660.657065297 l 1
 434.93031875 687 l 1
EndSplineSet
Validated: 3
EndChar

StartChar: plus
Encoding: 43 43 91
Width: 1000
LayerCount: 2
Fore
SplineSet
578.082399938 456.912190204 m 1
 593.88948776 551.754717135 l 1
 603.754717135 550.11051224 l 1
 602.93185171 545.17331969 l 1
 602.93185171 545.17331969 587.934816762 455.172745519 587.900390434 455.002908966 c 2
 580.389047529 417.946950637 l 1
 606.098618241 415.390600368 632.338349334 408.919077115 677.199600944 397.854915219 c 2
 682.052932619 396.65793463 l 1
 679.65793463 386.947067381 l 1
 630.10431377 399.168511591 603.720944117 405.675460522 578.392725632 408.098429278 c 1
 541.907653078 228.105404679 l 1
 532.105404679 230.092346922 l 1
 568.339994357 408.849656001 l 1
 563.651940364 409.102240416 558.900301325 409.223428631 553.946623698 409.223428631 c 0
 551.280014904 409.223428631 548.611007235 409.175369377 545.938909578 409.075868342 c 0
 526.095120707 393.559610195 460.112693787 411.053117484 443.076925581 387.106247234 c 2
 440.175711639 383.028063438 l 1
 432.028063438 388.824288361 l 1
 434.923074419 392.893752766 l 2
 448.22038502 411.585540998 478.077858913 411.21753099 501.856769046 411.658508724 c 0
 520.659203141 412.007198161 535.937317621 413.200871158 540.543229264 417.611235693 c 0
 541.262578799 418.428476051 542.004253596 419.223391146 543.769465816 418.994768819 c 0
 547.171033763 419.149455079 550.563244303 419.223428631 553.946623698 419.223428631 c 0
 559.596408418 419.223428631 565.010068691 419.066635409 570.346234779 418.747108752 c 1
 578.082399938 456.912190204 l 1
EndSplineSet
Validated: 35
EndChar

StartChar: comma
Encoding: 44 44 92
Width: 1000
LayerCount: 2
Fore
SplineSet
534.988604386 189.399215679 m 1
 544.399215679 186.011395614 l 1
 514.011395614 101.600784321 l 1
 504.600784321 104.988604386 l 1
 534.988604386 189.399215679 l 1
EndSplineSet
Validated: 3
EndChar

StartChar: hyphen
Encoding: 45 45 93
Width: 1000
LayerCount: 2
Fore
SplineSet
237.140097676 451.285024419 m 1
 242.285024419 459.859902324 l 1
 290.477749294 430.944267399 l 1
 516.198504235 421.793425983 l 1
 515.793425983 411.801495765 l 1
 287.522250706 421.055732601 l 1
 237.140097676 451.285024419 l 1
EndSplineSet
Validated: 3
EndChar

StartChar: period
Encoding: 46 46 94
Width: 1000
LayerCount: 2
Fore
SplineSet
479 100 m 1
 479 113 l 1
 489 113 l 1
 489 100 l 1
 479 100 l 1
EndSplineSet
Validated: 3
EndChar

StartChar: slash
Encoding: 47 47 95
Width: 1000
LayerCount: 2
Fore
SplineSet
699.292829173 643.034488756 m 1
 707.034488756 636.707170827 l 1
 449.481186572 321.583130508 l 1
 430.262893964 260.725203915 l 1
 420.725203915 263.737106036 l 1
 440.518813428 326.416869492 l 1
 699.292829173 643.034488756 l 1
EndSplineSet
Validated: 3
EndChar

StartChar: uni001F
Encoding: 31 31 96
Width: 1000
LayerCount: 2
Fore
SplineSet
732.220739398 499.151322374 m 0
 732.220739398 498.806576012 732.179352592 496.968455891 731.331609363 495.502419933 c 0
 698.911932229 439.437787637 693.206867982 369.473722856 659.41121111 312.635572663 c 0
 593.468853915 201.73251738 593.468853915 201.73251738 593.468853915 201.73251738 c 1
 582.626512087 176.433719782 l 1
 573.433719782 180.373487913 l 1
 584.531146085 206.26748262 l 1
 650.64364401 317.456683676 l 1
 681.028003274 374.043385941 689.293560033 441.652464383 721.636179935 498.694887771 c 0
 720.677228368 499.431902957 718.215209437 501.348033703 718.215209437 505.039849481 c 0
 718.215209437 507.552291349 718.579611589 508.052007246 722.90618089 513.985165011 c 1
 730.985165011 508.09381911 l 1
 729.10299394 505.512739939 l 1
 730.303124983 504.483229385 732.220739398 502.463516394 732.220739398 499.151322374 c 0
444.000123592 224.000865145 m 1
 429.000865145 243.999876408 l 1
 436.999876408 249.999134855 l 1
 451.999134855 230.000123592 l 1
 444.000123592 224.000865145 l 1
468.600728051 562.25408476 m 0
 468.600728051 560.399406918 468.347182838 558.504964662 467.807164162 556.62125626 c 1
 458.105327206 559.024890006 l 2
 458.148581344 559.232187517 458.160420072 559.385936967 458.160420072 559.513160401 c 0
 458.160420072 561.347846947 455.056366041 564.019370121 454.403588111 568.376797306 c 1
 453.103556391 568.006524153 453.085804658 568.001468131 447.966622421 562.930396938 c 1
 440.930396938 570.033377579 l 1
 446.612922455 575.662497644 449.459078754 578.481905228 455.08840077 578.481905228 c 0
 455.746561499 578.481905228 456.381432161 578.434035537 456.99284637 578.342324935 c 2
 457.613778239 579.657108554 l 1
 466.657108554 575.386221761 l 1
 465.440525849 572.810185498 l 1
 467.532315075 569.74899733 468.600728051 565.866794002 468.600728051 562.25408476 c 0
EndSplineSet
Validated: 3
EndChar

StartChar: uni001E
Encoding: 30 30 97
Width: 1000
LayerCount: 2
Fore
SplineSet
626.674613835 275.545923775 m 1
 760.646356123 555.66865765 l 1
 769.66865765 551.353643877 l 1
 635.325386165 270.454076225 l 1
 602.162360055 224.025839671 l 1
 594.025839671 229.837639945 l 1
 626.674613835 275.545923775 l 1
392.120847672 226.5372056 m 0
 389.876370376 226.5372056 385.326171563 226.5372056 385.326171563 241.923060623 c 0
 385.326171563 245.767715768 386.079346814 250.194492514 388.663659988 253.991208121 c 1
 387.066690849 256.38666183 l 1
 395.38666183 261.933309151 l 1
 396.675534598 260 l 1
 411 260 l 1
 411 250 l 1
 403.341629252 250 l 1
 403.839154156 249.25381952 404.163234914 248.768449525 404.163234914 248.768449525 c 2
 405.133075629 247.243853892 405.414650546 245.602936407 405.414650546 244.311563376 c 0
 405.414650546 239.782289561 403.007172021 235.694478389 400.653306975 232.461107554 c 0
 399.076376881 230.294968172 396.981775969 226.5372056 392.120847672 226.5372056 c 0
362 586 m 1
 362 608 l 1
 372 608 l 1
 372 604.342201265 l 1
 382.514214346 611.351677495 l 1
 384.401200481 601.343356604 384.401200481 601.343356604 384.401200481 599.353428713 c 0
 384.401200481 593.912429524 380.868664633 590.823052693 378.813562434 589.322278682 c 0
 377.265429831 588.191728008 377.265429831 588.191728008 375.061654517 586 c 1
 362 586 l 1
EndSplineSet
Validated: 3
EndChar

StartChar: uni001D
Encoding: 29 29 98
Width: 1000
LayerCount: 2
Fore
SplineSet
273.375772451 606.5 m 1
 264.000865145 618.999876408 l 1
 271.999876408 624.999134855 l 1
 313.996910197 569.003089803 l 1
 270.000865145 602.000123592 l 1
 273.375772451 606.5 l 1
284.689777307 313.897560597 m 0
 284.689777307 312.830057689 284.689777307 312.830057689 284.2279688 309.924145689 c 2
 285.193698388 309.624435876 l 1
 284.848816624 302.937969171 284.647727233 299.03930693 284.478301699 292.782860156 c 1
 285.297968286 293.12079676 286.305501967 293.355344193 287.564365288 293.355344193 c 0
 293.451136562 293.355344193 293.984139117 287.083420679 293.999849613 285.039148736 c 2
 294.010623204 283.637273789 l 1
 288.200541343 273.917949859 290.69881217 258.656163591 282.593315804 253.725181676 c 2
 275.528240532 249.427140344 l 1
 274.720655032 262.290109933 274.489972216 265.964353765 274.357691394 274.730497525 c 1
 270.291211866 276.763737289 l 1
 274.331078663 284.843470883 l 2
 274.39139449 291.296638966 274.593680234 297.740351076 274.902776869 304.174793045 c 0
 274.085731495 305.716208113 273.997746534 307.359802319 273.997746534 308.071170628 c 0
 273.997746534 308.656666914 274.032822699 309.198651578 274.086104719 309.703969819 c 2
 270.274650781 317.185755813 l 1
 276.813180977 320.516685979 276.813180977 320.516685979 278.63202498 320.516685979 c 0
 283.787431304 320.516685979 284.689777307 315.086973941 284.689777307 313.897560597 c 0
565.683682574 600.681673463 m 1
 574.681675901 596.316310363 l 1
 573.045227799 592.957029994 432.952483035 303.723652513 411.236262711 260.291211866 c 1
 402.291211866 264.763737289 l 1
 404.524948334 269.231210225 l 2
 416.511941835 293.204400838 416.511941835 293.204400838 565.683682574 600.681673463 c 1
EndSplineSet
Validated: 35
EndChar

StartChar: uni001C
Encoding: 28 28 99
Width: 1000
LayerCount: 2
Fore
SplineSet
467.209801814 142.460510227 m 1
 564.350230759 534.057864411 l 1
 574.057864411 531.649769241 l 1
 541.598095786 400.87157214 509.198317253 270.033384947 476.700611123 139.293125351 c 1
 462.990799611 101.591143691 l 1
 453.591143691 105.009200389 l 1
 467.209801814 142.460510227 l 1
291.686181156 200.597830481 m 0
 292.297110273 200.597830481 292.860986939 200.546593494 293.381435031 200.451116281 c 2
 318.135981668 225.205662918 l 1
 311.320544811 204.10582634 311.320544811 204.10582634 310.438325683 201.114898612 c 0
 305.089555461 182.981325394 303.736845345 182.137359824 291.865668029 175.535578034 c 1
 289.59219199 183.804860789 289.59219199 183.804860789 289.59219199 187.206537187 c 0
 289.59219199 187.250510012 289.592340204 187.294324978 289.592340204 187.337978546 c 2
 287.747182141 189.183136609 l 1
 286.084892384 188.556408162 l 1
 282.556408162 197.915107616 l 1
 289.527734877 200.543487386 289.671870619 200.597830481 291.686181156 200.597830481 c 0
297.140097676 580.285024419 m 1
 311.285024419 603.859902324 l 1
 319.859902324 598.714975581 l 1
 305.714975581 575.140097676 l 1
 297.140097676 580.285024419 l 1
EndSplineSet
Validated: 3
EndChar

StartChar: uni001B
Encoding: 27 27 100
Width: 1000
LayerCount: 2
Fore
SplineSet
497.409151857 223.269080136 m 0
 497.409151857 218.203437646 497.736803812 215.407369268 498.122813733 212.341902816 c 1
 483.785889279 176.499591682 l 1
 474.499591682 180.214110721 l 1
 487.886410542 213.681157871 l 1
 487.538565377 216.915071211 487.409151857 220.113421686 487.409151857 223.269080136 c 0
 487.409151857 223.418865415 487.645351935 236.225960553 488.15246953 238.229152928 c 0
 511.872076173 331.925241617 602.655365399 396.291534189 611 495.211942621 c 1
 611 524 l 1
 621 524 l 1
 621 494.789558491 l 1
 620.982648137 494.580882153 l 2
 612.471911976 392.229380642 521.285327671 327.408037017 497.958474171 236.206839843 c 0
 497.666552841 231.802387971 497.409151857 227.488458359 497.409151857 223.269080136 c 0
318.376301663 166.448812722 m 0
 322.27988604 166.448812722 326.869513432 163.576669147 326.869513432 158.390727339 c 0
 326.869513432 158.192497397 326.814226208 147.292356273 314.652853634 147.292356273 c 0
 313.93543147 147.292356273 308.497104293 147.449086778 306.714025405 152.149170027 c 1
 302.952262299 156.558693775 l 1
 305.228437993 158.50743096 307.404241448 160.556540383 309.559217056 162.626477653 c 0
 312.136452641 165.072720298 315.224725837 166.448812722 318.376301663 166.448812722 c 0
311.93031875 561 m 1
 325 574.06968125 l 1
 332.06968125 567 l 1
 319 553.93031875 l 1
 311.93031875 561 l 1
EndSplineSet
Validated: 3
EndChar

StartChar: uni001A
Encoding: 26 26 101
Width: 1000
LayerCount: 2
Fore
SplineSet
671.178025338 546.832404982 m 1
 679.832404982 541.821974662 l 1
 479.681561588 196.106881527 l 1
 472.63871144 167.935480934 l 1
 462.935480934 170.36128856 l 1
 470.318438412 199.893118473 l 1
 671.178025338 546.832404982 l 1
372.160420072 229.486839599 m 0
 372.160420072 223.914642923 368.279331606 220.422409211 368.279306577 218.940158166 c 0
 368.279306577 218.648622229 368.279306577 218.648622229 371.401891971 212.036746867 c 1
 363.870469746 210.926273595 363.870469746 210.926273595 363.065991806 210.926273595 c 0
 356.822610135 210.926273595 355.041487911 216.911919349 355.041487911 219.828561163 c 0
 355.041487911 221.306315158 355.041487911 221.306315158 355.622478317 225.492912739 c 1
 353.960927116 225.194822701 l 1
 352.194822701 235.039072884 l 1
 357.961972154 236.073726405 357.961972154 236.073726405 358.760203975 236.073726405 c 0
 360.760645961 236.073726405 362.231000869 235.37377712 363.298214926 234.367896176 c 1
 370.006131698 241.075812948 l 1
 372.160420072 230.751283545 372.160420072 230.751283545 372.160420072 229.486839599 c 0
338.148878903 592.214880438 m 1
 342.36128856 609.064519066 l 1
 352.064519066 606.63871144 l 1
 351.282502232 603.510644103 l 1
 352.325773816 603.162886908 l 1
 347.744709481 589.419693903 l 1
 338.148878903 592.214880438 l 1
EndSplineSet
Validated: 3
EndChar

StartChar: uni0019
Encoding: 25 25 102
Width: 1000
LayerCount: 2
Fore
SplineSet
640.829864655 525.487839325 m 1
 638.121024443 540.461929279 369.716922524 2019.035048 369.716922524 2022.85540449 c 0
 369.716922524 2022.91586364 369.593361869 2023.03448868 369.593361869 2023.35478922 c 0
 369.593361869 2026.98670707 376.645218432 2030.43888512 379.234528024 2025.00118748 c 0
 379.613136385 2024.20608835 379.707274707 2023.9248219 379.690856134 2023.81149681 c 0
 659.003538254 583.135567245 378.979537502 2027.48043023 382.285587685 2009.3676871 c 0
 384.915125111 1994.96133136 611.740520756 741.53788613 643.945350734 568.496528152 c 0
 644.967412173 558.799667042 644.967412173 558.799667042 645.210453116 557.456192802 c 1
 647.077188548 557.77842047 l 1
 653.967763612 517.859810384 653.967763612 517.859810384 653.967763612 516.009972017 c 0
 653.967763612 515.934983214 654.089707613 515.806341033 654.089707613 515.480607573 c 0
 654.089707613 514.439188899 652.451131132 510.949456148 648.956872325 510.949456148 c 0
 647.622963147 510.949456154 646.71006854 511.385398327 646.120862606 511.805155087 c 1
 608.528517988 421.186516544 542.350158072 343.588018232 518.914966119 248.045597711 c 1
 512.243099815 201.34253358 l 1
 502.34253358 202.756900185 l 1
 504.616168338 218.560948749 505.553866012 234.670368564 509.142679238 250.189804492 c 0
 532.588456737 351.578541863 604.394744215 431.188948079 640.829864655 525.487839325 c 1
342.674628542 204.613747777 m 0
 340.281202464 204.613747777 334.906464594 205.896903108 334.906464594 211.145157515 c 0
 334.906464594 212.994926592 335.450265098 214.473563878 336.237828205 215.692490545 c 1
 332.93031875 219 l 1
 343.93031875 230 l 1
 367.501029973 230 l 1
 364.97039757 220.464519345 364.276028456 217.848120677 360.417917314 213.248932519 c 1
 360.625359407 211.714513885 l 1
 358.773968306 211.464219449 l 1
 356.63381 209.34842342 350.92328017 204.613747777 342.674628542 204.613747777 c 0
334.115585692 593.077057128 m 1
 339.077057128 617.884414308 l 1
 348.884414308 615.922942872 l 1
 343.922942872 591.115585692 l 1
 334.115585692 593.077057128 l 1
EndSplineSet
Validated: 3
EndChar

StartChar: uni0018
Encoding: 24 24 103
Width: 1000
LayerCount: 2
Fore
SplineSet
578 534.778882547 m 1
 578 569 l 1
 588 569 l 1
 588 533.22228302 l 1
 567.12989421 467.471415502 537.121379243 399.724662114 497.601403392 327.989775636 c 1
 469.162886908 242.674226184 l 1
 459.674226184 245.837113092 l 1
 469.343636308 274.672878863 478.840408883 303.681282181 488.618188034 332.408678924 c 1
 523.821205175 396.263408676 555.738228311 464.865725914 578 534.778882547 c 1
341.89986949 262.275447591 m 1
 345.009104199 264.348270731 l 1
 344.999997584 254.995036439 l 2
 344.994536854 249.386422996 344.994536854 249.386422996 333.954613896 229.694105959 c 1
 327.889712617 240.739086954 327.889712617 240.739086954 327.829378637 244.742630148 c 1
 324.066690849 250.38666183 l 1
 329.469670527 253.988648283 l 2
 329.731156259 254.75899796 329.731156259 254.75899796 331.816157922 259.935164524 c 1
 332.695051945 266.610448017 l 1
 339.753930168 265.681048406 340.685390865 265.558408635 341.89986949 262.275447591 c 1
333.072227476 602.325241545 m 0
 333.072227476 596.243092338 327.930773789 592.698083687 324.955584414 590.315715912 c 1
 323.034940917 578.79185493 l 1
 314.79000961 580.922829572 310.777069251 581.960009123 310.777069251 587.433902249 c 0
 310.777069251 589.76052594 311.527916043 591.867232441 315.692168211 595.570799838 c 1
 317.88948776 608.754717135 l 1
 323 607.902965096 l 1
 323 614 l 1
 333 614 l 1
 333 603.414933282 l 2
 333.048629461 603.050483394 333.072227476 602.685728366 333.072227476 602.325241545 c 0
EndSplineSet
Validated: 3
EndChar

